<svg width="238" height="176" viewBox="24 18 237.584 176.071" fill="none" xmlns="http://www.w3.org/2000/svg">
<path d="M218.375 46.7365C218.414 46.7769 218.447 46.8227 218.474 46.8724C218.56 47.0319 218.582 47.2186 218.535 47.3939C218.52 47.4705 218.503 47.5472 218.493 47.604C218.492 47.6163 218.492 47.6287 218.493 47.6411C218.494 47.6451 218.494 47.6494 218.493 47.6535C218.494 47.6642 218.494 47.6749 218.493 47.6856V47.7004V47.7301C218.164 49.2871 217.843 50.8466 217.511 52.4037C216.967 54.9939 216.426 57.5824 215.885 60.1692C214.703 65.8274 213.52 71.4838 212.337 77.1387C211.153 82.7935 209.973 88.4368 208.796 94.0686C207.671 99.4565 206.545 104.844 205.417 110.232C204.271 115.694 203.125 121.156 201.979 126.619C200.816 132.166 199.656 137.716 198.496 143.269C198.256 144.414 198.016 145.559 197.777 146.702L199.005 141.307C200.298 135.598 201.591 129.887 202.885 124.174C204.17 118.514 205.452 112.855 206.73 107.195C208.022 101.484 209.315 95.7731 210.61 90.0623L214.427 73.209C215.645 67.8359 216.862 62.4628 218.078 57.0897L219.353 51.4621C219.623 50.2634 219.891 49.0622 220.166 47.8635C219.051 47.3915 220.34 45.4217 220.102 44.48C219.355 45.0905 219.014 46.0494 218.375 46.7365ZM70.5247 119.77C69.8297 121.114 68.9285 122.335 68.0493 123.561C67.1702 124.787 66.3672 126.033 65.4807 127.254C64.5942 128.475 63.607 129.634 62.6493 130.805C61.6915 131.977 60.8026 133.099 59.8768 134.243C58.951 135.387 58.0104 136.51 57.0772 137.644C56.5992 138.227 56.1261 138.816 55.6579 139.411C55.2109 139.977 54.7787 140.555 54.3293 141.121C53.8799 141.687 53.374 142.32 52.8559 142.893C52.3377 143.467 51.8736 143.981 51.3825 144.515C50.9601 144.962 50.5402 145.412 50.1276 145.869C49.882 146.166 49.6365 146.465 49.3786 146.769C49.1208 147.073 48.8629 147.446 48.6124 147.787C48.1458 148.425 47.7038 149.082 47.2593 149.737C46.9131 150.259 46.5668 150.778 46.2353 151.309C46.1911 151.378 46.1494 151.447 46.1076 151.519C48.2441 150.367 50.3437 149.141 52.4925 148.027C55.3705 146.312 58.2756 144.643 61.2986 143.205C63.9139 141.722 66.6668 140.62 69.4442 139.567L69.4663 139.26L70.424 125.207C70.5615 123.181 70.6999 121.155 70.839 119.13L70.5247 119.77ZM248.072 101.295C246.857 106.952 245.644 112.607 244.433 118.262C243.194 124.051 241.953 129.839 240.71 135.627C239.497 141.285 238.285 146.943 237.073 152.602C237.017 152.849 236.963 153.096 236.909 153.363C237.491 152.577 238.036 151.784 238.539 151.005C239.997 148.701 241.31 146.307 242.468 143.838C243.669 141.282 244.747 138.665 245.705 136.005C246.149 134.766 246.571 133.524 246.972 132.278C247.791 129.693 248.522 127.081 249.167 124.441C249.718 122.172 250.196 119.886 250.597 117.682C250.614 117.583 250.631 117.484 250.648 117.39C251.149 114.558 251.541 111.708 251.825 108.841C251.992 107.131 252.109 105.413 252.186 103.698C252.306 100.835 252.267 97.9676 252.07 95.1091C252.051 94.8323 252.026 94.553 252.006 94.3281C251.829 92.3405 251.528 90.3659 251.105 88.4162C251.058 88.2111 251.009 88.0084 250.958 87.8033C250 92.2982 249.038 96.7955 248.072 101.295ZM72.531 88.1271C72.2142 88.8413 71.8925 89.5531 71.5487 90.26C71.1927 91.0015 70.8317 91.7577 70.4412 92.4844C70.2349 92.8675 70.0286 93.253 69.815 93.6312C69.6013 94.0093 69.4024 94.3504 69.1913 94.7063C68.7591 95.4329 68.2777 96.1323 67.8013 96.8293C67.3544 97.4793 66.8853 98.112 66.4188 98.7472C65.9522 99.3824 65.4365 100.077 64.9699 100.747C64.5033 101.416 64.0515 102.044 63.58 102.687C63.1085 103.329 62.6444 103.967 62.1385 104.577C61.861 104.916 61.5835 105.257 61.2888 105.581C60.9941 105.905 60.7068 106.219 60.4096 106.532C59.8694 107.101 59.3046 107.645 58.7422 108.191C58.1799 108.737 57.6101 109.291 57.065 109.859C56.4781 110.472 55.9059 111.095 55.346 111.723C54.2974 112.887 53.2414 114.048 52.1044 115.128C51.4954 115.704 50.8766 116.275 50.2651 116.858C49.6536 117.442 49.0594 118.013 48.4749 118.606C47.8905 119.199 47.3969 119.75 46.8713 120.336C46.3458 120.922 45.8006 121.525 45.2628 122.115C44.4263 123.032 43.5733 123.934 42.704 124.822C41.8789 125.662 41.039 126.483 40.2483 127.36C39.9708 127.681 39.6933 128.005 39.4355 128.349C39.1457 128.729 38.8657 129.115 38.5956 129.51C37.7582 130.763 36.9896 132.061 36.1571 133.316C35.2632 134.663 34.3128 135.971 33.3772 137.288C32.9941 137.832 32.6111 138.378 32.2403 138.932C31.4745 140.07 30.7774 141.253 30.1529 142.476C29.8487 143.104 29.5774 143.747 29.34 144.404C29.1244 145.04 28.9424 145.688 28.7949 146.344C28.5241 147.668 28.3362 149.009 28.2325 150.357C28.2006 150.953 28.2006 151.551 28.2325 152.147C28.2546 152.394 28.2792 152.641 28.3111 152.888C29.124 153.526 30.0301 154.067 30.8601 154.601C33.1243 155.664 35.44 155.674 37.6968 155.142C38.6315 152.413 39.8118 149.776 41.2232 147.263C43.0724 144.297 45.1008 141.527 47.1758 138.729C51.4905 133.242 55.9648 127.881 60.5349 122.61C63.5628 118.799 66.6742 114.985 69.0734 110.732C69.6578 109.432 70.2742 108.146 70.9766 106.908C71.2369 106.528 71.4947 105.672 71.8115 104.956C71.9916 102.349 72.17 99.7424 72.3468 97.1358L73.0393 86.9803C72.8674 87.3535 72.7005 87.739 72.531 88.1271ZM170.268 26.6381C169.485 27.1893 168.706 27.7602 167.977 28.3855C168.023 28.5217 168.029 28.6685 167.994 28.8081C167.847 29.4828 167.692 30.1526 167.54 30.8224C166.931 33.5114 166.323 36.1996 165.718 38.887C164.48 44.3639 163.242 49.8407 162.002 55.3176L158.157 72.3341L154.363 89.1132C153.076 94.8076 151.788 100.503 150.5 106.199L146.625 123.351C145.341 129.031 144.057 134.715 142.772 140.405C141.504 146.007 140.236 151.617 138.965 157.236L138.162 160.802C139.207 157.029 140.25 153.255 141.291 149.48C142.627 144.641 143.963 139.802 145.301 134.965L149.493 119.785C151.001 114.333 152.508 108.88 154.014 103.426C155.535 97.9127 157.057 92.3995 158.581 86.8864C160.138 81.2529 161.694 75.6187 163.247 69.9836C164.778 64.4425 166.309 58.9005 167.839 53.3577C169.323 47.9863 170.807 42.6157 172.292 37.2459L173.817 31.722C173.922 31.3439 174.023 30.9657 174.128 30.5876C173.965 30.404 173.873 30.1669 173.871 29.9203C173.566 28.6672 173.625 27.2585 172.93 26.1438C172.865 25.9947 172.759 25.8673 172.625 25.7764C172.49 25.6854 172.333 25.6345 172.171 25.6297C171.548 25.6273 170.813 26.3193 170.275 26.6381H170.268ZM85.146 162.446C85.3596 162.463 85.5733 162.475 85.7869 162.49C86.003 159.969 86.2175 157.447 86.4303 154.925C86.4716 154.875 86.4965 154.814 86.5015 154.749C86.5015 154.7 86.5015 154.651 86.5015 154.599C86.5703 153.664 86.6399 152.729 86.7103 151.793V151.687L86.806 150.409L87.086 146.687C87.113 146.336 87.1375 145.985 87.1646 145.634H87.1965C87.3291 144.082 87.4609 142.53 87.5918 140.978C87.6049 140.958 87.6156 140.936 87.6238 140.914C87.6401 140.866 87.6468 140.816 87.6434 140.766C87.6399 140.683 87.6047 140.605 87.5452 140.548L87.6189 139.559L87.8399 136.594L87.9283 135.941C87.9676 135.625 88.002 135.308 88.024 134.992C88.0462 134.676 88.0707 134.337 88.11 134.003C88.11 133.902 88.1346 133.798 88.1493 133.697H88.2082C88.3457 132.049 88.4849 130.408 88.6257 128.774L90.1654 110.628L91.7199 92.2891L93.2596 74.1556C93.7671 68.1498 94.2763 62.1456 94.7871 56.1431L96.2973 38.363L96.6509 34.1614L92.3142 37.2731L85.4136 42.2161L78.3535 47.2802L77.0372 48.2244C76.7622 52.2892 76.4847 56.3557 76.2047 60.4238C75.9543 64.0734 75.7087 67.7238 75.468 71.3751C75.4901 71.3812 75.5115 71.3894 75.5319 71.3998V71.4493C75.5319 71.5481 75.5147 71.6494 75.5049 71.7483C75.4877 71.9164 75.4705 72.0869 75.4558 72.2426C75.4337 72.4898 75.414 72.7369 75.4042 72.9841C75.4042 73.0607 75.3919 73.1398 75.3845 73.2164L75.333 73.6464V73.6983L75.3133 73.7478L75.2618 74.5065L74.2966 88.6535L73.3316 102.813L73.2653 103.764C73.2773 103.771 73.2888 103.778 73.2996 103.787V103.858C73.2996 103.915 73.2996 103.972 73.2996 104.029C73.2996 104.199 73.2775 104.372 73.2653 104.543C73.253 104.713 73.2481 104.859 73.2383 105.015C73.2383 105.067 73.2383 105.119 73.2383 105.171C73.2383 105.223 73.2014 105.267 73.1818 105.316C72.9166 109.189 72.6522 113.061 72.3886 116.933L71.4309 130.971L70.9888 137.454C70.9495 137.968 70.9053 138.482 70.866 138.996C70.7809 140.098 70.6942 141.201 70.6057 142.305C70.5321 143.258 70.4576 144.211 70.3823 145.165C70.3577 145.501 70.3258 145.837 70.3037 146.173C70.2966 146.291 70.3194 146.408 70.37 146.514L69.8788 153.867C69.7192 154.828 69.5645 155.787 69.4074 156.749C69.4074 156.764 69.4074 156.776 69.4074 156.788C69.4074 156.801 69.4074 156.764 69.4074 156.751C69.4074 156.778 69.4074 156.803 69.4074 156.83V156.788C69.3607 157.07 69.314 157.349 69.2698 157.631C69.1397 158.373 69.0243 159.114 68.9015 159.87C68.845 160.209 68.7861 160.548 68.7345 160.886C68.7055 161.058 68.7439 161.234 68.8415 161.377C68.9391 161.52 69.0883 161.62 69.2576 161.655C69.296 161.658 69.3346 161.658 69.373 161.655C69.4715 161.655 69.5687 161.633 69.6578 161.591H69.7045H69.7487C69.846 161.588 69.9417 161.565 70.0293 161.522C70.117 161.48 70.1946 161.419 70.257 161.343L71.4849 161.432L73.3635 161.568C74.1002 161.625 74.8369 161.68 75.5908 161.731L77.1846 161.85C77.5333 161.877 77.882 161.909 78.2282 161.927H78.2774C78.3433 161.926 78.4087 161.915 78.4714 161.895L85.146 162.446ZM181.773 32.7872C181.71 32.9014 181.616 32.9956 181.503 33.0591C181.471 33.153 181.439 33.2494 181.41 33.3433C181.257 33.8376 181.105 34.3097 180.95 34.7941C180.338 36.7367 179.726 38.6793 179.114 40.622C177.499 45.7298 175.887 50.8376 174.276 55.9454C172.639 61.1553 170.995 66.3645 169.345 71.5728C167.667 76.885 165.991 82.1962 164.318 87.5067C162.624 92.8749 160.93 98.243 159.237 103.611C157.6 108.824 155.956 114.036 154.306 119.246C152.623 124.57 150.943 129.893 149.264 135.217L144.189 151.312C142.956 155.22 141.722 159.128 140.488 163.036C140.989 161.596 141.489 160.157 141.988 158.719C143.789 153.543 145.585 148.37 147.376 143.197C149.193 137.968 151.009 132.739 152.823 127.511L158.326 111.661C160.107 106.537 161.887 101.413 163.665 96.2905C165.482 91.0476 167.302 85.8063 169.124 80.5667L174.384 65.4187L179.6 50.3944C181.275 45.57 182.95 40.7439 184.627 35.9162C184.808 35.3947 184.988 34.8707 185.172 34.3517C185.157 34.0181 185.211 33.6597 185.187 33.3631C185.214 32.4758 185.273 31.5564 185.049 30.6914C183.966 31.3958 182.746 31.9173 181.778 32.7872H181.773ZM176.125 29.9919C175.938 30.1056 175.762 30.2391 175.58 30.38C175.587 30.4581 175.58 30.537 175.558 30.6123C175.523 30.7334 175.491 30.8595 175.457 30.9781C175.457 30.9954 175.457 31.0152 175.44 31.0349C175.246 31.7245 175.059 32.419 174.87 33.1086C174.173 35.6279 173.476 38.148 172.78 40.6689C171.273 46.131 169.764 51.593 168.254 57.0551L163.643 73.7453C162.092 79.3474 160.542 84.9594 158.992 90.5813C157.489 96.0186 155.985 101.463 154.48 106.913C152.976 112.364 151.468 117.828 149.957 123.307L145.802 138.316C144.468 143.141 143.135 147.965 141.804 152.789C140.691 156.808 139.58 160.828 138.472 164.848L138.486 164.808C139.32 162.164 140.153 159.522 140.986 156.882C142.648 151.61 144.31 146.342 145.971 141.079C147.674 135.688 149.375 130.297 151.074 124.906C152.72 119.694 154.364 114.482 156.008 109.268C157.681 103.965 159.355 98.6599 161.03 93.3543C162.713 88.0159 164.397 82.6774 166.081 77.3389C167.746 72.0581 169.412 66.7781 171.079 61.4989C172.716 56.3038 174.353 51.1078 175.99 45.911C177.262 41.8758 178.535 37.839 179.809 33.8006C179.924 33.4323 180.039 33.0591 180.157 32.6983C180.187 32.6068 180.221 32.5129 180.248 32.419L180.263 32.3646C180.262 32.3581 180.262 32.3514 180.263 32.3448C180.268 32.3263 180.275 32.3082 180.282 32.2905C180.247 32.2221 180.227 32.1472 180.221 32.0705C180.205 30.6535 179.935 29.251 179.423 27.9307C178.335 28.5684 177.174 29.3197 176.127 29.9919H176.125ZM88.024 163.914C88.1541 163.934 88.2754 163.993 88.3728 164.082L90.4282 164.245L94.8485 164.596L103.618 165.295L112.154 165.975L119.521 166.561L119.536 166.408C120.074 160.641 120.609 154.878 121.139 149.119C121.693 143.143 122.247 137.169 122.802 131.196C123.339 125.378 123.877 119.56 124.418 113.742C124.958 107.924 125.499 102.091 126.041 96.2435L127.617 79.2444C128.161 73.3754 128.704 67.5055 129.248 61.6348C129.805 55.6422 130.36 49.6488 130.915 43.6545C131.456 37.8168 131.997 31.9774 132.539 26.1364C132.652 24.9253 132.764 23.7135 132.875 22.5008C132.875 22.5008 132.875 22.4761 132.875 22.4637L129.349 22.1968L120.921 21.5665L112.201 20.9165C109.216 20.6908 106.23 20.4675 103.242 20.2468L99.4775 19.965H99.4185H99.2466C99.2319 20.1232 99.2196 20.2814 99.2049 20.4395C98.8775 24.1897 98.559 27.9381 98.2496 31.685C97.7585 37.4601 97.2673 43.236 96.7762 49.0128C96.267 54.9988 95.7595 60.984 95.2537 66.9684C94.7412 73.0335 94.2272 79.0978 93.7115 85.1612C93.1958 91.2247 92.6817 97.2775 92.1693 103.32C91.6503 109.434 91.1313 115.549 90.6124 121.666C90.2391 126.083 89.865 130.5 89.4901 134.915L89.5147 134.943C89.5136 134.952 89.5136 134.962 89.5147 134.972C89.4982 135.054 89.4899 135.136 89.4901 135.219L89.4754 135.444C89.4767 135.456 89.4767 135.467 89.4754 135.479V135.499C89.4754 135.499 89.4754 135.514 89.4754 135.521C89.474 135.532 89.474 135.544 89.4754 135.556C89.4601 135.63 89.4536 135.707 89.4557 135.783C89.4557 135.82 89.4557 135.857 89.4557 135.894C89.4506 135.938 89.4556 135.982 89.4705 136.023C89.4705 136.052 89.4705 136.082 89.4705 136.112L89.4238 136.144L89.1291 139.604L88.0756 152.023C88.081 152.092 88.0752 152.161 88.0584 152.228C87.9045 154.062 87.749 155.896 87.5918 157.73C87.4494 159.391 87.3086 161.051 87.1695 162.71C87.1695 162.74 87.1695 162.769 87.1523 162.802C87.1351 162.903 87.1179 163.002 87.1056 163.103C87.0933 163.204 87.0786 163.316 87.0737 163.424C87.0725 163.435 87.0725 163.446 87.0737 163.457V163.496V163.516C87.0737 163.607 87.0516 163.699 87.0467 163.79V163.805H87.1179C87.4028 163.8 87.7269 163.906 88.024 163.914ZM139.223 19.3545C138.395 19.7969 137.75 20.4939 137.126 21.1909C136.969 21.38 136.825 21.5798 136.696 21.789C136.694 21.9104 136.661 22.0293 136.6 22.134C136.539 22.2388 136.452 22.326 136.347 22.3871L136.311 22.434C135.941 26.2336 135.571 30.0323 135.203 33.8302C134.632 39.747 134.059 45.6639 133.484 51.5807C132.9 57.6013 132.314 63.6228 131.728 69.645C131.142 75.6673 130.557 81.7028 129.972 87.7514C129.386 93.8033 128.799 99.8561 128.209 105.91C127.628 111.889 127.048 117.868 126.468 123.845L124.678 142.295L122.895 160.644C122.674 162.911 122.454 165.178 122.235 167.443C122.235 167.458 122.235 167.473 122.235 167.488C122.235 167.502 122.235 167.52 122.235 167.535C122.228 167.594 122.213 167.652 122.19 167.708L122.212 167.769C122.242 167.839 122.274 167.908 122.308 167.974C122.343 168.041 122.36 168.059 122.387 168.098L122.441 168.162L122.5 168.217L122.529 168.234C122.537 168.24 122.546 168.245 122.556 168.249H122.581H122.64H122.677L122.753 168.214L122.875 168.133L122.986 168.036C123.06 167.96 123.128 167.881 123.195 167.789C123.29 167.658 123.379 167.522 123.462 167.381C123.561 167.201 123.649 167.016 123.73 166.825C123.774 166.714 123.816 166.603 123.858 166.489C123.893 166.39 123.95 166.301 124.025 166.227C124.025 166.148 124.042 166.071 124.054 165.995C124.722 160.628 125.395 155.263 126.073 149.9L128.209 132.847C128.931 127.108 129.652 121.369 130.37 115.63L132.463 98.9276L134.592 81.9557C135.299 76.3107 136.007 70.665 136.716 65.0184C137.441 59.2268 138.167 53.436 138.894 47.646C139.591 42.0752 140.29 36.5044 140.989 30.9336C141.292 28.5198 141.594 26.1059 141.897 23.692C141.531 23.3816 141.267 22.9661 141.141 22.5008C140.824 21.7346 140.517 20.9684 140.159 20.2245C139.965 19.9082 139.719 19.3397 139.309 19.3397L139.223 19.3545ZM186.606 34.4951C186.615 34.6007 186.601 34.7072 186.563 34.8062C186.525 34.9052 186.465 34.994 186.387 35.066L186.358 35.1525L186.343 35.1871C185.808 36.7145 185.285 38.2444 184.754 39.7718L182.146 47.3124L176.989 62.1415L171.685 77.4155C169.884 82.6156 168.078 87.8173 166.268 93.0207C164.485 98.1499 162.704 103.279 160.924 108.408C159.112 113.633 157.298 118.856 155.482 124.078C153.65 129.362 151.816 134.645 149.979 139.928L144.623 155.36C143.107 159.716 141.593 164.076 140.08 168.439C140.187 168.376 140.31 168.346 140.434 168.353C141.866 164.25 143.295 160.145 144.719 156.037C146.59 150.654 148.463 145.271 150.338 139.888L155.878 123.964L161.462 107.914C163.274 102.699 165.088 97.4859 166.904 92.2743L172.341 76.6419L177.837 60.8489L183.119 45.6614C184.523 41.6312 185.926 37.601 187.325 33.5707C187.07 33.8663 186.83 34.1748 186.606 34.4951ZM147.378 19.8736C145.51 20.526 144.827 22.6787 143.265 23.7217C143.268 23.7538 143.268 23.786 143.265 23.8181C143.265 23.8329 143.265 23.8453 143.265 23.8552V23.87C142.844 27.2511 142.42 30.6288 141.993 34.0032C141.283 39.6498 140.575 45.2973 139.869 50.9455C139.137 56.7635 138.408 62.5822 137.681 68.4019C136.979 73.9941 136.277 79.588 135.576 85.1835C134.863 90.8614 134.15 96.5385 133.44 102.215C132.746 107.756 132.052 113.295 131.357 118.833C130.635 124.58 129.914 130.327 129.194 136.075L127.028 153.348C126.494 157.602 125.961 161.855 125.429 166.106V166.16C125.429 166.16 125.429 166.178 125.429 166.185C125.429 166.247 125.415 166.306 125.405 166.368L125.439 166.412C125.754 167.109 125.994 167.851 126.363 168.528C126.962 167.968 127.48 167.326 127.902 166.62C127.851 166.506 127.834 166.38 127.853 166.257C127.853 166.22 127.865 166.183 127.873 166.143C127.88 166.104 127.873 166.118 127.873 166.106C127.872 166.089 127.872 166.071 127.873 166.054C128.266 163.681 128.629 161.304 129.01 158.931C129.462 156.107 129.912 153.284 130.36 150.461C131.248 144.92 132.133 139.381 133.015 133.843C133.925 128.13 134.837 122.418 135.751 116.705C136.664 110.993 137.574 105.299 138.479 99.6246C139.384 93.9286 140.294 88.23 141.207 82.5291C142.126 76.7622 143.046 70.9953 143.968 65.2284C144.881 59.5027 145.795 53.7762 146.711 48.0489C147.586 42.5456 148.465 37.0432 149.346 31.5416C149.65 29.627 149.955 27.7116 150.261 25.7953C150.261 25.778 150.261 25.7607 150.261 25.7434C149.621 25.385 149.066 24.4928 148.714 23.9343C148.307 23.2274 148.238 22.4093 148.127 21.6185C147.968 21.2131 147.943 19.8513 147.41 19.8513L147.378 19.8736ZM155.21 22.2091C153.812 23.084 152.754 24.3519 151.624 25.521L151.551 25.5951C151.619 25.7229 151.644 25.8695 151.622 26.0128V26.0499L149.412 39.8904L146.679 57.0205C145.765 62.7479 144.851 68.4744 143.936 74.2001C143.02 79.9258 142.102 85.6671 141.18 91.4241C140.277 97.0937 139.371 102.764 138.464 108.436C137.554 114.14 136.644 119.843 135.734 125.546L133.032 142.53C132.133 148.154 131.233 153.776 130.331 159.396C129.982 161.588 129.643 163.783 129.282 165.975C129.356 166.039 129.413 166.12 129.449 166.21C129.485 166.301 129.5 166.399 129.491 166.497C129.668 168.456 130.007 170.673 131.701 167.861C131.735 167.712 131.8 167.573 131.891 167.451C131.982 167.329 132.097 167.228 132.229 167.154C132.6 165.194 132.988 163.239 133.364 161.279L134.999 152.787C136.076 147.193 137.154 141.6 138.231 136.008L141.465 119.201L144.721 102.286C145.828 96.531 146.936 90.774 148.046 85.0154C149.142 79.3177 150.238 73.6217 151.335 67.9273C152.418 62.3088 153.501 56.6901 154.581 51.0716L157.719 34.7744C158.176 32.3951 158.635 30.0142 159.095 27.6317C159.095 27.6144 159.095 27.597 159.095 27.5822C159.123 27.4004 159.219 27.2365 159.365 27.125C159.383 27.1112 159.402 27.0988 159.421 27.0879C159.322 27.0333 159.237 26.9543 159.176 26.8581C159.083 26.8288 158.997 26.779 158.926 26.7123C158.855 26.6456 158.799 26.5637 158.763 26.4725C158.098 24.9896 158.169 23.2744 157.447 21.8236C157.382 21.7059 157.287 21.6074 157.173 21.538C157.058 21.4686 156.927 21.4307 156.794 21.4281C156.263 21.4183 155.664 21.9472 155.21 22.2215V22.2091ZM160.637 26.7444C160.489 26.8858 160.317 26.9989 160.129 27.078C160.246 27.1468 160.341 27.2495 160.4 27.3728C160.459 27.4962 160.48 27.6346 160.46 27.77C160.459 27.7881 160.459 27.8063 160.46 27.8244C160.46 27.8244 160.46 27.8417 160.46 27.8516C159.738 31.5836 159.019 35.3181 158.304 39.055C157.253 44.5023 156.203 49.9495 155.156 55.3967C154.06 61.0911 152.964 66.7847 151.868 72.4774L148.574 89.5902C147.464 95.3571 146.355 101.119 145.247 106.876C144.166 112.478 143.087 118.08 142.008 123.682C140.929 129.284 139.852 134.88 138.776 140.469C137.701 146.056 136.624 151.645 135.547 157.236L134.358 163.345C134.051 164.937 133.735 166.531 133.437 168.125C133.418 168.232 133.376 168.333 133.314 168.421C133.253 168.509 133.172 168.583 133.079 168.637C133.022 168.933 133.037 169.24 133.123 169.529C133.418 170.177 134.597 168.679 134.869 168.395C134.924 168.297 134.999 168.213 135.09 168.148C135.613 165.866 136.122 163.583 136.637 161.299C137.276 158.481 137.913 155.665 138.548 152.851C139.807 147.271 141.068 141.69 142.332 136.109C143.624 130.398 144.915 124.687 146.205 118.974C147.495 113.262 148.788 107.541 150.085 101.812L153.945 84.7386C155.214 79.1167 156.484 73.494 157.756 67.8705C159.028 62.2469 160.302 56.6152 161.577 50.9752L165.246 34.7422C165.691 32.765 166.147 30.815 166.58 28.8477C166.498 28.7705 166.437 28.6747 166.4 28.5684C166.363 28.4622 166.352 28.3485 166.368 28.2372C166.379 28.1858 166.397 28.1359 166.42 28.0889C166.386 28.0025 166.368 27.9102 166.368 27.817C166.368 26.386 165.507 24.2555 164.028 23.8477C162.763 24.132 161.813 26.0375 160.637 26.7444ZM188.929 33.1506L188.762 33.63L188.698 33.8154V33.8451C187.225 38.0961 185.746 42.3487 184.261 46.6031C182.494 51.6812 180.727 56.761 178.959 61.8425L173.461 77.6602C171.66 82.8421 169.859 88.0257 168.058 93.211C166.236 98.4506 164.413 103.691 162.589 108.932C160.736 114.266 158.88 119.599 157.022 124.933C155.164 130.266 153.307 135.584 151.45 140.887L145.829 157.04C144.452 160.995 143.074 164.954 141.696 168.919C141.571 169.131 141.45 169.349 141.335 169.564C141.22 169.779 141.07 170.058 140.952 170.305C140.863 170.493 140.787 170.686 140.706 170.879C140.647 171.238 140.615 171.602 140.611 171.966C140.876 172.749 142.03 171.516 142.659 170.748C142.66 170.653 142.676 170.558 142.705 170.468C143.43 168.365 144.179 166.267 144.901 164.163C145.77 161.666 146.638 159.168 147.506 156.672L152.923 141.102L158.434 125.264L163.805 109.829C165.62 104.616 167.434 99.403 169.247 94.1897C171.059 88.9764 172.87 83.7706 174.681 78.5722L180.152 62.8533C181.886 57.8658 183.621 52.8799 185.356 47.8957C186.595 44.3284 187.837 40.7604 189.081 37.1915C189.103 37.1248 189.126 37.058 189.15 36.9913C189.211 36.8208 189.27 36.6502 189.329 36.4797C189.353 36.4093 189.39 36.3446 189.44 36.2894C189.343 36.2075 189.276 36.0961 189.248 35.972C189.22 35.848 189.233 35.7182 189.285 35.6023C189.282 35.5603 189.282 35.5182 189.285 35.4763C189.227 34.6859 189.115 33.9005 188.949 33.1258C188.943 33.1349 188.937 33.1432 188.929 33.1506ZM190.449 36.2499C190.519 36.3198 190.574 36.4041 190.609 36.497C190.671 36.6651 190.671 36.8504 190.609 37.0185C190.545 37.1989 190.483 37.3818 190.42 37.5622V37.587C190.309 37.8885 190.208 38.1949 190.103 38.4965C189.857 39.2083 189.612 39.9176 189.366 40.6269L187.031 47.3371C185.31 52.2801 183.591 57.2232 181.874 62.1662L176.434 77.7986C174.634 82.9739 172.833 88.1501 171.032 93.3271C169.205 98.5766 167.379 103.825 165.553 109.073C163.761 114.226 161.967 119.379 160.173 124.533L154.642 140.36C152.842 145.55 151.035 150.741 149.223 155.931L144.346 169.952C144.276 170.057 144.223 170.172 144.186 170.293L144.157 170.372C144.208 170.457 144.238 170.554 144.245 170.654C144.248 170.749 144.233 170.845 144.203 170.935C144.206 170.989 144.201 171.042 144.189 171.094C143.766 172.116 143.612 173.229 143.739 174.329C144.879 173.896 145.569 172.705 146.178 171.704C146.228 171.542 146.316 171.394 146.435 171.274C146.554 171.153 146.7 171.064 146.86 171.012C148.627 166.069 150.393 161.132 152.16 156.2C154.021 150.995 155.883 145.791 157.746 140.588C159.614 135.355 161.486 130.124 163.36 124.896C165.176 119.824 166.991 114.753 168.805 109.681C170.605 104.644 172.406 99.6089 174.207 94.5753C176.059 89.4032 177.909 84.2303 179.759 79.0566C181.591 73.9306 183.425 68.8055 185.26 63.6813L190.705 48.4641C191.785 45.4439 192.866 42.4221 193.949 39.3986C193.602 39.359 193.367 39.0995 193.344 38.4693C193.524 37.1124 193.961 35.7506 193.774 34.3838C192.567 34.8072 191.442 35.4387 190.449 36.2499ZM196.858 37.9626C196.559 38.1307 196.043 38.5088 195.5 38.8351C195.527 38.9758 195.515 39.1214 195.464 39.2552L195.331 39.6235C195.324 39.6423 195.316 39.6604 195.307 39.6778C194.97 40.6047 194.646 41.5364 194.324 42.4657L192.549 47.4285C190.748 52.4408 188.954 57.4547 187.166 62.4702C185.34 67.578 183.513 72.6858 181.682 77.7936L176.135 93.3024C174.345 98.3081 172.554 103.314 170.762 108.319C168.935 113.427 167.106 118.535 165.276 123.643C163.418 128.84 161.558 134.039 159.696 139.241L154.065 154.977C152.219 160.144 150.37 165.31 148.52 170.476L148.127 171.573C148.127 171.573 148.127 171.595 148.127 171.603L148.049 171.823C148.007 171.936 147.933 172.034 147.835 172.104C147.914 172.967 147.774 173.857 148.039 174.697C148.461 176.024 148.854 176.921 150.249 175.817C150.682 175.437 151.077 175.016 151.43 174.561C151.52 174.442 151.646 174.355 151.789 174.314C152.364 172.688 152.926 171.054 153.508 169.425L156.28 161.499C158.15 156.156 160.02 150.814 161.889 145.474L167.353 129.854C169.215 124.537 171.075 119.22 172.935 113.905C174.808 108.547 176.683 103.192 178.561 97.8401L184.027 82.2127C185.799 77.156 187.569 72.0984 189.337 67.04C191.154 61.8531 192.969 56.663 194.781 51.4695C195.97 48.0736 197.158 44.6777 198.347 41.2819C198.325 41.2236 198.309 41.1631 198.3 41.1014C198.3 40.4613 198.546 39.8336 198.595 39.191C198.698 38.4495 198.983 37.708 198.877 36.9443C198.176 37.2229 197.5 37.5637 196.858 37.9626ZM68.8401 146.509C67.3667 147.251 65.9178 148.069 64.4763 148.884C63.0864 149.674 61.7062 150.477 60.336 151.294C58.8822 152.163 57.4227 153.017 55.9575 153.857C55.2158 154.281 54.4791 154.707 53.7473 155.137C53.0818 155.523 52.4262 155.923 51.7631 156.316C51.3882 156.542 51.01 156.764 50.6286 156.981C50.2332 157.206 49.8329 157.421 49.4302 157.639C49.079 157.826 48.718 157.999 48.3619 158.177C48.1753 158.271 47.9838 158.353 47.7947 158.442C47.6056 158.531 47.4877 158.588 47.333 158.654C46.5447 158.993 45.7515 159.324 44.9461 159.628C44.5261 159.786 44.1038 159.935 43.6789 160.083C43.3449 160.197 43.0085 160.298 42.6721 160.404C42.6721 160.417 42.6721 160.431 42.6721 160.444C42.2915 161.845 41.8936 163.244 41.5474 164.645C41.4712 164.964 41.4 165.288 41.3313 165.612C41.2158 166.188 41.1127 166.763 41.0317 167.342C40.9506 167.92 40.8966 168.486 40.8524 169.072C40.8328 169.485 40.8131 169.897 40.8131 170.308C40.8131 170.718 40.8278 171.138 40.8499 171.543C40.877 171.852 40.9015 172.164 40.9457 172.47C40.9899 172.777 41.0488 173.155 41.1127 173.496C41.3387 174.529 41.6207 175.549 41.9575 176.551C42.1901 177.062 42.4568 177.558 42.7556 178.034L42.812 178.085C43.0864 178.27 43.3893 178.408 43.7084 178.493C46.0953 178.713 48.195 177.169 50.1153 175.945C53.9953 173.721 57.3155 170.651 60.0683 167.129C61.0039 165.839 62.0771 164.658 62.9562 163.323C63.801 161.84 64.8864 160.535 65.9448 159.206C66.6963 158.331 67.4919 157.49 68.3023 156.665C68.3907 155.376 68.4783 154.089 68.565 152.804L68.9997 146.43L68.8401 146.509ZM252.38 68.8887L248.75 70.6336L241.24 74.2495C240.629 74.5411 240.013 74.8278 239.409 75.1244L239.276 75.7175C239.093 76.5661 238.908 77.4147 238.721 78.2632C238.343 79.9916 237.965 81.7217 237.589 83.4534C236.793 87.1014 235.998 90.7494 235.202 94.3973C234.406 98.0453 233.604 101.718 232.795 105.415C231.991 109.108 231.187 112.799 230.381 116.49C229.576 120.181 228.771 123.869 227.967 127.553C227.141 131.342 226.314 135.132 225.487 138.922C224.647 142.776 223.807 146.63 222.965 150.484C222.147 154.225 221.328 157.966 220.509 161.707C220.231 162.98 219.954 164.253 219.677 165.525C220.905 167.161 222.133 168.785 223.361 170.414C225.057 172.668 226.755 174.924 228.456 177.181C228.919 177.794 229.382 178.408 229.844 179.022L229.961 179.178L230.453 176.847C230.453 176.815 230.465 176.783 230.472 176.751C230.504 176.588 230.531 176.422 230.556 176.257C230.621 176.03 230.674 175.8 230.715 175.567C230.73 175.513 230.742 175.458 230.755 175.404C230.779 175.298 230.799 175.194 230.816 175.088L230.846 175.06C231.664 171.262 232.483 167.464 233.301 163.664L236.926 146.759C238.147 141.07 239.367 135.379 240.585 129.688C241.818 123.944 243.05 118.2 244.281 112.454C245.479 106.864 246.677 101.271 247.876 95.6776C249.104 89.9469 250.331 84.2155 251.559 78.4832C252.291 75.0758 253.022 71.6684 253.752 68.261L252.38 68.8887ZM199.69 41.5463L196.178 51.5856C194.377 56.7165 192.582 61.8466 190.793 66.9758L185.474 82.1732C183.645 87.4078 181.814 92.6417 179.98 97.8747C178.111 103.223 176.24 108.571 174.367 113.92C172.515 119.216 170.663 124.51 168.809 129.802C166.981 135.037 165.15 140.269 163.316 145.498C161.448 150.842 159.579 156.183 157.71 161.521C156.187 165.876 154.664 170.23 153.14 174.583C153.173 174.709 153.167 174.842 153.122 174.964C153.1 176.674 153.498 178.498 154.79 179.699C156.062 181.007 157.341 176.981 158.336 176.261L159.375 173.068C160.237 170.414 161.1 167.759 161.963 165.105L167.186 149.04C168.933 143.662 170.68 138.285 172.427 132.909C174.174 127.532 175.924 122.146 177.677 116.75C179.411 111.408 181.146 106.066 182.883 100.724L188.084 84.7164L193.285 68.7058C194.97 63.5189 196.656 58.3288 198.344 53.1353L201.782 42.5423C201.814 42.4484 201.844 42.3545 201.873 42.2581C201.691 41.7317 202.295 41.0001 202.509 40.5033C202.666 40.1719 202.794 39.827 202.89 39.4727C201.63 39.7693 200.758 40.8592 199.692 41.5463H199.69ZM203.177 42.703C202.44 44.9274 201.733 47.1517 201.011 49.3761C199.33 54.5515 197.648 59.7268 195.967 64.9022C194.263 70.1451 192.559 75.3856 190.857 80.6235C189.113 85.9966 187.368 91.3705 185.621 96.7453C183.874 102.12 182.135 107.475 180.403 112.81L175.202 128.818C173.45 134.208 171.698 139.599 169.946 144.992C168.208 150.348 166.468 155.703 164.728 161.057C163.034 166.277 161.338 171.496 159.64 176.716C159.571 176.926 159.505 177.136 159.438 177.346C159.438 177.413 159.438 177.48 159.438 177.542C159.465 179.136 158.996 182.072 161.383 180.065C162.108 179.45 162.757 178.75 163.316 177.979C163.372 177.89 163.436 177.794 163.503 177.695C163.506 177.665 163.512 177.635 163.52 177.606C163.586 177.359 163.667 177.131 163.738 176.892C163.93 176.277 164.12 175.66 164.308 175.041C164.704 173.752 165.099 172.465 165.492 171.18L167.947 163.19C169.612 157.752 171.28 152.315 172.95 146.878C174.603 141.488 176.258 136.097 177.913 130.704C179.55 125.337 181.196 119.973 182.851 114.609C184.467 109.337 186.083 104.071 187.699 98.8115L192.534 83.0209C194.137 77.8011 195.739 72.5804 197.34 67.3589C198.902 62.2741 200.462 57.1911 202.02 52.1096C202.701 49.8935 203.383 47.6749 204.064 45.4538C204.25 44.8409 204.442 44.218 204.631 43.615C204.601 43.5145 204.593 43.4084 204.61 43.3048C204.627 43.2011 204.666 43.1027 204.727 43.0169C204.892 42.4252 204.997 41.8182 205.041 41.2053C204.407 41.6823 203.811 42.2136 203.179 42.703H203.177ZM206.109 43.4716C205.819 44.4281 205.52 45.3821 205.228 46.3386C204.465 48.82 203.703 51.3022 202.941 53.7853L198.234 69.1235C196.629 74.3533 195.026 79.5814 193.423 84.8078C191.81 90.0639 190.197 95.32 188.583 100.576L183.738 116.386C182.087 121.764 180.438 127.142 178.789 132.518C177.12 137.955 175.452 143.388 173.787 148.815C172.137 154.193 170.487 159.571 168.836 164.949C168.085 167.396 167.334 169.842 166.585 172.287L165.536 175.708C165.362 176.271 165.19 176.834 165.018 177.396L165.003 177.443C165.079 177.548 165.129 177.671 165.148 177.8C165.168 177.929 165.156 178.061 165.114 178.184C165.165 179.687 165.01 181.234 165.472 182.69C166.83 182.297 167.437 180.883 167.979 179.944C167.948 179.829 167.948 179.708 167.979 179.593C168.669 177.171 169.389 174.756 170.091 172.337C170.894 169.583 171.696 166.829 172.498 164.074C174.089 158.612 175.68 153.15 177.269 147.688C178.859 142.226 180.452 136.753 182.048 131.27C183.589 125.986 185.128 120.701 186.665 115.415C188.138 110.367 189.612 105.316 191.085 100.265C192.572 95.1569 194.058 90.0491 195.545 84.9413C197.039 79.8038 198.536 74.6639 200.034 69.5215C201.532 64.379 203.03 59.2334 204.528 54.0844C205.441 50.9431 206.347 47.7943 207.271 44.6555C206.843 44.3416 207.052 43.825 207.168 43.4049C207.246 42.9815 207.291 42.5526 207.303 42.1222C206.875 42.5454 206.477 42.9979 206.112 43.4766L206.109 43.4716ZM208.737 44.0796C208.784 44.2091 208.788 44.3504 208.749 44.4825C208.746 44.4976 208.742 44.5125 208.737 44.527C208.738 44.5327 208.738 44.5385 208.737 44.5443C207.691 48.0909 206.671 51.645 205.635 55.1965C204.131 60.362 202.626 65.53 201.122 70.7004C199.638 75.8082 198.153 80.9094 196.667 86.004C195.18 91.0986 193.693 96.2065 192.205 101.327C190.732 106.407 189.252 111.487 187.767 116.567C186.24 121.821 184.711 127.075 183.18 132.328L178.365 148.867C176.773 154.329 175.183 159.791 173.593 165.253C172.834 167.865 172.073 170.477 171.312 173.088C170.708 175.167 170.084 177.24 169.497 179.319C169.821 179.689 169.794 180.364 169.841 180.841C169.929 181.963 169.949 183.103 170.16 184.212C172.026 183.965 173.318 182.369 174.259 180.861C174.322 180.669 174.448 180.504 174.617 180.394L174.89 179.348C175.209 178.104 175.529 176.862 175.85 175.621L177.935 167.527C179.34 162.075 180.744 156.623 182.149 151.171C183.517 145.863 184.885 140.555 186.252 135.247L189.641 122.098C190.925 117.116 192.208 112.133 193.492 107.15C194.877 101.784 196.26 96.4165 197.642 91.0484L201.834 74.7809C203.237 69.3336 204.64 63.8872 206.043 58.4416C207.089 54.3785 208.136 50.3169 209.184 46.257C209.282 45.8789 209.378 45.5008 209.476 45.1226L209.464 45.0979C209.248 44.2971 209.768 43.4766 209.871 42.6808C209.52 42.9452 209.159 43.5754 208.739 44.0796H208.737ZM210.886 45.1597C210.231 47.7152 209.572 50.2691 208.909 52.8214C207.548 58.1039 206.187 63.3871 204.825 68.6712C203.422 74.1086 202.02 79.5517 200.618 85.0006C199.225 90.4017 197.833 95.8028 196.443 101.204C195.103 106.394 193.764 111.584 192.428 116.774C191.309 121.123 190.19 125.469 189.071 129.814C187.75 134.938 186.43 140.061 185.11 145.182C183.721 150.58 182.329 155.978 180.936 161.376C179.543 166.773 178.151 172.171 176.761 177.569C176.442 178.805 176.115 180.04 175.808 181.259C175.784 181.357 175.737 181.448 175.671 181.523C175.523 182.885 175.28 184.264 175.693 185.609C176.132 186.004 177.034 185.28 177.439 184.996C178.465 184.104 179.293 183.019 180.12 181.939C180.147 181.904 180.176 181.873 180.209 181.845C180.712 179.662 181.238 177.485 181.751 175.303L183.716 166.976C185.042 161.356 186.366 155.734 187.689 150.11C188.999 144.508 190.316 138.912 191.64 133.321C192.95 127.762 194.26 122.204 195.569 116.646C196.897 111.004 198.226 105.361 199.557 99.716C200.867 94.1452 202.177 88.5752 203.486 83.0061C204.796 77.483 206.096 71.9633 207.386 66.4469C208.64 61.1232 209.893 55.7979 211.146 50.471C211.517 48.8991 211.883 47.3272 212.256 45.7578C211.932 45.041 212.501 44.0648 212.371 43.2863C211.774 43.8251 211.455 44.611 210.878 45.1597H210.886ZM216.143 45.5082C216.163 45.5348 216.181 45.5629 216.197 45.5922C216.282 45.7521 216.304 45.9383 216.259 46.1137C215.451 49.8556 214.662 53.5999 213.862 57.3443L210.355 73.7799C209.185 79.2765 208.012 84.774 206.836 90.2723C205.643 95.858 204.451 101.443 203.261 107.027C202.101 112.464 200.942 117.901 199.781 123.339L196.215 140.044C195.028 145.613 193.84 151.182 192.649 156.751C191.451 162.372 190.252 167.993 189.052 173.617C188.538 176.024 188.024 178.434 187.51 180.846L186.987 183.298C187.129 183.314 187.263 183.373 187.372 183.466C187.863 183.96 187.716 184.768 187.819 185.404C187.844 185.883 187.893 186.363 187.961 186.837C188.003 186.647 188.043 186.457 188.082 186.266C188.367 184.912 188.65 183.558 188.931 182.206C189.524 179.378 190.115 176.552 190.705 173.728C191.878 168.11 193.053 162.493 194.228 156.88C195.41 151.24 196.59 145.601 197.767 139.962C198.925 134.431 200.081 128.9 201.237 123.368C202.362 117.986 203.487 112.604 204.614 107.225C205.76 101.777 206.899 96.3301 208.032 90.8828L211.59 73.8738C212.759 68.2799 213.929 62.6877 215.099 57.0971C215.792 53.7729 216.477 50.4463 217.184 47.1245C217.102 47.0808 217.03 47.0202 216.973 46.9466C216.553 46.2991 217.204 45.1622 217.172 44.3861C216.774 44.704 216.428 45.0826 216.146 45.5082H216.143ZM213.687 45.7553C213.668 45.8418 213.646 45.9283 213.626 46.0173C213.626 46.0173 213.626 46.042 213.614 46.0568C212.602 50.3029 211.615 54.5539 210.615 58.8025C209.332 64.253 208.049 69.7019 206.767 75.1491C205.476 80.6408 204.182 86.1317 202.887 91.6218C201.569 97.2239 200.25 102.826 198.929 108.428L194.916 125.425C193.606 130.982 192.297 136.542 190.987 142.103C189.677 147.664 188.367 153.247 187.058 158.852C185.737 164.454 184.416 170.062 183.097 175.676C182.591 177.826 182.073 179.974 181.574 182.126C181.656 182.248 181.697 182.394 181.689 182.541C181.682 182.688 181.627 182.829 181.532 182.942C181.454 183.46 181.429 183.985 181.459 184.509C181.513 185.169 181.744 187.749 182.571 187.722C183.652 187.364 184.442 186.526 185.101 185.596C185.105 185.561 185.111 185.527 185.12 185.493C185.174 185.273 185.214 185.045 185.26 184.825L185.629 183.095C185.895 181.835 186.165 180.573 186.436 179.309C187.023 176.551 187.611 173.792 188.202 171.032C189.412 165.365 190.622 159.697 191.832 154.025C193.014 148.482 194.196 142.94 195.378 137.397C196.571 131.818 197.762 126.238 198.951 120.657L202.435 104.325C203.629 98.7381 204.822 93.1484 206.013 87.5561C207.184 82.0595 208.357 76.5645 209.532 71.0711C210.69 65.6469 211.847 60.2228 213.005 54.7986C213.582 52.08 214.154 49.3613 214.739 46.6624C214.576 46.652 214.423 46.5847 214.305 46.4723C214.187 46.3598 214.112 46.2093 214.093 46.047C214.093 45.57 214.373 45.1449 214.464 44.6827C214.24 44.9842 213.98 45.4241 213.678 45.7504L213.687 45.7553ZM221.516 47.2036L221.536 47.2357C221.621 47.3957 221.643 47.5818 221.597 47.7572C221.575 47.861 221.551 47.9648 221.526 48.0686C221.526 48.0835 221.526 48.0958 221.526 48.1107C221.091 49.9915 220.674 51.8773 220.249 53.7606C219.681 56.2568 219.115 58.7547 218.55 61.2542C217.31 66.7361 216.07 72.2162 214.827 77.6948C213.553 83.3298 212.277 88.9649 210.998 94.6C209.702 100.319 208.407 106.038 207.114 111.757C205.82 117.476 204.525 123.195 203.229 128.912C201.932 134.626 200.637 140.34 199.344 146.055L195.461 163.197C194.186 168.827 192.911 174.459 191.635 180.092L190.407 185.562C190.13 186.798 189.845 188.016 189.57 189.242C191.043 188.253 192.21 186.77 193.435 185.535C193.501 185.451 193.585 185.383 193.681 185.337L193.703 185.265C193.973 184.052 194.233 182.833 194.499 181.617C195.109 178.838 195.72 176.057 196.331 173.276C197.585 167.572 198.839 161.868 200.093 156.166L203.776 139.441C205.063 133.58 206.351 127.719 207.639 121.858C208.919 116.031 210.2 110.202 211.482 104.372C212.74 98.6566 213.996 92.9399 215.252 87.2225L218.98 70.253C220.261 64.4186 221.544 58.5833 222.828 52.7472C223.27 50.7305 223.712 48.7146 224.156 46.6994C224.176 46.608 224.195 46.5166 224.218 46.4251C224.127 46.4186 224.038 46.3933 223.958 46.3507C223.877 46.3082 223.806 46.2493 223.749 46.1779C223.692 46.1064 223.65 46.0238 223.627 45.9354C223.603 45.8469 223.598 45.7545 223.611 45.6639C223.686 45.2715 223.681 44.8679 223.596 44.4776C222.695 44.8162 222.197 46.2991 221.506 47.1987L221.516 47.2036ZM227.351 44.7321C227.351 44.7692 227.334 44.8112 227.324 44.8508C227.314 44.8903 227.324 44.8656 227.324 44.8755C227.324 44.9298 227.302 44.9817 227.29 45.0336C227.344 45.1771 227.356 45.3336 227.322 45.4834C227.253 45.827 227.172 46.1705 227.096 46.5166C226.898 47.4211 226.699 48.3274 226.501 49.2352C225.951 51.7562 225.4 54.2796 224.849 56.8055C223.642 62.3186 222.436 67.8334 221.231 73.3498C220.048 78.7872 218.861 84.2245 217.671 89.6619C216.433 95.32 215.197 100.978 213.963 106.636L210.308 123.354C209.128 128.773 207.944 134.193 206.757 139.614L203.199 155.891C201.96 161.571 200.719 167.25 199.476 172.93C198.509 177.364 197.54 181.798 196.571 186.232C196.571 186.232 196.571 186.232 196.571 186.246V186.286C196.571 186.301 196.571 186.316 196.571 186.33L197.946 186.612C199.331 186.899 200.716 187.182 202.099 187.462C204.912 188.042 207.723 188.619 210.534 189.192C213.388 189.779 216.242 190.365 219.097 190.95L227.135 192.596L227.179 192.393C227.179 192.378 227.179 192.363 227.191 192.349C227.437 191.177 227.683 190.003 227.943 188.832C228.504 186.212 229.066 183.592 229.627 180.972C228.093 178.931 226.556 176.889 225.016 174.848C223.316 172.589 221.615 170.331 219.913 168.076C219.478 167.497 219.041 166.922 218.609 166.346C218.492 166.269 218.4 166.159 218.345 166.03C218.289 165.9 218.274 165.757 218.299 165.619C218.298 165.613 218.298 165.608 218.299 165.602C219.068 162.043 219.851 158.484 220.627 154.927C221.461 151.126 222.291 147.325 223.117 143.524L225.573 132.204C226.392 128.487 227.203 124.771 228.007 121.055C228.811 117.34 229.623 113.621 230.443 109.899C231.253 106.18 232.064 102.461 232.876 98.7422C233.667 95.1091 234.459 91.4768 235.253 87.8453C236.029 84.2962 236.805 80.7463 237.579 77.1955C237.719 76.5431 237.861 75.893 238.004 75.2406C238.028 75.1343 238.051 75.0305 238.075 74.9242V74.8822C238.09 74.8105 238.107 74.7388 238.122 74.6696C238.129 74.545 238.17 74.4246 238.238 74.3204C238.307 74.2163 238.401 74.1322 238.512 74.0765C238.971 73.8442 239.443 73.6266 239.907 73.4042L241.832 72.4774L245.543 70.693C247.949 69.5396 250.358 68.3805 252.768 67.2155L253.919 66.6619L254.135 66.5606C254.356 65.5341 254.577 64.5092 254.796 63.486C254.789 63.4709 254.783 63.4552 254.779 63.4391C254.709 63.2672 254.709 63.0746 254.779 62.9027C254.824 62.7878 254.898 62.6871 254.995 62.6111C255.073 62.2503 255.15 61.8894 255.228 61.5286L256.473 55.7106C256.658 54.8587 256.842 54.0053 257.023 53.1501C257.124 52.683 257.217 52.2134 257.318 51.7463L250.005 49.994L241.346 47.9179C238.52 47.2407 235.695 46.5627 232.869 45.8838C231.04 45.4488 229.213 45.0114 227.388 44.5715C227.374 44.6204 227.355 44.6676 227.331 44.7123L227.351 44.7321ZM227.415 194.071L227.169 194.022C224.478 193.47 221.786 192.918 219.092 192.366L210.598 190.636L202.146 188.906L194.474 187.334L194.057 187.247C193.967 187.227 193.883 187.188 193.811 187.131C192.303 188.755 189.997 191.402 188.214 191.16C187.375 190.967 187.269 189.986 187.075 189.284C186.781 188.226 186.588 187.143 186.498 186.049C185.27 188.135 181.668 191.108 180.57 187.302C180.388 186.892 180.12 185.552 180.079 184.301C179.566 184.933 179.002 185.522 178.394 186.061C177.589 186.751 176.456 187.371 175.378 187.064C173.984 186.555 174.168 184.657 174.119 183.434C173.208 184.568 170.59 186.4 169.207 185.278C168.471 184.324 168.716 182.969 168.537 181.835C167.815 182.987 165.961 184.848 164.573 183.78C163.945 183.125 163.95 182.097 163.815 181.244C163.768 180.72 163.765 180.191 163.765 179.665C163.251 180.276 162.675 180.832 162.046 181.323C161.283 181.894 160.224 182.44 159.276 182.035C158.245 181.541 158.068 180.236 158.049 179.21C156.126 182.477 153.901 181.835 152.4 178.666C152.115 177.896 151.914 177.096 151.801 176.281C150.89 177.25 149.716 178.081 148.378 177.599C147.069 177.057 146.588 175.088 146.487 173.787C144.392 176.642 141.998 176.323 142.312 173.086C141.711 173.523 141.016 173.785 140.269 173.558C139.415 173.296 139.13 172.29 139.248 171.479C138.783 171.899 138.237 172.217 137.644 172.413C137.632 172.419 137.622 172.427 137.612 172.436C136.63 172.735 135.608 172.576 135.1 171.425C134.956 171.135 134.842 170.831 134.759 170.518C134.3 170.93 133.701 171.147 133.086 171.123C132.784 171.081 132.502 170.949 132.275 170.744C132.048 170.539 131.887 170.271 131.812 169.974C130.338 171.489 128.578 170.221 128.374 168.392C127.558 169.628 125.825 171.094 125.024 168.995C124.909 168.713 124.779 168.437 124.639 168.155C124.369 168.648 123.989 169.071 123.529 169.391C123.237 169.582 122.895 169.681 122.546 169.675H122.46C122.216 169.649 121.981 169.569 121.771 169.441C121.562 169.313 121.383 169.139 121.247 168.933C121.072 168.677 120.935 168.395 120.842 168.098H120.663L118.806 167.95L114.659 167.621L106.093 166.936C103.189 166.709 100.283 166.478 97.3754 166.244L88.6208 165.547C88.0535 165.503 87.4863 165.471 86.919 165.412C86.7611 165.403 86.6106 165.341 86.4917 165.236C86.4318 165.254 86.3699 165.263 86.3075 165.263H86.2191C86.0401 165.239 85.8777 165.145 85.7673 165.001C85.6586 164.852 85.6095 164.666 85.6297 164.482C85.6469 164.299 85.6617 164.116 85.6764 163.934C84.6548 163.859 83.6308 163.793 82.6068 163.723L78.4517 163.434L74.4833 163.157C74.196 163.474 73.9037 163.783 73.6017 164.084C73.1253 164.561 72.644 165.031 72.17 165.51C71.6961 165.99 71.2565 166.467 70.8194 166.964C70.3823 167.46 69.9967 167.952 69.5915 168.447C69.1863 168.941 68.7566 169.405 68.3195 169.865C67.8824 170.325 67.433 170.772 66.9934 171.229C66.5538 171.687 66.1756 172.099 65.7827 172.544C65.2916 173.105 64.8348 173.679 64.351 174.237C63.8619 174.799 63.336 175.328 62.777 175.819C62.2293 176.313 61.6645 176.771 61.1021 177.24C60.5398 177.71 60.029 178.137 59.4961 178.59C58.9828 179.032 58.445 179.445 57.8852 179.825C57.3422 180.183 56.7666 180.487 56.1662 180.735C55.5645 180.982 54.9383 181.212 54.3318 181.424C53.7252 181.637 53.0867 181.845 52.4507 182.005C51.6859 182.19 50.9017 182.28 50.1153 182.275C49.5158 182.273 48.917 182.232 48.3227 182.154C47.6381 182.064 46.9615 181.92 46.2992 181.724C45.9799 181.632 45.6656 181.531 45.3512 181.422L45.3046 181.407H45.2776H45.2628C44.9338 181.291 44.6023 181.16 44.2806 181.039C43.7416 180.82 43.2298 180.539 42.7556 180.201C42.6103 180.134 42.4812 180.037 42.3774 179.914C42.1056 179.686 41.8586 179.429 41.6407 179.148C41.4133 178.84 41.2182 178.508 41.0587 178.16C40.9151 177.848 40.7896 177.529 40.6829 177.203C40.2679 176.308 39.907 175.384 39.4797 174.509C38.7601 173.135 37.908 171.818 37.4684 170.308C36.7009 167.345 36.4091 164.278 36.604 161.222L36.3413 161.202C35.951 161.177 35.5625 161.13 35.1773 161.062C34.7696 160.987 34.3644 160.906 33.9641 160.792C33.5639 160.679 33.1415 160.545 32.7363 160.38C32.3761 160.235 32.0244 160.07 31.6828 159.885C31.3405 159.711 31.0077 159.519 30.6858 159.309C30.509 159.188 30.3297 159.062 30.1578 158.944C29.9859 158.825 29.8091 158.674 29.6372 158.536C29.3278 158.28 29.0388 158.001 28.7728 157.7C28.4943 157.392 28.2475 157.055 28.0361 156.697C27.9968 156.628 27.9575 156.559 27.9206 156.489C27.6947 156.171 27.5007 155.817 27.2945 155.501C26.5027 154.227 25.8302 152.881 25.2857 151.482C25.0584 151.002 24.8862 150.498 24.7724 149.979C24.589 149.362 24.4374 148.736 24.3181 148.103C22.275 138.217 30.5016 129.09 36.7465 122.4C41.4565 117.494 46.2132 112.632 50.9306 107.734C51.9448 106.537 53.0032 105.383 54.0543 104.217C55.2993 102.699 56.424 101.083 57.7894 99.6616C60.2451 96.5574 62.8457 93.5545 64.9773 90.1982C67.0198 87.3925 68.8747 84.4531 70.5296 81.3996C71.7329 78.7699 72.6734 76.0315 73.9676 73.4512L74.2844 68.8146C74.5987 64.183 74.9147 59.5505 75.2323 54.9173C75.3862 52.6583 75.5401 50.3993 75.694 48.1403C75.6618 48.0013 75.6721 47.8557 75.7234 47.7227C75.7234 47.6979 75.7234 47.6732 75.7234 47.6485C75.7462 47.4692 75.8373 47.3058 75.9775 47.1928C76.1177 47.0799 76.296 47.0261 76.4749 47.043C78.5884 45.5304 80.7011 44.0154 82.8131 42.4979L89.7504 37.5202L96.2335 32.8713L96.8253 32.4462C97.1102 29.0816 97.3959 25.7171 97.6824 22.3525C97.7413 21.6654 97.7978 20.9783 97.8567 20.2912C97.8567 20.2542 97.8567 20.2146 97.8567 20.1775C97.8739 19.9675 97.8935 19.7574 97.9107 19.5473C97.931 19.3915 98.0037 19.2474 98.1168 19.139C98.2299 19.0306 98.3764 18.9645 98.532 18.9517C98.5956 18.8415 98.6882 18.7511 98.7995 18.6905C98.9109 18.6299 99.0367 18.6014 99.1631 18.6081L99.5266 18.6353L107.844 19.2557L116.739 19.9205L125.366 20.5656L133.654 21.1859C134.113 21.2181 134.572 21.2551 135.029 21.2897C135.055 21.1162 135.146 20.959 135.282 20.8496C135.419 20.7402 135.591 20.6864 135.765 20.699C136.422 19.8621 137.19 19.121 138.049 18.4969C140.721 16.5667 141.784 20.7584 142.607 22.5601C143.476 21.7816 144.08 20.7732 144.896 19.9403C146.052 18.7564 148.206 17.6171 149.046 19.7524C149.684 21.4603 149.291 23.1434 150.765 24.4755C152.125 22.9407 153.596 21.4924 155.409 20.5063C157.012 19.4237 158.702 20.5334 159.068 22.2833C159.411 23.4449 159.488 24.5398 159.873 25.6322C161.563 24.3322 162.989 21.4034 165.322 22.9852C166.582 23.8626 167.392 25.3702 167.643 26.9075C168.114 26.5516 168.596 26.2254 168.871 25.9906C170.008 25.2738 171.189 24.0134 172.64 24.3347C174.627 24.9402 174.787 27.34 175.096 29.075C175.833 28.5362 176.643 28.0864 177.417 27.5921C178.217 27.1769 179.737 25.7508 180.45 26.8976C180.906 27.9282 181.505 29.7695 181.577 31.2203C182.365 30.6716 183.337 30.1872 183.679 29.9623C184.202 29.6954 184.722 29.1615 185.354 29.3098C186.623 29.7226 186.532 31.3216 186.581 32.4165C187.318 31.5713 188.674 30.7482 189.705 31.6108C190.285 32.288 190.442 33.457 190.53 34.4976C191.188 34.0898 191.91 33.7561 192.212 33.5781C192.792 33.331 193.391 33.0295 194.025 32.9677C195.835 33.1629 195.066 36.4278 194.874 37.6463C198.357 35.3478 201.21 33.892 199.879 39.7149C200.601 39.1267 201.377 38.5484 202.266 38.232C202.85 38.0491 203.57 38.0812 204.051 38.4989C204.476 38.9784 204.336 39.6185 204.118 40.2142L204.208 40.1351C205.461 38.9586 206.583 39.2651 206.419 41.1064C207.376 40.0708 208.697 40.5552 208.666 41.9912C209.491 40.8642 211.197 40.8938 211.251 42.5176C212.253 41.3288 213.707 41.8602 213.761 43.4024C214.417 42.4311 215.726 42.3224 215.922 43.6768C216.777 42.7425 218.4 42.5868 218.535 44.1562C219.026 43.6125 219.652 42.8068 220.48 42.9724C221.19 43.1775 221.462 44.0302 221.462 44.7024C222.545 42.8834 224.127 42.6758 224.746 43.8349C224.78 43.657 224.817 43.4815 224.863 43.3085C224.905 43.1601 224.994 43.0296 225.116 42.9368C225.239 42.844 225.388 42.794 225.541 42.7944C225.645 42.7722 225.752 42.7722 225.855 42.7944L226.499 42.9477L232.7 44.4306L241.184 46.4646C244.096 47.1665 247.009 47.8652 249.921 48.5605L258.288 50.5674L258.384 50.5896L258.44 50.602C258.616 50.6527 258.764 50.7708 258.854 50.9308C258.943 51.0908 258.967 51.2799 258.919 51.4571C258.879 51.604 258.793 51.7339 258.674 51.8279C258.602 52.1442 258.541 52.463 258.472 52.7769C258.337 53.4047 258.204 54.0324 258.069 54.6577C257.781 55.9924 257.495 57.3262 257.21 58.6591L256.201 63.3698C256.608 64.4351 256.974 65.5176 257.323 66.6026C257.978 68.6111 258.542 70.6452 259.015 72.7048C259.059 72.8951 259.103 73.0854 259.128 73.1991C259.619 75.3411 260.028 77.4954 260.356 79.6621C260.528 80.7644 260.675 81.8716 260.812 82.9814C260.886 83.577 260.95 84.1751 261.011 84.7732C261.038 85.0377 261.063 85.3021 261.09 85.5666C261.102 85.705 261.115 85.8434 261.129 85.9818V85.9966V86.0856C261.144 86.2364 261.156 86.3896 261.171 86.5403C261.269 87.6921 261.353 88.8463 261.417 90.0005C261.543 92.3583 261.597 94.7194 261.581 97.0839C261.546 101.718 261.261 106.346 260.729 110.949C260.434 113.502 260.054 116.045 259.621 118.485C258.822 123.022 257.788 127.513 256.525 131.942C255.288 136.28 253.818 140.547 252.122 144.725C251.688 145.793 251.238 146.854 250.771 147.908C250.544 148.426 250.311 148.94 250.074 149.45L249.72 150.214L249.686 150.286L249.278 151.146C248.797 152.153 248.298 153.15 247.783 154.139C245.723 158.146 243.377 161.997 240.762 165.661C238.357 169.046 235.668 172.217 232.724 175.139C232.523 175.337 232.319 175.535 232.118 175.728C231.374 179.188 230.631 182.655 229.888 186.128C229.397 188.451 228.906 190.779 228.392 193.1C228.372 193.191 228.33 193.275 228.272 193.347C228.275 193.414 228.269 193.482 228.252 193.547C228.228 193.637 228.187 193.72 228.131 193.794C228.075 193.867 228.005 193.929 227.926 193.975C227.823 194.032 227.707 194.062 227.589 194.061C227.528 194.066 227.466 194.064 227.405 194.056L227.415 194.071Z" fill="black"/>
<path d="M81.8564 135.039H81.9031C81.9043 135.062 81.9043 135.085 81.9031 135.108C81.8895 135.084 81.8739 135.061 81.8564 135.039Z" fill="black"/>
<path d="M73.1136 163.098H73.062H73.0301H72.9982H72.9834H72.9613C71.9079 162.908 70.8593 162.693 69.8082 162.488C69.1624 162.364 68.5141 162.241 67.8682 162.115C67.6915 162.069 67.5397 161.955 67.4455 161.798C67.3513 161.641 67.3223 161.453 67.3648 161.274C67.4132 161.099 67.5273 160.95 67.6831 160.857C67.8388 160.765 68.024 160.737 68.1997 160.78C69.1624 160.975 70.1299 161.153 71.0926 161.339L72.5341 161.618C72.7796 161.662 73.0031 161.707 73.1676 161.741L73.283 161.764H73.3543H73.3052H73.2683H73.3297H73.3543C73.458 161.787 73.5546 161.835 73.6355 161.904C73.7164 161.974 73.7792 162.062 73.8184 162.162C73.8579 162.252 73.878 162.35 73.8773 162.448C73.8771 162.501 73.8706 162.553 73.8577 162.604C73.8124 162.785 73.6976 162.941 73.5384 163.036C73.4817 163.069 73.4205 163.093 73.3567 163.108C73.3015 163.123 73.2445 163.131 73.1873 163.13L73.1136 163.098Z" fill="black"/>
<path d="M68.4961 162.661V162.641C68.5894 160.402 68.6729 158.16 68.7613 155.921L69.0069 149.799C69.092 147.614 69.1788 145.429 69.2672 143.245C69.2672 143.042 69.2844 142.837 69.2917 142.634V142.612C69.2917 142.587 69.2917 142.562 69.2917 142.538V142.515C69.2931 142.508 69.2931 142.501 69.2917 142.493V142.506C69.2979 142.332 69.3669 142.167 69.4858 142.041C69.5499 141.975 69.6263 141.923 69.7106 141.887C69.7949 141.852 69.8854 141.833 69.9769 141.833C70.1589 141.831 70.3344 141.901 70.4653 142.029C70.5963 142.156 70.6723 142.33 70.6768 142.513V142.56V142.592C70.6375 143.764 70.5835 144.933 70.5368 146.104C70.4615 148.053 70.3845 150.004 70.3059 151.957C70.2077 154.41 70.1103 156.863 70.0137 159.317C69.9695 160.431 69.9327 161.541 69.8811 162.666C69.8754 162.842 69.8055 163.01 69.6847 163.138C69.6204 163.203 69.5439 163.255 69.4596 163.29C69.3753 163.325 69.2848 163.343 69.1935 163.343C69.0114 163.345 68.8358 163.274 68.7051 163.147C68.5745 163.019 68.4993 162.844 68.4961 162.661Z" fill="black"/>
<path d="M240.192 88.6239C237.311 87.571 239.963 83.5153 242.05 85.8162C243.077 87.0817 241.748 89.0959 240.192 88.6239Z" fill="black"/>
<path d="M237.257 94.9113C237.407 92.1135 241.51 92.9192 240.575 95.5588C240.575 95.5654 240.575 95.572 240.575 95.5786C239.902 97.2914 237.247 96.7847 237.257 94.9113Z" fill="black"/>
<path d="M237.238 104.981C235.013 104.62 235.453 101.305 237.692 101.545C239.991 101.852 239.542 105.285 237.238 104.981Z" fill="black"/>
<path d="M237.581 111.472C237.66 110.518 236.957 109.681 236.009 109.6C235.062 109.52 234.229 110.228 234.15 111.182C234.07 112.135 234.774 112.973 235.721 113.053C236.669 113.133 237.501 112.425 237.581 111.472Z" fill="black"/>
<path d="M232.261 120.543C231.141 118.522 234.097 116.821 235.244 118.813C236.344 120.781 233.38 122.479 232.261 120.543Z" fill="black"/>
<path d="M231.857 130.454C232.808 130.454 233.579 129.679 233.579 128.722C233.579 127.765 232.808 126.989 231.857 126.989C230.906 126.989 230.136 127.765 230.136 128.722C230.136 129.679 230.906 130.454 231.857 130.454Z" fill="black"/>
<path d="M229.795 139.218C230.745 139.218 231.516 138.443 231.516 137.486C231.516 136.529 230.745 135.753 229.795 135.753C228.844 135.753 228.073 136.529 228.073 137.486C228.073 138.443 228.844 139.218 229.795 139.218Z" fill="black"/>
<path d="M226.236 146.045C226.242 145.587 226.425 145.151 226.746 144.828C227.067 144.504 227.501 144.32 227.955 144.314C228.409 144.32 228.843 144.504 229.164 144.828C229.486 145.151 229.669 145.587 229.674 146.045C229.669 146.502 229.486 146.939 229.165 147.262C228.844 147.586 228.41 147.769 227.955 147.775C227.501 147.769 227.067 147.586 226.745 147.262C226.424 146.939 226.241 146.502 226.236 146.045Z" fill="black"/>
<path d="M224.529 155.024C224.534 154.567 224.717 154.129 225.038 153.806C225.36 153.483 225.794 153.299 226.248 153.294C226.703 153.299 227.137 153.483 227.458 153.806C227.779 154.129 227.962 154.567 227.967 155.024C227.962 155.481 227.779 155.918 227.458 156.241C227.137 156.565 226.703 156.749 226.248 156.754C225.794 156.749 225.36 156.565 225.038 156.241C224.717 155.918 224.534 155.481 224.529 155.024Z" fill="black"/>
<path d="M222.59 163.506C222.595 163.049 222.778 162.612 223.099 162.288C223.42 161.965 223.855 161.781 224.309 161.776C224.763 161.782 225.197 161.966 225.518 162.289C225.839 162.612 226.022 163.049 226.028 163.506C226.022 163.963 225.839 164.4 225.518 164.723C225.197 165.046 224.763 165.23 224.309 165.236C223.855 165.231 223.42 165.047 223.099 164.724C222.778 164.4 222.595 163.963 222.59 163.506Z" fill="black"/>
<path d="M244.173 94.5877C241.292 93.5373 243.942 89.4816 246.031 91.7801C246.952 92.9194 245.975 94.6594 244.637 94.6594C244.479 94.6593 244.323 94.6351 244.173 94.5877Z" fill="black"/>
<path d="M241.238 100.875C241.386 98.0801 245.489 98.8833 244.553 101.523C244.436 101.841 244.222 102.113 243.943 102.303C243.664 102.493 243.333 102.591 242.997 102.583C242.768 102.592 242.541 102.555 242.328 102.473C242.114 102.391 241.92 102.266 241.755 102.107C241.591 101.947 241.461 101.756 241.372 101.544C241.283 101.333 241.237 101.105 241.238 100.875Z" fill="black"/>
<path d="M241.217 110.949C238.994 110.586 239.434 107.274 241.673 107.511C243.883 107.805 243.554 110.971 241.499 110.971C241.404 110.97 241.31 110.962 241.217 110.949Z" fill="black"/>
<path d="M238.075 117.318C238.08 116.861 238.263 116.424 238.584 116.101C238.906 115.777 239.34 115.593 239.794 115.588C240.249 115.593 240.683 115.777 241.004 116.101C241.325 116.424 241.508 116.861 241.513 117.318C241.508 117.775 241.325 118.213 241.004 118.536C240.683 118.859 240.249 119.043 239.794 119.048C239.34 119.043 238.906 118.859 238.584 118.536C238.263 118.213 238.08 117.775 238.075 117.318Z" fill="black"/>
<path d="M236.239 126.52C235.119 124.498 238.078 122.798 239.223 124.79C239.981 126.144 238.81 127.372 237.641 127.372C237.352 127.372 237.069 127.293 236.822 127.143C236.575 126.992 236.373 126.777 236.239 126.52Z" fill="black"/>
<path d="M235.836 136.421C236.786 136.421 237.557 135.645 237.557 134.688C237.557 133.731 236.786 132.956 235.836 132.956C234.885 132.956 234.114 133.731 234.114 134.688C234.114 135.645 234.885 136.421 235.836 136.421Z" fill="black"/>
<path d="M234.774 144.889C235.556 144.346 235.753 143.267 235.213 142.479C234.673 141.692 233.6 141.494 232.818 142.038C232.036 142.581 231.839 143.66 232.379 144.448C232.92 145.235 233.992 145.433 234.774 144.889Z" fill="black"/>
<path d="M230.215 151.999C230.22 151.541 230.403 151.104 230.724 150.781C231.045 150.458 231.48 150.274 231.934 150.269C232.388 150.274 232.822 150.458 233.144 150.781C233.465 151.104 233.648 151.541 233.653 151.999C233.647 152.456 233.464 152.892 233.143 153.216C232.822 153.539 232.388 153.723 231.934 153.729C231.48 153.723 231.046 153.539 230.725 153.216C230.404 152.892 230.221 152.456 230.215 151.999Z" fill="black"/>
<path d="M88.6598 58.4861C92.8492 57.5642 93.5957 63.9061 89.3007 64.0248C86.042 64.0248 85.5091 59.2201 88.6598 58.4861Z" fill="black"/>
<path d="M88.1256 66.081C92.315 65.1592 93.0615 71.5011 88.7665 71.6197C85.5078 71.6197 84.9749 66.8176 88.1256 66.081Z" fill="black"/>
<path d="M87.7242 73.7426C91.9136 72.8208 92.6602 79.1652 88.3651 79.2813C85.1064 79.2838 84.5735 74.4791 87.7242 73.7426Z" fill="black"/>
<path d="M87.1796 82.492C91.4034 81.7505 91.8847 88.1172 87.5896 88.0529C84.3334 87.917 84.0019 83.095 87.1796 82.492Z" fill="black"/>
<path d="M86.4598 90.1316C90.6836 89.3902 91.165 95.7568 86.8699 95.6925C83.6137 95.5566 83.2821 90.7347 86.4598 90.1316Z" fill="black"/>
<path d="M85.6103 97.6968C89.8342 96.9553 90.3155 103.322 86.0205 103.258C82.7667 103.122 82.4449 98.2999 85.6103 97.6968Z" fill="black"/>
<path d="M84.9001 105.336C89.1239 104.595 89.6053 110.961 85.3078 110.897C82.0466 110.761 81.7077 105.939 84.9001 105.336Z" fill="black"/>
<path d="M84.2105 112.877C88.4 111.955 89.1441 118.299 84.8515 118.416C81.5928 118.418 81.0599 113.613 84.2105 112.877Z" fill="black"/>
<path d="M83.6729 120.472C87.8476 119.553 88.6064 125.894 84.3114 126.011C81.0601 126.025 80.5272 121.208 83.6729 120.472Z" fill="black"/>
<path d="M83.275 128.136C87.4644 127.214 88.211 133.556 83.9159 133.675C80.6572 133.687 80.1243 128.872 83.275 128.136Z" fill="black"/>
<path d="M83.1394 142.446C79.8832 142.308 79.5517 137.486 82.7294 136.883C84.9395 136.492 86.133 138.064 86.1379 139.633C86.1379 141.04 85.1973 142.446 83.191 142.446H83.1394Z" fill="black"/>
<path d="M82.4197 150.083C79.1635 149.947 78.8319 145.125 82.0096 144.522C84.2198 144.132 85.4132 145.704 85.4181 147.273C85.4181 148.679 84.4801 150.086 82.4836 150.086L82.4197 150.083Z" fill="black"/>
<path d="M81.7086 53.3628C85.898 52.4434 86.6421 58.7853 82.3495 58.904C79.0908 58.8941 78.5579 54.0894 81.7086 53.3628Z" fill="black"/>
<path d="M81.1724 60.9502C85.3619 60.0283 86.1084 66.3702 81.8134 66.4889C78.5547 66.4889 78.0242 61.6842 81.1724 60.9502Z" fill="black"/>
<path d="M80.773 68.612C84.9625 67.6901 85.709 74.0345 81.414 74.1507C78.1553 74.1532 77.6224 69.3485 80.773 68.612Z" fill="black"/>
<path d="M80.6375 82.9222C77.3812 82.7862 77.0497 77.9643 80.2274 77.3612C82.4375 76.9707 83.631 78.5401 83.6359 80.112C83.6359 81.5159 82.6954 82.9222 80.6891 82.9222H80.6375Z" fill="black"/>
<path d="M79.9178 90.5617C76.6615 90.4233 76.33 85.6038 79.5077 85.0008C81.7178 84.6078 82.9113 86.1797 82.9162 87.7516C82.9162 89.1554 81.9757 90.5617 79.9694 90.5617H79.9178Z" fill="black"/>
<path d="M79.0682 98.1267C75.8119 97.9908 75.4804 93.1689 78.6581 92.5658C80.8682 92.1753 82.0617 93.7447 82.0666 95.3166C82.0666 96.7229 81.126 98.1267 79.1197 98.1267H79.0682Z" fill="black"/>
<path d="M78.3484 105.759C75.0922 105.623 74.7607 100.801 77.9383 100.198C80.1485 99.8074 81.342 101.377 81.3469 102.949C81.3469 104.355 80.4088 105.759 78.4 105.759H78.3484Z" fill="black"/>
<path d="M77.2584 107.736C81.4478 106.814 82.1919 113.159 77.8993 113.275C74.6406 113.285 74.1077 108.477 77.2584 107.736Z" fill="black"/>
<path d="M76.7236 115.341C80.9131 114.419 81.6596 120.764 77.3646 120.88C74.096 120.88 73.5729 116.078 76.7236 115.341Z" fill="black"/>
<path d="M76.3228 123.003C80.5123 122.083 81.2588 128.425 76.9638 128.544C73.7051 128.544 73.1722 123.739 76.3228 123.003Z" fill="black"/>
<path d="M76.1883 137.313C72.932 137.177 72.6005 132.355 75.7782 131.752C77.9883 131.361 79.1818 132.933 79.1867 134.503C79.1867 135.909 78.2462 137.315 76.2398 137.315L76.1883 137.313Z" fill="black"/>
<path d="M75.4685 144.952C72.2123 144.816 71.8808 139.994 75.0585 139.391C77.2686 139.001 78.4621 140.573 78.467 142.142C78.467 143.549 77.5289 144.952 75.5201 144.952H75.4685Z" fill="black"/>
<path d="M75.034 152.985C71.7777 152.849 71.4462 148.027 74.6239 147.424C76.834 147.033 78.0275 148.603 78.0324 150.175C78.0324 151.581 77.0943 152.985 75.0856 152.985H75.034Z" fill="black"/>
<path d="M89.2377 162.772C89.1472 162.764 89.0633 162.72 89.0038 162.651C88.9442 162.582 88.9136 162.492 88.9185 162.401C88.9185 162.263 88.9406 162.124 88.9528 161.986C88.9651 161.847 88.9799 161.65 88.9921 161.492L89.0805 160.387L89.2647 158.115C89.3851 156.633 89.5103 155.122 89.6257 153.627C89.7411 152.132 89.8713 150.676 89.9818 149.203C90.0554 148.279 90.1267 147.352 90.2052 146.43C90.2122 146.338 90.2547 146.253 90.3236 146.192C90.3925 146.132 90.4823 146.101 90.5736 146.106C90.6644 146.114 90.7486 146.157 90.8083 146.226C90.868 146.296 90.8983 146.386 90.8929 146.477C90.8929 146.522 90.8929 146.569 90.8929 146.615C90.8929 146.615 90.8929 146.633 90.8929 146.64C90.802 147.735 90.7185 148.83 90.6301 149.922L90.2765 154.317C90.1537 155.834 90.0317 157.352 89.9106 158.869C89.859 159.502 89.8074 160.132 89.7583 160.765L89.6846 161.655C89.6625 161.922 89.6331 162.191 89.6208 162.458C89.614 162.545 89.575 162.627 89.5114 162.687C89.4477 162.747 89.3641 162.781 89.277 162.782L89.2377 162.772Z" fill="black"/>
<path d="M100.127 38.5335C100.036 38.5266 99.951 38.4837 99.8913 38.4143C99.8315 38.3448 99.8013 38.2545 99.8074 38.1628C99.8074 38.0466 99.8246 37.9156 99.8345 37.8094L99.8786 37.2681C99.9056 36.9147 99.9327 36.5612 99.9621 36.2078C100.021 35.4598 100.081 34.7109 100.141 33.9612C100.259 32.4898 100.376 31.0185 100.49 29.5471C100.606 28.1087 100.721 26.671 100.834 25.2343C100.903 24.3692 100.979 23.5042 101.04 22.6416V22.6268C101.041 22.6153 101.041 22.6037 101.04 22.5922C101.047 22.5004 101.09 22.415 101.159 22.3545C101.227 22.2939 101.317 22.263 101.409 22.2684C101.499 22.2754 101.582 22.3176 101.642 22.3859C101.702 22.4543 101.733 22.5434 101.728 22.6342C101.666 23.5166 101.588 24.3989 101.517 25.2812C101.404 26.7164 101.29 28.154 101.175 29.594C101.061 31.0621 100.944 32.5302 100.824 33.9983L100.647 36.24C100.618 36.5934 100.591 36.9468 100.561 37.3002C100.561 37.4807 100.534 37.6611 100.52 37.8415C100.52 37.9577 100.505 38.0887 100.493 38.1949C100.485 38.282 100.445 38.3631 100.382 38.4228C100.319 38.4825 100.236 38.5166 100.149 38.5187L100.127 38.5335Z" fill="black"/>
<path d="M102.827 31.8308C102.736 31.8251 102.65 31.7835 102.589 31.7151C102.528 31.6467 102.496 31.5569 102.5 31.465C102.502 31.4568 102.502 31.4485 102.5 31.4403C102.527 31.1363 102.559 30.8323 102.589 30.5308C102.626 30.16 102.66 29.7893 102.697 29.4186C102.775 28.6549 102.847 27.8887 102.923 27.125L103.122 25.0613C103.183 24.4311 103.237 23.8008 103.306 23.173C103.31 23.0791 103.351 22.9906 103.419 22.9259C103.486 22.8654 103.574 22.8335 103.664 22.8369C103.755 22.842 103.84 22.8831 103.901 22.9512C103.962 23.0193 103.993 23.1088 103.988 23.2002L103.974 23.3658V23.3881V23.4326C103.912 24.0208 103.863 24.6139 103.804 25.2046C103.731 25.9461 103.659 26.6875 103.586 27.429L103.387 29.4804C103.323 30.1279 103.252 30.7754 103.198 31.423C103.198 31.423 103.198 31.423 103.198 31.4403C103.198 31.4576 103.198 31.4724 103.198 31.4872C103.192 31.5754 103.153 31.658 103.089 31.7188C103.026 31.7797 102.942 31.8143 102.854 31.8159L102.827 31.8308Z" fill="black"/>
<path d="M105.354 26.5392C105.157 26.3612 105.214 26.0597 105.246 25.8224C105.327 25.2515 105.464 24.6905 105.535 24.1171C105.543 24.0723 105.56 24.0296 105.585 23.9913C105.609 23.953 105.641 23.92 105.678 23.894C105.715 23.8681 105.757 23.8498 105.801 23.8401C105.846 23.8305 105.891 23.8297 105.936 23.8378C105.98 23.846 106.023 23.8628 106.061 23.8874C106.099 23.9121 106.132 23.944 106.157 23.9814C106.183 24.0188 106.201 24.061 106.211 24.1055C106.22 24.15 106.221 24.1959 106.213 24.2407C106.142 24.8314 106 25.4122 105.916 26.0004C105.882 26.171 105.973 26.3514 105.837 26.4947C105.779 26.5651 105.695 26.6093 105.605 26.6177C105.514 26.626 105.424 26.5978 105.354 26.5392Z" fill="black"/>
<path d="M91.8107 162.51C91.7198 162.506 91.6342 162.465 91.5726 162.398C91.511 162.33 91.4783 162.241 91.4817 162.149C91.5062 161.902 91.521 161.655 91.5406 161.408C91.5676 161.052 91.5946 160.698 91.6241 160.343C91.683 159.569 91.7444 158.795 91.8034 158.022C91.9196 156.554 92.0342 155.084 92.1472 153.613C92.1963 152.99 92.2446 152.365 92.292 151.739C92.292 151.739 92.292 151.739 92.292 151.722C92.292 151.705 92.292 151.687 92.292 151.67V151.63V151.613C92.299 151.523 92.3405 151.439 92.4079 151.379C92.4753 151.319 92.5632 151.288 92.653 151.292C92.7438 151.296 92.8291 151.337 92.8903 151.404C92.9515 151.472 92.9837 151.561 92.9797 151.653V151.672C92.9797 151.672 92.9797 151.7 92.9797 151.714V151.759C92.8863 152.995 92.7856 154.255 92.6874 155.503L92.3412 159.967L92.238 161.297C92.2135 161.588 92.1987 161.885 92.1693 162.176C92.1637 162.265 92.1253 162.348 92.0616 162.41C91.9979 162.471 91.9136 162.506 91.8255 162.508L91.8107 162.51Z" fill="black"/>
<path d="M94.1291 163.113C94.0379 163.108 93.9523 163.067 93.8908 162.999C93.8293 162.931 93.7967 162.842 93.8 162.75C93.8 162.735 93.8 162.72 93.8 162.705V162.678L94.2494 158.363L94.4484 156.452C94.4901 156.049 94.5294 155.644 94.5761 155.241C94.5838 155.196 94.6002 155.154 94.6244 155.115C94.6486 155.077 94.6801 155.044 94.7171 155.018C94.7541 154.992 94.7958 154.974 94.8399 154.964C94.884 154.955 94.9295 154.954 94.9739 154.962C95.0189 154.969 95.0619 154.986 95.1003 155.01C95.1388 155.035 95.1718 155.067 95.1974 155.105C95.2399 155.169 95.2614 155.244 95.2587 155.32V155.347C95.2576 155.352 95.2576 155.357 95.2587 155.362C95.1343 156.57 95.0083 157.779 94.8806 158.991C94.7479 160.251 94.635 161.511 94.4877 162.769C94.4889 162.784 94.4889 162.799 94.4877 162.814C94.4738 162.894 94.4321 162.967 94.3701 163.019C94.3081 163.072 94.2298 163.101 94.1488 163.101L94.1291 163.113Z" fill="black"/>
<path d="M96.7303 162.253C96.3767 162.129 96.3792 161.529 96.7868 161.497C96.8588 161.499 96.9291 161.519 96.9912 161.556C97.0532 161.593 97.1051 161.645 97.142 161.707C97.1789 161.769 97.1997 161.84 97.2025 161.913C97.2052 161.985 97.1898 162.057 97.1576 162.122C97.1129 162.191 97.0456 162.241 96.9675 162.265C96.8895 162.289 96.8055 162.285 96.7303 162.253Z" fill="black"/>
<path d="M117.358 164.774C117.267 164.769 117.182 164.727 117.121 164.659C117.06 164.591 117.029 164.502 117.034 164.41C117.058 164.097 117.095 163.783 117.127 163.471L117.238 162.374C117.316 161.578 117.398 160.781 117.483 159.984C117.63 158.511 117.779 157.037 117.928 155.562C118.077 154.058 118.228 152.553 118.382 151.047L118.809 146.796C118.829 146.588 118.851 146.381 118.871 146.173C118.871 146.151 118.871 146.129 118.871 146.106C118.877 146.015 118.918 145.929 118.986 145.868C119.054 145.807 119.143 145.774 119.234 145.778C119.325 145.783 119.41 145.824 119.471 145.892C119.533 145.96 119.565 146.049 119.561 146.141C119.443 147.326 119.323 148.509 119.202 149.692C119.05 151.205 118.898 152.717 118.745 154.228C118.598 155.711 118.449 157.194 118.298 158.676C118.144 160.209 117.991 161.743 117.837 163.278C117.797 163.669 117.748 164.062 117.719 164.457C117.713 164.545 117.674 164.628 117.61 164.689C117.547 164.75 117.463 164.784 117.375 164.786L117.358 164.774Z" fill="black"/>
<path d="M114.674 164.205C114.584 164.191 114.503 164.143 114.448 164.07C114.394 163.997 114.369 163.906 114.379 163.815C114.532 162.485 114.691 161.158 114.846 159.828C115.023 158.327 115.199 156.826 115.374 155.323C115.465 154.537 115.561 153.748 115.649 152.963C115.65 152.955 115.65 152.948 115.649 152.94C115.649 152.869 115.664 152.797 115.674 152.725C115.688 152.635 115.736 152.554 115.808 152.498C115.88 152.443 115.971 152.418 116.062 152.429C116.152 152.442 116.233 152.49 116.289 152.563C116.344 152.636 116.368 152.728 116.356 152.819C116.206 154.149 116.044 155.479 115.89 156.811C115.713 158.322 115.536 159.833 115.359 161.343C115.259 162.199 115.159 163.054 115.06 163.909C115.048 163.992 115.006 164.068 114.943 164.123C114.88 164.178 114.799 164.208 114.716 164.208L114.674 164.205Z" fill="black"/>
<path d="M128.524 42.7477C128.433 42.7426 128.348 42.7015 128.287 42.6335C128.226 42.5655 128.194 42.476 128.198 42.3843C128.335 40.9855 128.482 39.5866 128.627 38.1828C128.78 36.6998 128.927 35.2169 129.082 33.734C129.236 32.2511 129.391 30.7262 129.543 29.221C129.678 27.8848 129.814 26.5485 129.953 25.2122L129.998 24.7772V24.7278C130.002 24.6339 130.043 24.5454 130.111 24.4807C130.178 24.4197 130.266 24.3877 130.356 24.3917C130.401 24.3939 130.446 24.405 130.486 24.4245C130.527 24.444 130.564 24.4714 130.594 24.5051C130.625 24.5389 130.648 24.5783 130.663 24.6212C130.678 24.6641 130.685 24.7095 130.683 24.755C130.587 25.7584 130.479 26.7594 130.376 27.7628C130.224 29.2359 130.073 30.7089 129.924 32.1819C129.76 33.7077 129.604 35.2318 129.455 36.7542L129.006 41.2524C128.966 41.6429 128.924 42.0359 128.885 42.4288C128.88 42.5172 128.841 42.6001 128.777 42.6611C128.714 42.722 128.629 42.7565 128.541 42.7575L128.524 42.7477Z" fill="black"/>
<path d="M126.62 34.0033C126.53 33.9886 126.45 33.9395 126.395 33.8662C126.341 33.7929 126.317 33.7011 126.328 33.6103C126.367 33.3162 126.394 33.0221 126.429 32.7255C126.47 32.3548 126.51 31.984 126.551 31.6108C126.633 30.8826 126.715 30.1535 126.797 29.4236C126.961 27.9538 127.124 26.4825 127.288 25.0094C127.288 24.913 127.31 24.8166 127.32 24.7202C127.321 24.7071 127.321 24.6938 127.32 24.6807C127.334 24.59 127.383 24.5085 127.456 24.4535C127.529 24.3985 127.62 24.3745 127.711 24.3866C127.801 24.4007 127.882 24.4497 127.936 24.5231C127.991 24.5966 128.015 24.6886 128.003 24.7796C128.003 24.7796 128.003 24.7993 128.003 24.8117C127.858 26.1686 127.701 27.5304 127.548 28.8848C127.385 30.3677 127.221 31.8506 127.057 33.3335C127.043 33.4595 127.03 33.5807 127.013 33.7141C127.001 33.7966 126.96 33.8721 126.898 33.9266C126.835 33.9811 126.755 34.0109 126.672 34.0107L126.62 34.0033Z" fill="black"/>
<path d="M198.805 186.002C198.716 185.978 198.64 185.919 198.594 185.838C198.548 185.757 198.536 185.662 198.56 185.572C198.584 185.478 198.602 185.382 198.624 185.288C198.663 185.107 198.705 184.927 198.746 184.746L198.992 183.637C199.154 182.917 199.311 182.198 199.483 181.481C199.53 181.284 199.569 181.088 199.616 180.891C199.662 180.693 199.709 180.478 199.756 180.27C199.802 180.063 199.849 179.853 199.898 179.643L200.038 179.022C200.082 178.815 200.129 178.61 200.176 178.414C200.291 177.871 200.421 177.332 200.542 176.791C200.662 176.249 200.787 175.74 200.898 175.214C200.942 175.016 200.986 174.816 201.033 174.618C201.192 173.877 201.362 173.157 201.524 172.428L202.003 170.308L202.916 166.249C202.917 166.235 202.917 166.221 202.916 166.207C202.941 166.094 202.965 165.983 202.992 165.871C202.991 165.864 202.991 165.856 202.992 165.849C202.992 165.849 202.992 165.849 202.992 165.832V165.814C203.004 165.77 203.024 165.728 203.052 165.691C203.08 165.655 203.115 165.624 203.155 165.601C203.194 165.578 203.238 165.563 203.284 165.557C203.329 165.552 203.375 165.555 203.42 165.567C203.464 165.58 203.506 165.602 203.541 165.631C203.577 165.66 203.607 165.697 203.628 165.738C203.668 165.814 203.678 165.902 203.658 165.985C203.658 165.985 203.658 166 203.658 166.007C203.659 166.013 203.659 166.019 203.658 166.025L203.577 166.383C203.576 166.389 203.576 166.396 203.577 166.403C203.513 166.65 203.466 166.897 203.41 167.144C203.336 167.478 203.26 167.809 203.184 168.133L202.712 170.231C202.377 171.714 202.042 173.197 201.708 174.68V174.719C201.661 174.934 201.612 175.152 201.561 175.369C201.45 175.881 201.332 176.39 201.217 176.902C201.092 177.45 200.971 177.999 200.844 178.548C200.802 178.743 200.758 178.938 200.714 179.134C200.669 179.329 200.615 179.564 200.566 179.779C200.517 179.994 200.475 180.184 200.429 180.389C200.382 180.594 200.335 180.809 200.286 181.017C200.124 181.758 199.95 182.515 199.78 183.261C199.623 183.965 199.461 184.667 199.304 185.372C199.277 185.495 199.255 185.619 199.223 185.74C199.201 185.812 199.156 185.875 199.095 185.92C199.035 185.964 198.961 185.988 198.886 185.987C198.86 185.995 198.833 186 198.805 186.002Z" fill="black"/>
<path d="M201.102 186.195C201.012 186.178 200.933 186.127 200.88 186.052C200.827 185.978 200.805 185.885 200.82 185.794C200.821 185.785 200.821 185.776 200.82 185.767C200.819 185.755 200.819 185.744 200.82 185.732C200.943 185.201 201.065 184.667 201.191 184.148L201.286 183.745L201.394 183.278V183.253C201.431 183.088 201.473 182.92 201.51 182.759C201.547 182.599 201.601 182.376 201.642 182.196C201.684 182.015 201.731 181.818 201.768 181.672C201.804 181.526 201.849 181.313 201.89 181.145V181.118C201.89 181.111 201.89 181.103 201.89 181.096V181.111V181.125V181.14C201.932 180.96 201.976 180.779 202.018 180.604C202.018 180.604 202.018 180.604 202.018 180.587V180.56V180.542V180.525C202.06 180.342 202.104 180.159 202.136 180.031V180.011C202.183 179.811 202.229 179.608 202.278 179.405C202.328 179.203 202.384 178.951 202.438 178.728C202.492 178.506 202.524 178.35 202.566 178.179V178.16C202.605 177.979 202.649 177.799 202.681 177.665L202.799 177.171C202.836 177.018 202.87 176.865 202.897 176.756L202.998 176.328C203.03 176.187 203.064 176.047 203.086 175.95C203.108 175.854 203.138 175.735 203.16 175.634C203.182 175.532 203.207 175.439 203.229 175.345V175.359V175.322L203.278 175.115C203.378 174.68 203.48 174.245 203.585 173.81C203.584 173.799 203.584 173.788 203.585 173.778C203.622 173.617 203.659 173.459 203.698 173.298C203.796 172.876 203.894 172.45 203.995 172.028C203.995 172.013 203.995 172.001 203.995 171.986C204 171.957 204.007 171.929 204.015 171.902C204.041 171.814 204.101 171.74 204.182 171.697C204.262 171.653 204.357 171.643 204.444 171.669C204.533 171.698 204.607 171.76 204.651 171.842C204.687 171.92 204.694 172.007 204.673 172.09V172.127C204.631 172.319 204.582 172.512 204.535 172.705C204.479 172.952 204.42 173.199 204.371 173.409C204.322 173.619 204.285 173.775 204.253 173.904C204.15 174.351 204.044 174.796 203.943 175.223C203.921 175.315 203.899 175.406 203.88 175.493L203.823 175.728C203.796 175.846 203.767 175.975 203.749 176.042L203.661 176.422C203.629 176.563 203.595 176.701 203.563 176.84C203.531 176.981 203.496 177.122 203.465 177.26V177.28L203.349 177.774C203.307 177.964 203.263 178.152 203.226 178.298C203.182 178.501 203.133 178.701 203.086 178.904C203.04 179.106 202.986 179.334 202.934 179.549C202.883 179.764 202.841 179.947 202.794 180.144V180.171C202.755 180.342 202.716 180.513 202.674 180.683V180.713C202.632 180.901 202.588 181.088 202.544 181.276L202.426 181.771C202.382 181.956 202.34 182.141 202.296 182.317V182.334V182.351C202.251 182.542 202.207 182.732 202.161 182.922V182.907V182.885V182.898V182.912C202.121 183.078 202.082 183.244 202.045 183.407C202.008 183.57 201.969 183.728 201.942 183.844C201.915 183.96 201.871 184.153 201.841 184.279C201.716 184.815 201.596 185.354 201.461 185.891V185.873V185.893C201.446 185.973 201.404 186.046 201.342 186.098C201.281 186.151 201.203 186.181 201.122 186.182L201.102 186.195Z" fill="black"/>
<path d="M225.66 190.9C225.57 190.883 225.49 190.832 225.438 190.756C225.386 190.681 225.365 190.588 225.38 190.497C225.424 190.28 225.476 190.062 225.525 189.845L225.753 188.804C225.917 188.063 226.08 187.321 226.244 186.58C226.409 185.838 226.573 185.097 226.735 184.356C226.811 184.01 226.87 183.661 226.934 183.31C226.998 182.959 227.057 182.621 227.121 182.277C227.204 181.81 227.29 181.34 227.366 180.873C227.383 180.783 227.433 180.703 227.508 180.65C227.582 180.597 227.674 180.576 227.764 180.591C227.854 180.608 227.934 180.66 227.986 180.735C228.038 180.811 228.059 180.904 228.044 180.994C227.862 182.01 227.686 183.031 227.492 184.047C227.354 184.788 227.182 185.505 227.023 186.231C226.863 186.958 226.698 187.7 226.531 188.436L226.244 189.739C226.18 190.033 226.109 190.327 226.05 190.623C226.034 190.703 225.992 190.775 225.93 190.827C225.868 190.88 225.79 190.909 225.709 190.91L225.66 190.9Z" fill="black"/>
<path d="M223.417 189.081C223.341 189.044 223.281 188.98 223.248 188.901C223.216 188.822 223.213 188.734 223.241 188.654C223.24 188.645 223.24 188.637 223.241 188.629C223.754 187.295 224.196 185.935 224.564 184.553C224.621 184.341 224.675 184.128 224.731 183.913C224.906 183.199 225.075 182.48 225.222 181.758C225.37 181.036 225.49 180.352 225.598 179.645C225.642 179.355 225.684 179.066 225.723 178.777C225.723 178.74 225.736 178.703 225.741 178.664C225.741 178.612 225.741 178.56 225.76 178.506C225.78 178.451 225.76 178.464 225.76 178.441C225.76 178.419 225.76 178.328 225.78 178.273C225.798 178.183 225.85 178.104 225.925 178.051C226 177.999 226.093 177.979 226.183 177.994C226.267 178.011 226.342 178.058 226.393 178.127C226.445 178.196 226.47 178.281 226.462 178.367V178.394C226.399 178.968 226.31 179.536 226.217 180.105C226.102 180.826 225.971 181.546 225.817 182.26C225.662 182.974 225.483 183.743 225.291 184.484C225.112 185.184 224.913 185.878 224.694 186.563C224.557 186.988 224.422 187.41 224.27 187.828C224.193 188.041 224.117 188.253 224.039 188.466C223.982 188.619 223.926 188.777 223.862 188.928C223.834 188.988 223.79 189.039 223.734 189.074C223.678 189.109 223.613 189.127 223.548 189.126C223.502 189.12 223.457 189.105 223.417 189.081Z" fill="black"/>
<path d="M252.577 66.3974C252.488 66.3762 252.411 66.3207 252.363 66.243C252.315 66.1653 252.299 66.0716 252.319 65.9822C252.452 65.3272 252.596 64.6747 252.734 64.0198C252.891 63.2783 253.051 62.5368 253.205 61.7954C253.515 60.3421 253.823 58.8889 254.131 57.4356C254.428 56.0343 254.73 54.6329 255.025 53.234C255.04 53.1624 255.057 53.0882 255.072 53.0141C255.095 52.9272 255.152 52.8529 255.229 52.8069C255.306 52.7608 255.397 52.7465 255.484 52.7669C255.573 52.7881 255.65 52.8436 255.698 52.9213C255.746 52.999 255.762 53.0927 255.742 53.1821C255.632 53.7432 255.497 54.2993 255.389 54.8578C255.234 55.5795 255.077 56.2987 254.927 57.0204C254.627 58.4712 254.313 59.9195 254.006 61.3703C253.699 62.8211 253.377 64.3114 253.068 65.7844C253.043 65.9006 253.016 66.0316 252.992 66.1378C252.974 66.2145 252.93 66.2828 252.869 66.3317C252.807 66.3806 252.731 66.4072 252.653 66.4073C252.627 66.4066 252.602 66.4032 252.577 66.3974Z" fill="black"/>
<path d="M250.359 67.6555C250.27 67.6369 250.192 67.5843 250.14 67.5087C250.089 67.4331 250.069 67.3404 250.084 67.2501C250.403 65.848 250.72 64.4474 251.034 63.0485L252.017 58.669L252.967 54.4526C253.07 53.9954 253.168 53.5357 253.276 53.0784C253.295 52.9888 253.347 52.9098 253.422 52.8582C253.497 52.8066 253.59 52.7863 253.679 52.8016C253.769 52.819 253.848 52.8714 253.9 52.9473C253.951 53.0232 253.971 53.1166 253.954 53.207C253.861 53.595 253.777 53.9855 253.692 54.376L253.22 56.462C252.896 57.9029 252.579 59.3438 252.238 60.7797C251.896 62.2157 251.587 63.6912 251.255 65.1469C251.084 65.8884 250.919 66.6298 250.75 67.3713C250.733 67.45 250.691 67.5209 250.629 67.5721C250.568 67.6233 250.491 67.6518 250.411 67.653C250.394 67.6554 250.376 67.6562 250.359 67.6555Z" fill="black"/>
<path d="M247.959 68.8616C247.872 68.8378 247.796 68.7801 247.75 68.701C247.705 68.6219 247.691 68.5277 247.714 68.4389C247.785 68.1522 247.839 67.8606 247.903 67.5739C247.979 67.2205 248.058 66.8695 248.134 66.5161L248.625 64.2596C248.952 62.7915 249.273 61.3226 249.588 59.8529L250.531 55.5475C250.786 54.371 251.043 53.1946 251.302 52.0182C251.302 51.986 251.302 51.9539 251.321 51.9218C251.351 51.7982 251.378 51.6746 251.405 51.5461C251.405 51.509 251.422 51.4695 251.429 51.4324V51.4077C251.454 51.319 251.511 51.2434 251.59 51.1972C251.669 51.151 251.763 51.1378 251.852 51.1605C251.896 51.1717 251.938 51.1919 251.974 51.22C252.011 51.2481 252.041 51.2833 252.063 51.3237C252.103 51.3994 252.115 51.4869 252.097 51.5708C252.048 51.818 251.989 52.0651 251.938 52.3123L251.724 53.286L251.267 55.372C250.951 56.8302 250.633 58.2884 250.312 59.7466C249.991 61.2048 249.669 62.6786 249.344 64.1681L248.401 68.4884C248.401 68.5353 248.382 68.5823 248.37 68.6292C248.348 68.7014 248.304 68.7646 248.244 68.8092C248.183 68.8538 248.11 68.8774 248.036 68.8764C248.01 68.8755 247.984 68.8705 247.959 68.8616Z" fill="black"/>
<path d="M246.486 62.7076C246.396 62.6918 246.316 62.6419 246.262 62.5682C246.208 62.4946 246.185 62.4028 246.196 62.3121C246.292 61.7634 246.383 61.2123 246.481 60.6636C246.723 59.2515 246.969 57.8386 247.218 56.4249L247.984 51.9762L248.006 51.8353L248.036 51.6549C248.036 51.6384 248.036 51.6219 248.036 51.6055C248.049 51.5145 248.099 51.4327 248.172 51.3781C248.246 51.3234 248.338 51.3003 248.428 51.3138C248.518 51.3278 248.599 51.377 248.653 51.4507C248.706 51.5243 248.729 51.6164 248.716 51.7068L248.679 51.9218C248.68 51.9275 248.68 51.9334 248.679 51.9391C248.679 51.9391 248.679 51.9391 248.679 51.9564C248.433 53.3281 248.207 54.6998 247.969 56.069C247.715 57.5322 247.463 58.9945 247.213 60.456C247.196 60.5647 247.176 60.6735 247.156 60.7822C247.157 60.7879 247.157 60.7938 247.156 60.7995C247.058 61.3408 246.97 61.8821 246.876 62.4258C246.863 62.5072 246.821 62.5813 246.759 62.635C246.696 62.6887 246.617 62.7188 246.535 62.7199L246.486 62.7076Z" fill="black"/>
<path d="M225.81 60.5301C225.723 60.5052 225.648 60.4473 225.603 60.3685C225.557 60.2897 225.543 60.1962 225.564 60.1075L226.191 57.1886C226.503 55.7254 226.812 54.2623 227.129 52.7992C227.445 51.336 227.75 49.8828 228.064 48.4246C228.175 47.9155 228.283 47.4038 228.391 46.8947V46.8774V46.8379C228.415 46.7492 228.473 46.6736 228.552 46.6274C228.631 46.5812 228.725 46.568 228.813 46.5907C228.901 46.6151 228.976 46.6729 229.021 46.7518C229.067 46.8307 229.081 46.9246 229.059 47.0134V47.0504C228.753 48.4839 228.447 49.9182 228.14 51.3533C227.813 52.8362 227.495 54.3257 227.185 55.8218L226.367 59.6403C226.321 59.8554 226.277 60.0679 226.23 60.2829C226.208 60.3555 226.164 60.419 226.103 60.4636C226.042 60.5083 225.969 60.5316 225.893 60.5301C225.866 60.5339 225.838 60.5339 225.81 60.5301Z" fill="black"/>
<path d="M229.142 51.8205C229.296 50.7331 229.559 49.6579 229.753 48.5729C229.822 48.2096 229.888 47.8488 229.964 47.4879C230.023 47.1741 230.129 46.66 230.554 46.7465C230.628 46.7581 230.697 46.7925 230.75 46.845C230.804 46.8975 230.841 46.9655 230.855 47.0397C230.869 47.1139 230.86 47.1907 230.829 47.2594C230.798 47.3282 230.746 47.3855 230.681 47.4237C230.387 48.872 230.089 50.3895 229.829 51.818C229.829 51.9098 229.794 51.998 229.729 52.0631C229.665 52.1282 229.578 52.165 229.487 52.1653C229.395 52.1656 229.308 52.1295 229.243 52.0648C229.178 52.0002 229.142 51.9123 229.142 51.8205Z" fill="black"/>
<path d="M231.764 50.1496C231.677 50.1247 231.603 50.0668 231.557 49.988C231.511 49.9093 231.497 49.8157 231.519 49.727C231.705 48.9089 231.813 48.0414 232.128 47.2555C232.169 47.1775 232.239 47.1186 232.323 47.0909C232.406 47.0632 232.497 47.0687 232.577 47.1064C232.656 47.1441 232.718 47.211 232.75 47.2934C232.782 47.3759 232.782 47.4676 232.749 47.5496C232.511 48.3166 232.323 49.0984 232.186 49.8901C232.176 49.9351 232.156 49.9776 232.129 50.0151C232.102 50.0525 232.068 50.0842 232.029 50.1084C231.99 50.1325 231.946 50.1485 231.901 50.1556C231.855 50.1627 231.809 50.1607 231.764 50.1496Z" fill="black"/>
<path d="M231.647 63.1919C231.042 62.9819 231.713 62.1366 231.757 61.7238C231.907 59.7639 232.454 57.8905 232.865 55.98C233.216 54.5317 233.537 53.0142 233.989 51.6129C233.994 51.5637 234.009 51.5162 234.034 51.4733C234.058 51.4304 234.091 51.3932 234.131 51.3641C234.17 51.335 234.216 51.3146 234.264 51.3043C234.312 51.294 234.361 51.2941 234.409 51.3044C234.457 51.3147 234.502 51.3351 234.542 51.3642C234.582 51.3934 234.615 51.4306 234.639 51.4735C234.663 51.5164 234.678 51.5639 234.683 51.6131C234.688 51.6622 234.683 51.7118 234.667 51.7587C234.387 52.5694 234.2 53.4097 233.989 54.2302C233.498 56.3013 232.98 58.3972 232.594 60.4782C232.44 61.1035 232.531 61.7684 232.268 62.364C232.189 62.5493 232.121 62.7391 232.064 62.9324C232.054 62.9773 232.035 63.0196 232.008 63.0571C231.982 63.0945 231.948 63.1262 231.909 63.1503C231.87 63.1745 231.827 63.1906 231.782 63.1978C231.737 63.2049 231.691 63.2029 231.647 63.1919Z" fill="black"/>
<path d="M233.996 62.7767C233.909 62.7534 233.834 62.6962 233.788 62.6175C233.742 62.5388 233.728 62.445 233.751 62.3565C233.869 61.8993 233.996 61.442 234.127 60.9873C234.25 60.545 234.396 60.1094 234.564 59.6823C234.599 59.5974 234.665 59.5297 234.75 59.4941C234.834 59.4584 234.928 59.4577 235.013 59.492C235.475 59.7219 235.03 60.2483 234.964 60.5918C234.763 61.232 234.588 61.8795 234.419 62.527C234.395 62.6158 234.337 62.6916 234.258 62.7382C234.179 62.7848 234.085 62.7986 233.996 62.7767Z" fill="black"/>
<path d="M206.078 182.623C206.128 182.608 206.173 182.58 206.208 182.542C206.17 182.577 206.126 182.604 206.078 182.623ZM204.745 186.592C204.592 186.442 204.639 186.234 204.673 186.046C204.708 185.858 204.745 185.685 204.781 185.505C205.042 184.418 205.194 183.281 205.602 182.238C205.732 181.872 206.225 181.835 206.311 182.238C206.32 182.287 206.316 182.338 206.302 182.386C206.288 182.434 206.262 182.478 206.228 182.514C206.011 183.144 205.84 183.788 205.717 184.442C205.592 185.016 205.459 185.587 205.359 186.12C205.314 186.279 205.359 186.459 205.231 186.585C205.199 186.618 205.162 186.645 205.12 186.664C205.078 186.683 205.033 186.693 204.988 186.694C204.942 186.695 204.897 186.687 204.854 186.671C204.812 186.654 204.773 186.629 204.74 186.597L204.745 186.592Z" fill="black"/>
<path d="M207.237 186.33C206.804 186.264 206.954 185.767 207.006 185.468C207.057 185.169 207.21 184.749 207.593 184.934C207.873 185.092 207.723 185.389 207.676 185.629C207.627 185.928 207.647 186.372 207.237 186.33Z" fill="black"/>
<path d="M222.479 179.104C222.392 179.079 222.317 179.021 222.272 178.942C222.226 178.863 222.212 178.77 222.233 178.681C222.381 178.093 222.526 177.5 222.673 176.912C222.791 176.462 222.894 176.007 223.044 175.565C223.056 175.505 223.083 175.449 223.122 175.403C223.161 175.356 223.21 175.32 223.267 175.297C223.323 175.275 223.384 175.267 223.444 175.274C223.504 175.281 223.561 175.302 223.611 175.337C223.822 175.488 223.731 175.738 223.648 175.93C223.508 176.407 223.388 176.889 223.27 177.371C223.152 177.853 223.024 178.36 222.901 178.854C222.89 178.899 222.87 178.94 222.842 178.977C222.815 179.013 222.781 179.044 222.742 179.067C222.702 179.09 222.659 179.105 222.614 179.112C222.569 179.118 222.523 179.115 222.479 179.104Z" fill="black"/>
<path d="M220.648 174.052C220.561 174.027 220.487 173.97 220.441 173.892C220.395 173.813 220.381 173.72 220.402 173.632C220.488 173.176 220.611 172.729 220.771 172.295C220.805 172.21 220.872 172.143 220.955 172.107C221.039 172.072 221.133 172.071 221.218 172.104C221.517 172.235 221.436 172.537 221.326 172.774C221.225 173.113 221.146 173.456 221.08 173.802C221.068 173.847 221.048 173.89 221.02 173.927C220.992 173.964 220.956 173.995 220.916 174.018C220.876 174.042 220.831 174.057 220.785 174.062C220.739 174.068 220.692 174.064 220.648 174.052Z" fill="black"/>
<path d="M217.937 168.175C217.936 168.083 217.972 167.996 218.035 167.93C218.098 167.864 218.185 167.826 218.275 167.824C218.367 167.823 218.455 167.858 218.52 167.922C218.586 167.986 218.624 168.073 218.627 168.165C218.627 168.257 218.592 168.346 218.528 168.412C218.464 168.478 218.377 168.516 218.285 168.518C218.194 168.518 218.106 168.482 218.041 168.418C217.976 168.354 217.938 168.266 217.937 168.175Z" fill="black"/>
</svg>
