<svg width="194" height="97" viewBox="0 0 194 97" fill="none" xmlns="http://www.w3.org/2000/svg">
<path d="M190.66 14.4851C188.83 14.4851 187.33 15.9903 187.33 17.8501V57.6786C187.33 61.8126 184.006 65.1721 179.919 65.1721C175.831 65.1721 172.502 61.8126 172.502 57.6786V14.2288C172.502 6.38086 166.189 0 158.436 0C150.684 0 144.366 6.38086 144.366 14.2288V72.1528C144.366 76.3576 141.107 79.6572 136.954 79.6572C132.802 79.6572 129.537 76.2867 129.537 72.1528V72.0928L129.959 45.7077C129.943 37.8761 123.641 31.5007 115.889 31.5007C108.136 31.5007 101.824 37.8871 101.824 45.7404V45.8222L101.407 64.9703C101.374 69.0824 98.0609 72.4201 93.9897 72.4201C90.1621 72.4201 86.9896 69.5187 86.6106 65.6847V65.6138L86.5998 65.5429C86.5836 65.3357 86.5727 65.1284 86.5727 64.9157L87.2386 21.5368C87.2386 13.6943 80.9315 7.3189 73.1788 7.3189C65.4262 7.3189 59.1082 13.6943 59.1082 21.5368L58.4423 72.1528C58.4423 76.3576 55.1832 79.6572 51.0253 79.6572C46.8675 79.6572 43.6191 76.3576 43.6191 72.1528V35.951C43.6191 28.1031 37.3066 21.7277 29.5485 21.7277C26.5276 21.7277 23.6366 22.6875 21.1949 24.5036H21.1841C19.8144 25.5289 17.9412 25.5125 16.5931 24.4709C16.4903 24.3891 16.382 24.3073 16.2683 24.2255C13.6426 22.393 8.9217 22.3494 6.22018 24.0618C3.29669 25.9161 0.925422 28.7957 0.129584 31.6207C-0.476768 33.7749 1.12032 35.8583 3.34542 35.8583C4.80716 35.8583 6.06318 34.8929 6.52336 33.4968C6.62081 33.1968 6.72908 32.8587 6.85902 32.5097C7.83351 29.8155 11.9968 29.0956 13.9674 31.1626C15.0881 32.3406 15.3804 33.7913 15.4887 35.1984L15.505 35.4438L15.4887 35.6946V61.289C15.4887 63.116 17.0154 64.6539 18.8128 64.6539C20.6102 64.6539 22.1423 63.1433 22.1423 61.289V37.1072L22.3318 34.4239C22.5105 33.5459 22.8028 32.6896 23.2793 31.9316C24.6002 29.821 26.9282 28.4412 29.5593 28.4412C33.6468 28.4412 36.9709 31.8007 36.9709 35.9401V72.1419C36.9709 79.9898 43.2835 86.3707 51.0361 86.3707C52.3571 86.3707 53.6456 86.1962 54.88 85.8308C56.764 85.2745 58.7617 86.2507 59.498 88.0886V88.105C61.6581 93.5096 66.7688 97 72.5292 97C80.2872 97 86.5998 90.6137 86.5998 82.7658V82.6131C86.5998 80.1752 88.8249 78.3537 91.1962 78.85H91.207C92.1111 79.0354 93.0477 79.1336 94.0005 79.1336C101.759 79.1336 108.071 72.7527 108.071 64.9048V64.823L108.483 45.675C108.515 41.5629 111.828 38.2252 115.9 38.2252C119.971 38.2252 123.317 41.5192 123.317 45.7295V45.7895L122.9 72.1746C122.916 80.0062 129.218 86.3707 136.965 86.3707C144.712 86.3707 151.036 79.9898 151.036 72.1419V32.3515C151.036 30.23 152.746 28.5066 154.852 28.5066H162.047C164.153 28.5066 165.864 30.23 165.864 32.3515V57.6786C165.864 65.5211 172.177 71.9019 179.929 71.9019C187.682 71.9019 194 65.5211 194 57.6786V17.8501C194 15.9903 192.506 14.4851 190.67 14.4851H190.66ZM79.9299 82.7767C79.9299 86.9161 76.6004 90.2756 72.5129 90.2756C68.4255 90.2756 65.1013 86.9161 65.1013 82.7767V52.3013H65.0905L65.7564 21.5368C65.7564 17.4028 69.086 14.0433 73.1734 14.0433C77.2609 14.0433 80.585 17.4028 80.585 21.5368L79.9191 64.9866L79.9299 65.0848V82.7767ZM162.004 21.7931H154.809C152.703 21.7931 150.992 20.0697 150.992 17.9482V14.1906C150.992 9.99123 154.251 6.69172 158.404 6.69172C162.556 6.69172 165.821 10.0567 165.821 14.1906V17.9482C165.821 20.0697 164.11 21.7931 162.004 21.7931Z" fill="#202D35"/>
</svg>
