<svg width="141" height="77" viewBox="0 0 141 77" fill="none" xmlns="http://www.w3.org/2000/svg">
<path d="M125.486 14.5706C124.656 14.5706 123.976 15.2533 123.976 16.0969V34.1635C123.976 36.0387 122.468 37.5626 120.614 37.5626C118.76 37.5626 117.25 36.0387 117.25 34.1635V14.4543C117.25 10.8944 114.386 8 110.869 8C107.353 8 104.487 10.8944 104.487 14.4543V40.7291C104.487 42.6365 103.009 44.1331 101.125 44.1331C99.2414 44.1331 97.7606 42.6043 97.7606 40.7291V40.7019L97.9521 28.7334C97.9448 25.1809 95.0862 22.289 91.5696 22.289C88.0529 22.289 85.1895 25.1859 85.1895 28.7482V28.7853L85.0004 37.471C84.9857 39.3363 83.4827 40.8503 81.636 40.8503C79.8997 40.8503 78.4607 39.5342 78.2888 37.7951V37.763L78.2838 37.7308C78.2765 37.6368 78.2716 37.5428 78.2716 37.4463L78.5736 17.7693C78.5736 14.2119 75.7127 11.3199 72.196 11.3199C68.6793 11.3199 65.8134 14.2119 65.8134 17.7693L65.5114 40.7291C65.5114 42.6365 64.033 44.1331 62.147 44.1331C60.2609 44.1331 58.7875 42.6365 58.7875 40.7291V24.3077C58.7875 20.7478 55.924 17.8558 52.4049 17.8558C51.0346 17.8558 49.7232 18.2912 48.6157 19.115H48.6107C47.9894 19.5801 47.1397 19.5727 46.5282 19.1002C46.4816 19.0631 46.4325 19.026 46.3809 18.9889C45.1899 18.1577 43.0484 18.1379 41.823 18.9147C40.4969 19.7558 39.4212 21.062 39.0602 22.3434C38.7852 23.3206 39.5097 24.2656 40.519 24.2656C41.182 24.2656 41.7518 23.8277 41.9605 23.1944C42.0047 23.0584 42.0538 22.905 42.1128 22.7467C42.5548 21.5246 44.4433 21.198 45.3372 22.1356C45.8455 22.67 45.9782 23.328 46.0273 23.9663L46.0346 24.0776L46.0273 24.1914V35.8012C46.0273 36.6299 46.7198 37.3276 47.5351 37.3276C48.3504 37.3276 49.0454 36.6423 49.0454 35.8012V24.8321L49.1314 23.615C49.2124 23.2167 49.345 22.8283 49.5611 22.4844C50.1603 21.527 51.2163 20.9012 52.4098 20.9012C54.2639 20.9012 55.7718 22.4251 55.7718 24.3027V40.7242C55.7718 44.284 58.6352 47.1785 62.1519 47.1785C62.7511 47.1785 63.3356 47.0993 63.8955 46.9335C64.7501 46.6812 65.6563 47.124 65.9902 47.9577V47.9651C66.9701 50.4167 69.2884 52 71.9013 52C75.4204 52 78.2838 49.1031 78.2838 45.5432V45.474C78.2838 44.3682 79.2932 43.5419 80.3688 43.767H80.3737C80.7838 43.8511 81.2087 43.8956 81.6409 43.8956C85.16 43.8956 88.0234 41.0012 88.0234 37.4414V37.4042L88.2101 28.7185C88.2248 26.8533 89.7277 25.3393 91.5745 25.3393C93.4212 25.3393 94.9389 26.8335 94.9389 28.7433V28.7705L94.7498 40.739C94.7572 44.2915 97.6157 47.1785 101.13 47.1785C104.644 47.1785 107.512 44.284 107.512 40.7242V22.6749C107.512 21.7126 108.288 20.9308 109.244 20.9308H112.507C113.463 20.9308 114.239 21.7126 114.239 22.6749V34.1635C114.239 37.7209 117.102 40.6153 120.619 40.6153C124.136 40.6153 127.001 37.7209 127.001 34.1635V16.0969C127.001 15.2533 126.324 14.5706 125.491 14.5706H125.486ZM75.2583 45.5482C75.2583 47.4258 73.748 48.9497 71.8939 48.9497C70.0398 48.9497 68.532 47.4258 68.532 45.5482V31.7243H68.5271L68.8291 17.7693C68.8291 15.8941 70.3394 14.3702 72.1935 14.3702C74.0476 14.3702 75.5555 15.8941 75.5555 17.7693L75.2534 37.4785L75.2583 37.523V45.5482ZM112.488 17.8855H109.224C108.269 17.8855 107.493 17.1038 107.493 16.1415V14.437C107.493 12.5321 108.971 11.0354 110.855 11.0354C112.738 11.0354 114.219 12.5618 114.219 14.437V16.1415C114.219 17.1038 113.443 17.8855 112.488 17.8855Z" fill="#202D35"/>
<path d="M125.501 13C126.33 13 127.001 12.3284 127.001 11.5C127.001 10.6716 126.33 10 125.501 10C124.673 10 124.001 10.6716 124.001 11.5C124.001 12.3284 124.673 13 125.501 13Z" fill="#202D35"/>
<path d="M22.3461 24.6805C20.9037 24.5973 19.4711 24.3597 18.0655 24.0243C17.3799 23.8603 16.6968 23.6742 16.0334 23.4367C15.6132 23.2849 14.9694 22.7486 14.5738 22.7046C14.5738 22.7046 14.3845 22.5993 14.4902 22.6042C14.5148 22.6042 14.5811 22.9323 14.5664 22.9274C14.4902 22.9029 14.7212 22.7144 14.5713 22.8392C14.7556 22.6825 14.7703 22.5503 14.9595 22.423C15.51 22.0582 16.3012 21.8966 17.0236 21.7937C19.2204 21.4803 21.5597 21.6884 23.7393 22.0386C25.7346 22.3593 27.8602 22.7756 29.6933 23.6595C29.9955 23.8064 30.4845 24.1027 30.6344 24.203C30.632 24.203 30.8089 24.3304 30.7819 24.3402C30.7794 24.3402 30.7597 24.4063 30.8089 24.394C30.89 24.3744 30.5951 24.2104 30.7401 24.0782C30.6688 24.1443 30.7819 24.2863 30.6737 24.3646C30.5066 24.4846 30.3641 24.6144 30.1725 24.7025C29.8383 24.8543 29.45 24.9033 29.0913 24.9596C28.5728 25.0404 27.9535 25.0135 27.2385 25.0037C25.5774 24.9792 25.5774 27.5501 27.2385 27.5746C28.8996 27.5991 30.8679 27.582 32.2341 26.4238C33.3816 25.4518 33.7207 23.7746 32.6813 22.614C31.1455 20.9 28.1993 20.3099 26.059 19.8594C23.1299 19.2424 20.0117 18.8653 17.0236 19.2228C14.962 19.4677 11.9371 20.3271 12.001 22.9396C12.0452 24.7784 14.3133 25.5815 15.7557 26.0517C17.8665 26.7372 20.1296 27.1241 22.3436 27.2514C24.0023 27.3469 23.9974 24.776 22.3436 24.6805H22.3461Z" fill="#202D35"/>
<path d="M15.8053 26.0002C16.4343 27.1584 16.6653 28.6593 16.0633 29.8836C15.5129 30.9976 14.1835 31.7713 13.0679 32.2243C11.7999 32.7385 11.8466 34.7463 13.4119 34.7487C18.6803 34.761 23.9511 34.7365 29.2195 34.7732C30.8806 34.7854 30.883 32.2145 29.2195 32.2023C23.9511 32.1655 18.6803 32.1876 13.4119 32.1778L13.7559 34.7022C15.621 33.9456 17.572 32.7752 18.4395 30.8752C19.3069 28.9752 19.0538 26.5756 18.0365 24.7001C17.2452 23.2457 15.0165 24.5409 15.8077 25.9978L15.8053 26.0002Z" fill="#202D35"/>
<path d="M31.4481 26.6393C31.4972 26.5879 31.5488 26.5413 31.6004 26.4997C31.1729 26.2328 30.7207 26.0051 30.2391 25.8337C29.8779 25.704 29.529 25.633 29.1825 25.5938C29.1481 25.6648 29.1112 25.7333 29.0645 25.797C29.0375 25.8362 29.0105 25.8754 28.9835 25.917C28.3765 26.8621 28.4207 28.5246 29.0547 29.4526C29.7427 30.4589 30.7822 31.2547 31.7823 31.4995C32.5465 31.6856 33.2566 31.098 33.2271 30.3145C33.2075 29.8003 32.8536 29.3718 32.3597 29.2273C32.2516 29.1955 32.1337 29.1612 32.0108 29.1221C31.0549 28.8135 30.7478 27.3591 31.4481 26.6393Z" fill="#202D35"/>
<path d="M45.6514 70.6558V63.8466H51.7921V64.635H46.59V66.8435H51.6962V67.6418H46.59V69.8699H51.7921V70.6583H45.6514V70.6558Z" fill="#202D35"/>
<path d="M58.9772 70.9007C58.2425 70.9007 57.5987 70.8076 57.0483 70.6191C56.4979 70.4306 56.0728 70.1563 55.7705 69.7964C55.4683 69.4365 55.3159 69.0006 55.3159 68.4889V68.4008H56.2718V68.4497C56.2718 68.8121 56.3848 69.1182 56.6134 69.3679C56.8419 69.6177 57.1589 69.8013 57.5643 69.9164C57.9698 70.0339 58.4465 70.0951 58.9944 70.1C59.626 70.0927 60.1616 70.0217 60.6039 69.8821C61.0463 69.7425 61.3338 69.5467 61.464 69.2945C61.523 69.2112 61.5623 69.1231 61.5869 69.0374C61.6114 68.9517 61.6213 68.8611 61.6213 68.7705C61.6213 68.6872 61.6139 68.6089 61.5967 68.5428C61.5795 68.4742 61.5549 68.4057 61.523 68.3347C61.523 68.3273 61.523 68.3224 61.518 68.32C61.5156 68.3175 61.5107 68.3126 61.5033 68.3053C61.4001 68.1437 61.2256 68.0139 60.9799 67.916C60.7342 67.818 60.4049 67.7495 59.9896 67.7127L57.8715 67.5585C57.2596 67.4997 56.7731 67.3895 56.4119 67.2279C56.0506 67.0663 55.7853 66.8484 55.6157 66.5766C55.5494 66.4591 55.5027 66.3318 55.4683 66.1922C55.4363 66.0527 55.4191 65.9033 55.4191 65.7393C55.4191 65.5899 55.4363 65.443 55.4683 65.2961C55.5002 65.1492 55.5567 65.0121 55.6354 64.8823C55.8639 64.4807 56.2718 64.1673 56.8615 63.9445C57.4513 63.7217 58.1713 63.6091 59.0239 63.6091C59.766 63.6091 60.4074 63.6997 60.948 63.8809C61.4886 64.062 61.9063 64.3289 62.2012 64.684C62.4985 65.0365 62.6459 65.4699 62.6459 65.9817V66.0698H61.6606V66.011C61.6606 65.4601 61.4296 65.0537 60.9676 64.7941C60.5057 64.5346 59.8447 64.4048 58.9871 64.4048C58.3556 64.4048 57.8199 64.4783 57.38 64.6276C56.9402 64.777 56.6502 64.9704 56.5052 65.2104C56.4659 65.2887 56.4364 65.3671 56.4168 65.443C56.3971 65.5213 56.3873 65.6119 56.3873 65.7148C56.3873 65.7931 56.3947 65.8666 56.4119 65.9376C56.4291 66.0086 56.4536 66.0747 56.4856 66.131C56.5765 66.3 56.7485 66.4371 56.9991 66.5448C57.2498 66.6525 57.5987 66.7211 58.0484 66.7529L60.1764 66.9194C60.7809 66.9659 61.2625 67.0688 61.6213 67.2304C61.98 67.392 62.2331 67.6075 62.383 67.8719C62.4543 68.0017 62.5059 68.1388 62.5354 68.2808C62.5648 68.4228 62.5796 68.5771 62.5796 68.7387C62.5796 68.9003 62.5624 69.0668 62.5255 69.221C62.4887 69.3753 62.4321 69.5124 62.356 69.6348C62.1274 70.0364 61.7171 70.3473 61.1249 70.5677C60.5327 70.788 59.8176 70.8982 58.9772 70.8982V70.9007Z" fill="#202D35"/>
<path d="M65.4497 64.635V63.8466H73.2491V64.635H65.4497ZM68.8751 70.6558V64.422H69.8015V70.6558H68.8751Z" fill="#202D35"/>
<path d="M80.2277 70.9007C79.4536 70.9007 78.7804 70.7685 78.2078 70.5016C77.6353 70.2347 77.1954 69.8576 76.8858 69.363C76.5762 68.8684 76.4214 68.2906 76.4214 67.6222V63.849H77.3576V67.6026C77.3576 68.1094 77.4756 68.5477 77.709 68.9199C77.9424 69.292 78.2742 69.5785 78.7042 69.7768C79.1342 69.9752 79.6453 70.0731 80.2375 70.0731C80.8297 70.0731 81.3408 69.9752 81.7708 69.7817C82.2009 69.5883 82.5277 69.3043 82.7513 68.9297C82.9749 68.5575 83.0879 68.1143 83.0879 67.6026V63.849H84.0536V67.6222C84.0536 68.2955 83.8964 68.8782 83.5843 69.3679C83.2722 69.8576 82.8299 70.2347 82.2574 70.5016C81.6848 70.7685 81.0091 70.9007 80.2277 70.9007Z" fill="#202D35"/>
<path d="M88.1841 70.6558V63.8466H92.4499C93.4009 63.8466 94.1995 64.0351 94.8458 64.4097C95.492 64.7868 95.9368 65.3108 96.1776 65.9841C96.2562 66.1849 96.3103 66.3881 96.3422 66.5913C96.3742 66.7946 96.3914 67.0149 96.3914 67.2475C96.3914 67.4018 96.384 67.5536 96.3717 67.6956C96.3594 67.8376 96.3349 67.9772 96.3029 68.1143C96.271 68.2514 96.2292 68.3836 96.1751 68.5134C96.0179 68.9615 95.7697 69.3459 95.4281 69.6667C95.0866 69.9874 94.6639 70.2323 94.1577 70.4012C93.654 70.5701 93.0814 70.6534 92.445 70.6534H88.1792L88.1841 70.6558ZM92.5261 69.8674C93.2166 69.8674 93.7965 69.7205 94.2683 69.4292C94.7401 69.1378 95.0694 68.7411 95.2586 68.2416C95.2905 68.1388 95.3175 68.0335 95.3421 67.9258C95.3642 67.818 95.3814 67.7103 95.3913 67.6001C95.4011 67.4899 95.406 67.3724 95.406 67.25C95.406 67.0615 95.3937 66.8852 95.3667 66.7187C95.3397 66.5522 95.2979 66.3955 95.2389 66.2461C95.0571 65.7466 94.7303 65.3524 94.2634 65.0635C93.794 64.7746 93.2166 64.6301 92.5261 64.6301H89.1203V69.8625H92.5261V69.8674Z" fill="#202D35"/>
<path d="M100.072 70.6558V63.8466H101.008V70.6558H100.072Z" fill="#202D35"/>
<path d="M109.717 70.9007C108.904 70.9007 108.167 70.8027 107.506 70.6044C106.845 70.4061 106.294 70.1221 105.852 69.7523C105.41 69.3826 105.093 68.9419 104.906 68.4302C104.847 68.2416 104.8 68.0506 104.764 67.8572C104.727 67.6638 104.709 67.4606 104.709 67.2549C104.709 67.1129 104.717 66.9733 104.729 66.8362C104.741 66.6991 104.764 66.5669 104.798 66.4371C104.83 66.3073 104.867 66.1873 104.906 66.0772C105.095 65.5654 105.41 65.1247 105.852 64.7599C106.294 64.3926 106.845 64.1086 107.501 63.9078C108.157 63.707 108.897 63.6066 109.717 63.6066C110.538 63.6066 111.265 63.707 111.924 63.9078C112.58 64.1086 113.131 64.395 113.568 64.7697C114.008 65.1418 114.32 65.5777 114.509 66.0772C114.568 66.251 114.617 66.4395 114.656 66.6403C114.696 66.8411 114.715 67.0468 114.715 67.2524C114.715 67.3895 114.706 67.5242 114.686 67.6564C114.666 67.7887 114.644 67.9233 114.622 68.0555C114.6 68.1878 114.561 68.3126 114.509 68.4302C114.32 68.9296 114.008 69.3655 113.573 69.7377C113.138 70.1098 112.59 70.3987 111.934 70.5995C111.278 70.8003 110.538 70.9007 109.717 70.9007ZM109.717 70.0927C110.369 70.0927 110.961 70.0168 111.494 69.865C112.027 69.7132 112.474 69.4928 112.831 69.2039C113.189 68.915 113.44 68.5697 113.583 68.1682C113.622 68.0653 113.651 67.9649 113.671 67.867C113.691 67.7691 113.708 67.6711 113.72 67.5707C113.733 67.4703 113.74 67.3651 113.74 67.2549C113.74 67.0933 113.728 66.9366 113.706 66.7823C113.683 66.6281 113.642 66.4836 113.583 66.3391C113.445 65.9425 113.199 65.5997 112.841 65.3083C112.482 65.017 112.037 64.7941 111.504 64.6423C110.971 64.4905 110.376 64.4146 109.717 64.4146C109.059 64.4146 108.454 64.4905 107.921 64.6423C107.388 64.7941 106.943 65.0145 106.589 65.3034C106.235 65.5924 105.982 65.94 105.832 66.3489C105.8 66.4469 105.771 66.5424 105.749 66.6403C105.727 66.7382 105.71 66.8362 105.7 66.9366C105.69 67.037 105.685 67.1423 105.685 67.2524C105.685 67.414 105.697 67.5732 105.719 67.7299C105.742 67.8866 105.778 68.0286 105.832 68.1584C105.975 68.5599 106.228 68.9052 106.589 69.1941C106.95 69.483 107.395 69.7058 107.926 69.8601C108.457 70.0168 109.054 70.0927 109.717 70.0927Z" fill="#202D35"/>
<path d="M45.6514 70.6558V63.8466H51.7921V64.635H46.59V66.8435H51.6962V67.6418H46.59V69.8699H51.7921V70.6583H45.6514V70.6558Z" fill="#202D35"/>
<path d="M58.9772 70.9007C58.2425 70.9007 57.5987 70.8076 57.0483 70.6191C56.4979 70.4306 56.0728 70.1563 55.7705 69.7964C55.4683 69.4365 55.3159 69.0006 55.3159 68.4889V68.4008H56.2718V68.4497C56.2718 68.8121 56.3848 69.1182 56.6134 69.3679C56.8419 69.6177 57.1589 69.8013 57.5643 69.9164C57.9698 70.0339 58.4465 70.0951 58.9944 70.1C59.626 70.0927 60.1616 70.0217 60.6039 69.8821C61.0463 69.7425 61.3338 69.5467 61.464 69.2945C61.523 69.2112 61.5623 69.1231 61.5869 69.0374C61.6114 68.9517 61.6213 68.8611 61.6213 68.7705C61.6213 68.6872 61.6139 68.6089 61.5967 68.5428C61.5795 68.4742 61.5549 68.4057 61.523 68.3347C61.523 68.3273 61.523 68.3224 61.518 68.32C61.5156 68.3175 61.5107 68.3126 61.5033 68.3053C61.4001 68.1437 61.2256 68.0139 60.9799 67.916C60.7342 67.818 60.4049 67.7495 59.9896 67.7127L57.8715 67.5585C57.2596 67.4997 56.7731 67.3895 56.4119 67.2279C56.0506 67.0663 55.7853 66.8484 55.6157 66.5766C55.5494 66.4591 55.5027 66.3318 55.4683 66.1922C55.4363 66.0527 55.4191 65.9033 55.4191 65.7393C55.4191 65.5899 55.4363 65.443 55.4683 65.2961C55.5002 65.1492 55.5567 65.0121 55.6354 64.8823C55.8639 64.4807 56.2718 64.1673 56.8615 63.9445C57.4513 63.7217 58.1713 63.6091 59.0239 63.6091C59.766 63.6091 60.4074 63.6997 60.948 63.8809C61.4886 64.062 61.9063 64.3289 62.2012 64.684C62.4985 65.0365 62.6459 65.4699 62.6459 65.9817V66.0698H61.6606V66.011C61.6606 65.4601 61.4296 65.0537 60.9676 64.7941C60.5057 64.5346 59.8447 64.4048 58.9871 64.4048C58.3556 64.4048 57.8199 64.4783 57.38 64.6276C56.9402 64.777 56.6502 64.9704 56.5052 65.2104C56.4659 65.2887 56.4364 65.3671 56.4168 65.443C56.3971 65.5213 56.3873 65.6119 56.3873 65.7148C56.3873 65.7931 56.3947 65.8666 56.4119 65.9376C56.4291 66.0086 56.4536 66.0747 56.4856 66.131C56.5765 66.3 56.7485 66.4371 56.9991 66.5448C57.2498 66.6525 57.5987 66.7211 58.0484 66.7529L60.1764 66.9194C60.7809 66.9659 61.2625 67.0688 61.6213 67.2304C61.98 67.392 62.2331 67.6075 62.383 67.8719C62.4543 68.0017 62.5059 68.1388 62.5354 68.2808C62.5648 68.4228 62.5796 68.5771 62.5796 68.7387C62.5796 68.9003 62.5624 69.0668 62.5255 69.221C62.4887 69.3753 62.4321 69.5124 62.356 69.6348C62.1274 70.0364 61.7171 70.3473 61.1249 70.5677C60.5327 70.788 59.8176 70.8982 58.9772 70.8982V70.9007Z" fill="#202D35"/>
<path d="M65.4497 64.635V63.8466H73.2491V64.635H65.4497ZM68.8751 70.6558V64.422H69.8015V70.6558H68.8751Z" fill="#202D35"/>
<path d="M80.2277 70.9007C79.4536 70.9007 78.7804 70.7685 78.2078 70.5016C77.6353 70.2347 77.1954 69.8576 76.8858 69.363C76.5762 68.8684 76.4214 68.2906 76.4214 67.6222V63.849H77.3576V67.6026C77.3576 68.1094 77.4756 68.5477 77.709 68.9199C77.9424 69.292 78.2742 69.5785 78.7042 69.7768C79.1342 69.9752 79.6453 70.0731 80.2375 70.0731C80.8297 70.0731 81.3408 69.9752 81.7708 69.7817C82.2009 69.5883 82.5277 69.3043 82.7513 68.9297C82.9749 68.5575 83.0879 68.1143 83.0879 67.6026V63.849H84.0536V67.6222C84.0536 68.2955 83.8964 68.8782 83.5843 69.3679C83.2722 69.8576 82.8299 70.2347 82.2574 70.5016C81.6848 70.7685 81.0091 70.9007 80.2277 70.9007Z" fill="#202D35"/>
<path d="M88.1841 70.6558V63.8466H92.4499C93.4009 63.8466 94.1995 64.0351 94.8458 64.4097C95.492 64.7868 95.9368 65.3108 96.1776 65.9841C96.2562 66.1849 96.3103 66.3881 96.3422 66.5913C96.3742 66.7946 96.3914 67.0149 96.3914 67.2475C96.3914 67.4018 96.384 67.5536 96.3717 67.6956C96.3594 67.8376 96.3349 67.9772 96.3029 68.1143C96.271 68.2514 96.2292 68.3836 96.1751 68.5134C96.0179 68.9615 95.7697 69.3459 95.4281 69.6667C95.0866 69.9874 94.6639 70.2323 94.1577 70.4012C93.654 70.5701 93.0814 70.6534 92.445 70.6534H88.1792L88.1841 70.6558ZM92.5261 69.8674C93.2166 69.8674 93.7965 69.7205 94.2683 69.4292C94.7401 69.1378 95.0694 68.7411 95.2586 68.2416C95.2905 68.1388 95.3175 68.0335 95.3421 67.9258C95.3642 67.818 95.3814 67.7103 95.3913 67.6001C95.4011 67.4899 95.406 67.3724 95.406 67.25C95.406 67.0615 95.3937 66.8852 95.3667 66.7187C95.3397 66.5522 95.2979 66.3955 95.2389 66.2461C95.0571 65.7466 94.7303 65.3524 94.2634 65.0635C93.794 64.7746 93.2166 64.6301 92.5261 64.6301H89.1203V69.8625H92.5261V69.8674Z" fill="#202D35"/>
<path d="M100.072 70.6558V63.8466H101.008V70.6558H100.072Z" fill="#202D35"/>
<path d="M109.717 70.9007C108.904 70.9007 108.167 70.8027 107.506 70.6044C106.845 70.4061 106.294 70.1221 105.852 69.7523C105.41 69.3826 105.093 68.9419 104.906 68.4302C104.847 68.2416 104.8 68.0506 104.764 67.8572C104.727 67.6638 104.709 67.4606 104.709 67.2549C104.709 67.1129 104.717 66.9733 104.729 66.8362C104.741 66.6991 104.764 66.5669 104.798 66.4371C104.83 66.3073 104.867 66.1873 104.906 66.0772C105.095 65.5654 105.41 65.1247 105.852 64.7599C106.294 64.3926 106.845 64.1086 107.501 63.9078C108.157 63.707 108.897 63.6066 109.717 63.6066C110.538 63.6066 111.265 63.707 111.924 63.9078C112.58 64.1086 113.131 64.395 113.568 64.7697C114.008 65.1418 114.32 65.5777 114.509 66.0772C114.568 66.251 114.617 66.4395 114.656 66.6403C114.696 66.8411 114.715 67.0468 114.715 67.2524C114.715 67.3895 114.706 67.5242 114.686 67.6564C114.666 67.7887 114.644 67.9233 114.622 68.0555C114.6 68.1878 114.561 68.3126 114.509 68.4302C114.32 68.9296 114.008 69.3655 113.573 69.7377C113.138 70.1098 112.59 70.3987 111.934 70.5995C111.278 70.8003 110.538 70.9007 109.717 70.9007ZM109.717 70.0927C110.369 70.0927 110.961 70.0168 111.494 69.865C112.027 69.7132 112.474 69.4928 112.831 69.2039C113.189 68.915 113.44 68.5697 113.583 68.1682C113.622 68.0653 113.651 67.9649 113.671 67.867C113.691 67.7691 113.708 67.6711 113.72 67.5707C113.733 67.4703 113.74 67.3651 113.74 67.2549C113.74 67.0933 113.728 66.9366 113.706 66.7823C113.683 66.6281 113.642 66.4836 113.583 66.3391C113.445 65.9425 113.199 65.5997 112.841 65.3083C112.482 65.017 112.037 64.7941 111.504 64.6423C110.971 64.4905 110.376 64.4146 109.717 64.4146C109.059 64.4146 108.454 64.4905 107.921 64.6423C107.388 64.7941 106.943 65.0145 106.589 65.3034C106.235 65.5924 105.982 65.94 105.832 66.3489C105.8 66.4469 105.771 66.5424 105.749 66.6403C105.727 66.7382 105.71 66.8362 105.7 66.9366C105.69 67.037 105.685 67.1423 105.685 67.2524C105.685 67.414 105.697 67.5732 105.719 67.7299C105.742 67.8866 105.778 68.0286 105.832 68.1584C105.975 68.5599 106.228 68.9052 106.589 69.1941C106.95 69.483 107.395 69.7058 107.926 69.8601C108.457 70.0168 109.054 70.0927 109.717 70.0927Z" fill="#202D35"/>
</svg>
