<svg width="162" height="112" viewBox="0 0 162 112" fill="none" xmlns="http://www.w3.org/2000/svg">
<g clip-path="url(#clip0_401_239)">
<path d="M11.9584 13.8281H11.9255C11.2926 14.0235 10.6734 14.2601 10.0717 14.5364C9.65851 14.7251 9.25755 14.9397 8.87156 15.1788H8.85095C8.54919 15.3668 8.26034 15.5745 7.98619 15.8006C7.77982 15.9716 7.58486 16.156 7.40268 16.3524C7.25428 16.5197 7.1161 16.6957 6.98888 16.8795C6.87977 17.0373 6.78163 17.2025 6.69511 17.3737C6.62014 17.5173 6.55507 17.6659 6.50053 17.8184C6.44302 17.9799 6.39609 18.145 6.35991 18.3126C6.32468 18.4769 6.29973 18.6433 6.28535 18.8108C6.27708 18.9741 6.27708 19.1376 6.28535 19.3008C6.29442 19.4789 6.31382 19.6562 6.34334 19.8321C6.38886 20.0544 6.44261 20.2768 6.50882 20.4909C6.59106 20.736 6.68634 20.9766 6.79431 21.2116C6.93034 21.4936 7.08103 21.7685 7.24548 22.0352L7.26609 22.064C7.51667 22.4578 7.79314 22.8348 8.09368 23.1923C8.51178 23.6842 8.9596 24.1504 9.43446 24.5883L9.48397 24.6295C10.2581 25.3261 11.0765 25.9725 11.9338 26.5649C13.0163 27.3123 14.1393 27.9996 15.2979 28.6239L15.3393 28.6486C15.891 27.0371 16.4427 25.4256 16.9945 23.8141C15.8854 23.2862 14.9739 22.4209 14.3917 21.3434C14.0754 20.7338 13.9499 20.0438 14.0316 19.3626C14.0782 19.0181 14.1831 18.6839 14.342 18.3743C14.496 18.0821 14.6926 17.8143 14.9255 17.5796C15.3946 17.1283 15.9606 16.7889 16.5807 16.5871C16.7161 16.5381 16.8543 16.4969 16.9945 16.4636C17.8358 16.26 18.7095 16.2264 19.5641 16.3647C20.1113 15.3586 20.7481 14.4035 21.4674 13.511C21.6081 13.1857 21.7612 12.8604 21.9226 12.5433H21.6868H21.0041C20.4579 12.5433 19.9117 12.568 19.3821 12.5968C18.1407 12.6627 16.8991 12.778 15.6826 12.9633L14.8758 13.0951H14.8178C14.0117 13.2388 13.2136 13.4229 12.4262 13.6469L11.9584 13.8281ZM10.6053 12.5927C9.99912 12.8197 9.40661 13.0809 8.83034 13.3751C8.40285 13.6092 7.98845 13.8663 7.58896 14.1451C7.27819 14.3706 6.97976 14.6126 6.69511 14.8699C6.45908 15.0925 6.23526 15.3276 6.02471 15.5741C5.87161 15.7718 5.72262 15.9859 5.58607 16.1794C5.44952 16.373 5.34189 16.5912 5.2343 16.8095C5.12672 17.0278 5.05643 17.2213 4.98195 17.4395C4.90746 17.6578 4.85784 17.8925 4.80818 18.1231C4.75853 18.3537 4.75846 18.5102 4.74191 18.7037C4.74191 18.9591 4.74191 19.2102 4.74191 19.4656C4.74191 19.7209 4.79984 19.9556 4.84536 20.1986C4.91571 20.5074 4.99861 20.8039 5.09792 21.1045C5.23362 21.4651 5.38816 21.8184 5.56122 22.1628C5.77225 22.5499 6.00394 22.9247 6.25222 23.2911C6.6048 23.7711 6.98339 24.2316 7.38611 24.6707C7.88029 25.1926 8.40391 25.6862 8.9544 26.149C9.69741 26.7569 10.4738 27.3233 11.28 27.8456C12.3329 28.5068 13.4244 29.105 14.5489 29.6369L14.9338 29.8098L15.1076 29.2951L14.7724 29.1139C14.4827 28.9575 14.1889 28.7927 13.9033 28.628C13.3296 28.2986 12.7655 27.9513 12.211 27.5861C11.1042 26.8716 10.0554 26.0716 9.07442 25.1936L9.04532 25.1648H9.02067C8.05543 24.3116 7.21919 23.3241 6.53791 22.2328C6.20948 21.6874 5.95341 21.1019 5.7764 20.4909C5.60869 19.8897 5.55541 19.2627 5.6192 18.642C5.68661 18.0544 5.8709 17.4861 6.1613 16.9701C6.45155 16.4628 6.81857 16.0031 7.24952 15.607C7.63084 15.2525 8.04669 14.9366 8.4909 14.664C9.49736 14.049 10.5795 13.566 11.7103 13.2269C12.6775 12.9261 13.6629 12.6868 14.6606 12.5103C15.8752 12.294 17.1004 12.1414 18.331 12.0532L19.3116 11.9915C19.8619 11.9626 20.4122 11.942 20.9667 11.9338H21.662H22.0095C22.0833 11.9365 22.1544 11.9624 22.2123 12.008C22.3075 11.835 22.411 11.662 22.5144 11.4932C21.9061 11.4314 21.3103 11.3862 20.7475 11.3573C19.3134 11.2847 17.8762 11.3012 16.4441 11.4068C15.3563 11.5021 14.2746 11.6574 13.2041 11.8721C12.7282 11.9791 12.2523 12.0986 11.7847 12.2345C11.3874 12.3415 10.9943 12.465 10.6053 12.6009V12.5927ZM16.8122 27.3597C16.7833 27.442 16.7544 27.5285 16.7296 27.6109C16.4523 28.4633 16.1668 29.3157 15.902 30.1722V30.2052C15.4386 31.6135 14.9737 33.0246 14.5075 34.4384C14.164 35.4679 13.8248 36.4974 13.4855 37.531L13.4607 37.6134C13.4151 37.7493 13.3695 37.8811 13.3281 38.0252C13.1874 38.437 13.0509 38.8488 12.9143 39.2606C12.5626 40.3148 12.2151 41.3648 11.8758 42.419C11.8363 42.5554 11.8465 42.7012 11.9047 42.8308L11.7806 43.1891L11.6938 43.4402C11.6924 43.4498 11.6924 43.4595 11.6938 43.4691C11.6689 43.5309 11.6482 43.5926 11.6275 43.6544C11.6572 43.6969 11.6822 43.7425 11.702 43.7903C11.8676 44.1733 12.0371 44.5562 12.2068 44.9392L12.84 43.0614C12.951 42.9821 13.0335 42.8696 13.0758 42.7402C13.302 42.0319 13.5338 41.3236 13.771 40.6153C13.8041 40.5083 13.8413 40.3971 13.8785 40.2901C14.0233 39.8536 14.164 39.4212 14.2923 38.9888C14.4206 38.5564 14.5447 38.2228 14.6729 37.8398C15.0123 36.8131 15.3503 35.7864 15.6868 34.7596C16.1558 33.3513 16.6207 31.9429 17.0814 30.5346V30.5099C17.0831 30.4935 17.0831 30.4769 17.0814 30.4605L17.5655 28.9986C17.5655 28.9533 17.5944 28.908 17.6109 28.8627C17.673 28.6774 17.735 28.488 17.793 28.3027C17.8509 28.1174 17.8964 28.0103 17.9419 27.8621L18.0081 27.6603C18.0324 27.5821 18.0411 27.5 18.0334 27.4185C18.0257 27.3371 18.0019 27.258 17.9635 27.1857C17.9251 27.1134 17.8727 27.0494 17.8093 26.9973C17.746 26.9451 17.6729 26.906 17.5944 26.882C17.5207 26.8596 17.4436 26.8512 17.3668 26.8573C17.3668 26.7997 17.3668 26.742 17.3668 26.6843L17.3048 26.8655H17.2468C17.1334 26.8999 17.0317 26.9652 16.9535 27.054C16.8752 27.1427 16.8234 27.2515 16.8039 27.3679L16.8122 27.3597ZM34.4316 51.3632C35.6523 51.5403 36.5006 49.8725 35.582 49.0118C35.3275 48.7727 34.9927 48.6362 34.6427 48.6289C34.7804 48.8226 34.8624 49.05 34.8799 49.2867C34.8974 49.5234 34.8498 49.7603 34.7421 49.9721C34.6345 50.1838 34.4709 50.3623 34.2689 50.4885C34.0669 50.6146 33.8341 50.6835 33.5957 50.6879H33.5254H33.6123H33.4262C33.5261 50.8723 33.6686 51.0305 33.842 51.1493C34.0154 51.2682 34.2145 51.3443 34.4233 51.3714L34.4316 51.3632ZM5.97925 50.3872C5.72891 50.4921 5.48441 50.6104 5.24683 50.7414L5.21369 50.7661C5.02696 50.8726 4.84737 50.9909 4.67584 51.1202C4.55294 51.2151 4.43547 51.3169 4.32408 51.425C4.2358 51.5156 4.153 51.6103 4.07576 51.7091C4.00956 51.7997 3.94741 51.8903 3.88948 51.985C3.83154 52.0797 3.80266 52.158 3.76542 52.2444C3.72898 52.3325 3.69994 52.4234 3.67854 52.5162C3.65785 52.6027 3.64549 52.6851 3.63308 52.7674C3.62066 52.8498 3.63308 52.9362 3.63308 53.0186C3.63379 53.1178 3.64062 53.2168 3.65369 53.3151C3.65369 53.414 3.69513 53.5169 3.71996 53.6157C3.756 53.7474 3.80015 53.8766 3.8523 54.0028C3.91704 54.155 3.99037 54.3035 4.07172 54.4476C4.18988 54.6462 4.31819 54.8386 4.45642 55.024C4.68084 55.3129 4.92266 55.5879 5.18056 55.8476C5.54512 56.2011 5.93066 56.5325 6.33506 56.8401C7.03836 57.3692 7.77651 57.8507 8.54465 58.2814C9.69504 58.9224 10.8851 59.4904 12.1076 59.9821L12.3516 60.0809C13.604 60.5751 14.8799 61.0116 16.1792 61.3904C16.7089 61.5428 17.2426 61.6869 17.7515 61.8022H17.8012H17.8344C19.1089 62.1234 20.3943 62.398 21.6909 62.6258C22.386 62.7411 23.0895 62.8441 23.7598 62.9223H23.8924C25.1338 63.0664 26.3959 63.157 27.6579 63.1817C27.9683 63.1817 28.2786 63.1817 28.5807 63.1817H28.6179C29.6655 63.1722 30.7115 63.0993 31.7502 62.9635L32.164 62.9017C31.1543 61.9628 30.1572 61.0074 29.1848 60.0191C29.1625 60.0351 29.1371 60.0464 29.1102 60.0521C29.0625 60.0625 29.0131 60.0625 28.9654 60.0521C28.9123 60.0465 28.8598 60.0368 28.8082 60.0232L28.5682 59.9821L28.0426 59.875C27.695 59.8009 27.3517 59.7227 27.0124 59.6362C26.3172 59.4605 25.6276 59.2587 24.9434 59.0308L24.5545 58.899L24.4262 58.8538L24.3476 58.8249H24.3102C23.6523 58.5902 23.0026 58.3225 22.3695 58.0343C21.7255 57.7457 21.0983 57.4213 20.4909 57.0625C19.8968 56.7101 19.342 56.296 18.8357 55.8271C18.5779 55.5895 18.3613 55.3112 18.1944 55.0035C18.1035 54.8487 18.0475 54.676 18.0304 54.4975C18.0132 54.319 18.0352 54.139 18.095 53.9699C18.2312 53.6711 18.4727 53.4324 18.7737 53.2986C19.072 53.1571 19.39 53.0613 19.7171 53.0145C20.3125 52.9247 20.916 52.8985 21.5171 52.9363L21.9723 52.9651C22.2289 52.9857 22.4854 53.0145 22.7419 53.0475L22.589 52.8662C21.811 51.9466 21.0496 51.0159 20.3048 50.0743C19.6469 49.9507 18.9806 49.8354 18.3185 49.7407C17.9047 49.6831 17.5199 49.6295 17.1351 49.5842H17.0937L16.2412 49.4937C15.6454 49.436 15.0496 49.3907 14.4537 49.3619C13.7379 49.3207 13.0219 49.3042 12.3185 49.3125C11.2695 49.3184 10.2219 49.3899 9.18191 49.5266C8.52541 49.6169 7.87469 49.7448 7.23296 49.9096H7.19578L7.0303 49.9549C6.66966 50.0831 6.31604 50.2302 5.97097 50.3955L5.97925 50.3872ZM22.531 65.0842L23.2634 65.1707H23.4495H23.5778H23.7558L24.1116 65.1995H24.2688C24.4817 65.2262 24.6973 65.2262 24.9103 65.1995C26.1099 65.2332 27.3104 65.1988 28.5061 65.0966C29.435 65.0145 30.3581 64.877 31.2703 64.6848C31.944 64.5313 32.6073 64.336 33.2565 64.1L33.4302 64.0341L32.7724 63.4329H32.7475C32.2054 63.54 31.651 63.6141 31.0923 63.6676C30.451 63.7335 29.8095 63.7747 29.164 63.7912C27.9037 63.8248 26.6426 63.7904 25.3861 63.6882C24.8647 63.647 24.3393 63.5935 23.8221 63.5317H23.7475C22.4482 63.3794 21.1571 63.1694 19.8785 62.9099C19.3364 62.8029 18.7944 62.6793 18.2565 62.5517L17.9047 62.4652L17.702 62.4158H17.6606H17.6192C16.3075 62.0822 15.0081 61.6992 13.7336 61.2504C12.4584 60.8041 11.2071 60.2928 9.98464 59.7185C8.77763 59.1537 7.61941 58.4913 6.52134 57.7378C5.97326 57.3642 5.45316 56.9513 4.96538 56.5024C4.46313 56.0426 4.01865 55.5241 3.64136 54.9582C3.27845 54.4199 3.05652 53.7999 2.99582 53.1545C2.95122 52.5365 3.12369 51.9221 3.48397 51.4167C3.85561 50.9097 4.33279 50.4884 4.88274 50.1813C5.56569 49.8027 6.2942 49.5121 7.05091 49.3166C8.25108 49.0055 9.47898 48.8124 10.7171 48.74C11.8701 48.6666 13.0264 48.657 14.1806 48.7112C14.7847 48.736 15.3847 48.7771 15.9806 48.8307C16.2744 48.8554 16.5682 48.8883 16.8579 48.9171H17.0482H17.2177H17.342L17.7806 48.9707L18.6743 49.0983C19.0302 49.1532 19.3861 49.2109 19.7419 49.2713C19.3529 48.7648 18.9641 48.2583 18.5834 47.7435C17.9379 47.6488 17.2964 47.5582 16.6467 47.4841C15.8978 47.4017 15.1447 47.3441 14.4578 47.3111H13.7959C13.6138 47.3111 13.4317 47.2864 13.2538 47.2782H13.1586C12.8814 47.2782 12.6041 47.2782 12.331 47.2782H11.8055C11.6927 47.288 11.5814 47.3114 11.4743 47.3482C11.0854 47.3482 10.6964 47.3935 10.3116 47.4264C9.38154 47.5101 8.45724 47.6476 7.5433 47.8382C6.86734 47.9917 6.20138 48.1856 5.54889 48.4189C5.08335 48.595 4.62874 48.7985 4.1875 49.0283C3.87082 49.202 3.56405 49.3931 3.26879 49.6007C3.06603 49.7531 2.85502 49.9137 2.68123 50.0825C2.50744 50.2513 2.35023 50.4202 2.19713 50.6014C2.04402 50.7826 1.99024 50.8773 1.89507 51.0132C1.79989 51.1491 1.73366 51.2932 1.66332 51.425C1.59297 51.5567 1.55154 51.6967 1.50188 51.8368C1.46072 51.9723 1.4262 52.1097 1.39843 52.2486C1.3965 52.2567 1.3965 52.2652 1.39843 52.2733C1.37774 52.4051 1.36125 52.5368 1.35297 52.6851C1.34264 52.8867 1.34264 53.0888 1.35297 53.2904C1.35297 53.4675 1.40261 53.6404 1.43985 53.8134C1.47709 53.9863 1.55984 54.2499 1.63847 54.464C1.73118 54.7019 1.83757 54.9343 1.95709 55.16V55.1929C2.12811 55.4986 2.3146 55.7955 2.51575 56.0824C2.81117 56.4788 3.12884 56.8583 3.4674 57.2189C3.90768 57.6688 4.37193 58.0949 4.85789 58.4955C5.56563 59.0613 6.30616 59.5852 7.07576 60.0644C8.10519 60.6874 9.16901 61.2525 10.2621 61.7569C11.6947 62.3943 13.1649 62.9444 14.6647 63.4041C16.3057 63.9021 17.9749 64.3036 19.6633 64.6065C20.5612 64.7589 21.4676 64.8824 22.3738 64.9771V64.9524L22.531 65.0842ZM16.3738 36.6127L15.0744 40.4547L15.4634 41.0724C16.142 42.1431 16.8414 43.1932 17.5117 44.165C18.7448 45.9522 20.0343 47.6969 21.3805 49.399C22.7626 51.1491 24.2069 52.8498 25.6924 54.5093C28.8756 58.0429 32.2661 61.3857 35.8467 64.5201L36.4219 65.0183C37.5088 65.9572 38.6123 66.8782 39.7323 67.7814C40.6799 65.9242 41.6357 64.0753 42.5791 62.214L41.5986 61.4769C37.904 58.6994 34.4188 55.6563 31.1709 52.3721C27.8514 49.0349 24.9172 45.3387 22.4233 41.3525C21.1967 39.3701 20.1486 37.2838 19.2909 35.1179C18.82 33.924 18.4221 32.7029 18.0993 31.4611C17.5241 33.166 16.9531 34.8832 16.3738 36.6127ZM36.8026 76.3839L36.1116 77.7346L35.8138 78.1999L35.6564 78.4428C35.5571 78.6034 35.4619 78.764 35.3709 78.9288C35.2799 79.0935 35.2592 79.1347 35.2054 79.2417L35.1557 79.3323C35.0564 79.5217 34.9571 79.7112 34.8536 79.8965C34.7859 80.0225 34.7627 80.1675 34.7876 80.3083L34.473 80.926C34.5475 81.1648 34.3944 81.3954 34.3695 81.6301C34.3695 82.1572 34.7213 82.9355 35.342 82.919C35.4723 82.8903 35.6084 82.9033 35.7309 82.9561C35.8965 82.639 36.0619 82.3219 36.2233 82.0049C36.2971 81.9499 36.3627 81.8848 36.4179 81.8113C36.6159 81.5342 36.797 81.2454 36.96 80.9466C36.9712 80.931 36.9808 80.9145 36.9889 80.8972L37.0509 80.7901L37.1129 80.6789L37.3116 80.3453L37.5227 79.9953L37.5764 79.9047V79.8718C37.7315 79.6061 37.8697 79.3311 37.9902 79.0482C38.2675 78.4264 38.5861 77.8128 38.9213 77.2363L38.8798 77.3063C39.1943 76.7668 39.4758 76.2191 39.7448 75.6591C39.8731 75.3791 40.0096 75.1073 40.1586 74.8355C40.3076 74.5637 40.4483 74.329 40.5724 74.0654C40.8538 73.4848 41.0895 72.8918 41.3709 72.3112C41.5612 71.9323 41.7557 71.5494 41.9213 71.1582V71.1211C41.9626 71.0141 42.0082 70.9111 42.0496 70.8082C42.182 70.4952 42.3102 70.1864 42.4385 69.8734L42.5088 69.9269L42.7157 69.5151L44.0648 66.929C44.1163 66.8777 44.1582 66.8178 44.1888 66.752C44.2147 66.7014 44.2328 66.6473 44.2426 66.5914V66.5625L44.9833 65.146C45.1447 64.8413 45.2977 64.5324 45.4591 64.2277C44.8426 63.8159 44.2179 63.3712 43.6261 62.9347C42.8896 64.3842 42.1476 65.835 41.4 67.2873C41.3642 67.3212 41.3335 67.36 41.3089 67.4026C41.1723 67.6428 41.0519 67.8918 40.9488 68.1479C40.9157 68.2179 40.8826 68.288 40.8536 68.358L40.7502 68.5556C40.6881 68.6956 40.6219 68.8356 40.5516 68.9674C40.4233 69.2268 40.2826 69.4822 40.1378 69.7375C39.0399 71.9667 37.9281 74.178 36.8026 76.3715V76.3839ZM35.6275 3.70615C34.3325 4.13627 33.0653 4.64514 31.833 5.22983C30.8599 5.70294 29.9161 6.23373 29.0068 6.81935C28.3171 7.27132 27.654 7.76213 27.0207 8.28943C26.4139 8.80473 25.8376 9.35472 25.295 9.93661C24.8525 10.4279 24.4381 10.9434 24.0536 11.4808C23.6824 12.0195 23.3452 12.5807 23.044 13.161L22.9322 13.3875C22.953 13.478 22.953 13.572 22.9322 13.6626C22.9115 13.7531 22.8704 13.8379 22.8122 13.9104L22.5599 14.2152C22.4771 14.4073 22.3986 14.605 22.3241 14.8082C22.1078 15.4202 21.928 16.0445 21.786 16.6777C21.6409 17.3709 21.5388 18.0722 21.4799 18.7778C21.4275 19.54 21.4205 20.3045 21.4591 21.0674C21.5212 21.9726 21.6374 22.8733 21.8068 23.7647C22.0137 24.7756 22.279 25.7738 22.6013 26.7544C23.0402 28.0403 23.5569 29.2985 24.1488 30.5222C24.9252 32.0823 25.7943 33.5948 26.7515 35.052C28.0222 36.9578 29.4038 38.788 30.8895 40.533C30.9681 40.6236 31.0592 40.7142 31.1295 40.813L31.1669 40.8583L31.4481 41.1795C31.6178 41.373 31.7875 41.5707 31.9613 41.7601C32.342 42.1719 32.731 42.6125 33.1241 43.0285C34.6593 44.6756 36.2646 46.2199 37.924 47.727C41.3021 50.7519 44.8662 53.5644 48.5957 56.1482C52.4447 58.8062 56.428 61.2664 60.5296 63.5194C61.68 64.1535 62.8385 64.7548 63.9889 65.3642H64.022C66.0993 66.4294 68.1985 67.4507 70.3198 68.428C72.5005 69.4286 74.706 70.3676 76.9405 71.2694C78.8274 72.0353 80.7309 72.7518 82.6096 73.4313H82.6552C87.2697 75.0861 91.9653 76.5072 96.7242 77.6893C98.1766 78.0475 99.6205 78.3852 101.011 78.6817C103.349 79.1717 105.699 79.6082 108.066 79.9706C110.433 80.333 112.812 80.6171 115.196 80.823L116.127 80.8972C117.993 81.0331 119.851 81.1236 121.73 81.1442C123.608 81.1648 125.359 81.1442 127.175 81.0207C129.675 80.8673 132.162 80.5607 134.623 80.1024C135.554 79.9171 136.477 79.6906 137.396 79.4764C138.315 79.2623 139.158 78.9823 139.945 78.7229C141.215 78.2983 142.459 77.7977 143.669 77.2239C144.59 76.7721 145.487 76.2717 146.354 75.725C147.108 75.23 147.833 74.6939 148.527 74.119C149.09 73.6311 149.626 73.1129 150.132 72.5666C150.599 72.0438 151.035 71.4938 151.436 70.9194L151.514 70.7958C151.48 70.659 151.49 70.5148 151.543 70.384C151.587 70.2879 151.653 70.2033 151.736 70.1368C151.819 70.0704 151.916 70.0239 152.019 70.001C152.148 69.7828 152.272 69.5645 152.387 69.3422C152.673 68.7805 152.926 68.203 153.145 67.6126C153.367 66.9889 153.551 66.3521 153.695 65.706C153.831 65.0437 153.927 64.3741 153.985 63.7006C154.041 62.9139 154.048 62.1244 154.005 61.3369C153.946 60.4428 153.833 59.5531 153.666 58.6725C153.446 57.6053 153.163 56.5521 152.818 55.5182C152.404 54.3255 151.924 53.1568 151.378 52.018C150.964 51.1944 150.529 50.3708 150.066 49.5472C149.602 48.7236 149.151 48.0236 148.667 47.2823C147.418 45.4085 146.059 43.6099 144.596 41.896L144.443 41.719L144.285 41.5336C143.267 40.3641 142.216 39.2194 141.128 38.1158C140.04 37.0122 138.861 35.8838 137.743 34.8626L137.487 34.6319L137.466 34.6114L137.433 34.5825C134.075 31.5785 130.53 28.7879 126.819 26.2272C122.777 23.4329 118.584 20.8595 114.261 18.5185C113.276 17.9872 112.287 17.4643 111.31 16.9619H111.281C109.055 15.8226 106.804 14.7354 104.528 13.7004C102.203 12.6462 99.8522 11.6415 97.4936 10.7149C96.0591 10.1466 94.6151 9.59758 93.1613 9.06773L92.2965 8.75889C89.9627 7.9353 87.6165 7.16525 85.262 6.45697C82.9076 5.74868 80.3833 5.07331 77.9213 4.47621C76.7585 4.19207 75.5915 3.93264 74.5115 3.70203C69.7031 2.69783 64.8354 1.99913 59.9378 1.61013L59.4786 1.57308C55.7974 1.28365 52.101 1.23684 48.4137 1.43304C45.8977 1.58077 43.3935 1.88475 40.9157 2.34314C39.5874 2.60257 38.2676 2.91139 36.9683 3.29024C36.5255 3.40966 36.0744 3.54971 35.6275 3.69384V3.70615ZM86.3794 92.0239H86.4165C86.5241 92.0239 86.6314 92.0733 86.739 92.1021C86.7925 92.1565 86.835 92.2209 86.8635 92.2915C89.76 93.1151 92.6563 93.8481 95.5984 94.4575C96.3929 94.6264 97.1875 94.7829 97.9199 94.9229L98.9504 95.1082L102.149 87.5476L102.376 87.0041C102.387 86.9776 102.401 86.9527 102.418 86.9299C101.061 86.7213 99.7073 86.4907 98.3584 86.2381L97.4649 86.0693L97.237 86.024L97.0883 85.9952H97.022L96.3391 85.8593C95.7515 85.7398 95.1639 85.6163 94.5805 85.4886C92.1722 84.967 89.778 84.3741 87.3973 83.7097C84.8856 83.0179 82.3904 82.252 79.949 81.4201C77.6318 80.6336 75.3267 79.7977 73.0467 78.8958C70.7667 77.994 68.5778 77.0674 66.3805 76.075C62.0112 74.0968 57.7464 71.8977 53.6026 69.4863C51.4923 68.2509 49.4233 66.962 47.3957 65.6154L46.5681 65.0636C46.3695 65.4383 46.1791 65.8172 45.9846 66.1919L45.0413 67.9091L43.5641 70.7382C44.9434 71.7731 46.3461 72.7793 47.7724 73.7566C48.4924 74.2549 49.2205 74.7408 49.9488 75.2267C53.8275 77.7806 57.8325 80.139 61.9488 82.2931C63.0881 82.8861 64.2331 83.4626 65.3834 84.0227C69.4827 86.0103 73.6756 87.7947 77.9625 89.376C79.2452 89.8454 80.5364 90.2943 81.7488 90.6978C83.1088 91.1453 84.4758 91.5736 85.8496 91.9826C85.8818 91.9608 85.9166 91.9428 85.953 91.9291C86.0818 92.0035 86.232 92.0325 86.3794 92.0115V92.0239ZM51.4219 80.7818C51.1712 81.7463 50.9818 82.7256 50.855 83.7138C50.7297 84.7 50.6661 85.6929 50.6647 86.687V86.7281C50.6706 87.6919 50.7341 88.6544 50.855 89.6107V89.6684C50.9802 90.6013 51.164 91.5256 51.4054 92.4357C51.6476 93.3247 51.9447 94.1979 52.295 95.0505C52.6401 95.8761 53.0397 96.6781 53.4909 97.4513C53.9102 98.1671 54.3761 98.8549 54.8854 99.5103C55.365 100.118 55.8833 100.694 56.4372 101.236C56.9575 101.742 57.5104 102.214 58.0923 102.648C58.6376 103.052 59.2084 103.421 59.8012 103.752C60.3753 104.072 60.9698 104.356 61.5807 104.6H61.6013C62.1721 104.826 62.7567 105.016 63.3516 105.168C63.9696 105.328 64.597 105.449 65.2303 105.531H65.2757C65.8829 105.601 66.4934 105.638 67.1047 105.642C67.7453 105.638 68.3852 105.595 69.0207 105.514C69.7006 105.42 70.3738 105.283 71.0359 105.102C71.7184 104.918 72.3885 104.691 73.0426 104.423L73.1049 104.398H73.1255C73.8064 104.108 74.4695 103.778 75.1116 103.41C75.8085 103.002 76.4787 102.551 77.1183 102.059L77.1559 102.026C77.8274 101.503 78.4643 100.938 79.0632 100.334L79.1129 100.28C79.738 99.6313 80.3211 98.9436 80.859 98.2213V98.1925C81.4166 97.444 81.9268 96.6614 82.3861 95.8494V95.8165C82.853 94.975 83.2675 94.1059 83.6275 93.2139C83.6896 93.0574 83.7518 92.901 83.8097 92.7445C82.7173 92.4109 81.6287 92.0568 80.5487 91.6944C78.1597 90.8873 75.8013 90.0129 73.473 89.0713C73.4192 89.2278 73.3614 89.3842 73.2952 89.5407C73.0885 90.0485 72.8098 90.5241 72.4676 90.9532C72.1607 91.3302 71.8091 91.6689 71.4206 91.9621H71.3915C71.1904 92.1119 70.9806 92.2494 70.7627 92.3739H70.7171C70.3449 92.5822 69.9491 92.7454 69.5379 92.8598C69.288 92.9321 69.0337 92.9885 68.7766 93.0286C68.0896 93.1345 67.3891 93.1192 66.7074 92.9833C66.2785 92.8964 65.8616 92.7581 65.466 92.5715H65.4165C64.8018 92.2981 64.2412 91.9174 63.7614 91.4473C63.5102 91.209 63.2829 90.947 63.0827 90.6649C62.8804 90.3822 62.7018 90.0833 62.5489 89.7713C62.3472 89.3573 62.1971 88.9203 62.102 88.4701C62.0014 88.0271 61.9583 87.5732 61.9737 87.1194V87.0329C62.0058 86.0368 62.2904 85.0651 62.8012 84.208C60.2633 82.9259 57.7695 81.5683 55.3198 80.1353C54.244 79.5066 53.175 78.8629 52.1129 78.204C51.8369 79.0463 51.6063 79.9027 51.4219 80.7695V80.7818ZM47.7392 90.3437C47.852 91.2007 48.0151 92.0505 48.2276 92.8886C48.4536 93.736 48.73 94.5693 49.0552 95.3841C49.3974 96.1846 49.787 96.9643 50.222 97.719C50.6552 98.4422 51.1292 99.1406 51.6414 99.8109C52.1501 100.448 52.6928 101.057 53.2674 101.635C53.8625 102.22 54.4913 102.77 55.1503 103.282C55.8383 103.795 56.5553 104.268 57.2979 104.699C57.999 105.089 58.7199 105.442 59.4578 105.757C60.1845 106.05 60.9263 106.304 61.6799 106.519C62.5171 106.744 63.3668 106.92 64.2247 107.046C65.0484 107.15 65.8772 107.209 66.7074 107.223C67.5218 107.223 68.3355 107.178 69.1447 107.087C70.0215 106.973 70.8907 106.807 71.7475 106.589C72.5381 106.376 73.3158 106.119 74.0771 105.819C74.9146 105.472 75.73 105.075 76.5186 104.629C77.2049 104.222 77.8691 103.779 78.5088 103.303L78.4094 103.278C78.528 103.188 78.6481 103.093 78.7695 102.994L78.9392 102.854C79.0716 102.755 79.1997 102.648 79.3239 102.541C79.448 102.434 79.5142 102.376 79.6011 102.286L79.6342 102.257L79.7377 102.282C79.9653 102.08 80.1888 101.87 80.4081 101.656C81.0474 101.007 81.6459 100.319 82.1998 99.5967C82.6652 98.9768 83.0962 98.3321 83.4909 97.6654C83.8956 96.9636 84.2589 96.239 84.5791 95.4953C84.8915 94.7512 85.1598 93.9894 85.3821 93.2139L84.5213 92.9545C84.3351 93.4569 84.1281 93.9511 83.9047 94.437C83.6812 94.9229 83.3875 95.5241 83.0771 96.0512L83.0234 96.1459C82.5415 97.0132 82.0009 97.847 81.4054 98.6414C80.8402 99.3978 80.225 100.116 79.5639 100.791C78.9416 101.427 78.2768 102.02 77.5737 102.566C76.5587 103.363 75.463 104.053 74.3046 104.625C73.986 104.781 73.6593 104.925 73.3489 105.057C72.7498 105.304 72.1381 105.518 71.516 105.7C70.9199 105.87 70.3145 106.007 69.7032 106.111C68.4915 106.318 67.2597 106.382 66.033 106.301C65.7351 106.28 65.4371 106.251 65.1806 106.218C63.9907 106.081 62.8213 105.805 61.6964 105.395L61.3489 105.263C60.2191 104.816 59.1444 104.241 58.1461 103.55C57.3767 103.019 56.6529 102.425 55.9819 101.775C55.1004 100.918 54.3088 99.9747 53.6192 98.9585C52.9284 97.9415 52.3329 96.8635 51.84 95.7382C51.326 94.5634 50.9189 93.3451 50.6234 92.098C50.4414 91.3403 50.3007 90.5702 50.2097 89.8413C50.2097 89.8084 50.2097 89.7713 50.2097 89.7507C50.0806 88.769 50.0141 87.78 50.0108 86.7899C50.0106 85.5103 50.1103 84.2327 50.3089 82.9684C50.4279 82.2031 50.5867 81.4444 50.7847 80.6954C51.0236 79.7628 51.3194 78.8455 51.6703 77.9487L50.8427 77.4298C50.8435 77.4394 50.8435 77.449 50.8427 77.4586L50.6523 77.751C50.4951 77.9981 50.342 78.2493 50.1931 78.5046C49.7994 79.1976 49.443 79.9111 49.1255 80.6418C48.8064 81.4043 48.5302 82.1838 48.2979 82.9767C48.086 83.7659 47.9174 84.566 47.793 85.3734C47.6895 86.1354 47.6274 86.9025 47.6069 87.6712L47.6564 87.7041C47.6564 87.7906 47.6564 87.8729 47.6564 87.9594C47.6564 88.0459 47.6564 88.2065 47.6564 88.33C47.6501 88.6503 47.6627 88.9707 47.6938 89.2895L47.6564 89.2648C47.6647 89.5901 47.6978 89.9607 47.7392 90.3313V90.3437ZM147.757 83.1044L146.615 85.4475H146.88C147.182 85.4475 147.488 85.4475 147.79 85.4475C148.415 85.4475 149.032 85.4475 149.657 85.3898H149.967H150.033C151.029 85.3152 152.018 85.1776 152.996 84.978C153.629 84.8517 154.254 84.6853 154.866 84.4798H154.899C155.306 84.3424 155.704 84.1801 156.091 83.9939H156.128C156.413 83.8537 156.689 83.697 156.956 83.5244C157.153 83.3986 157.342 83.2611 157.523 83.1126C157.668 82.983 157.806 82.8456 157.936 82.7008C158.049 82.5703 158.152 82.4327 158.247 82.289C158.328 82.167 158.403 82.0405 158.47 81.9102C158.528 81.7866 158.582 81.6631 158.627 81.5395C158.673 81.416 158.706 81.276 158.735 81.1277C158.759 80.9915 158.776 80.854 158.785 80.7159C158.793 80.5788 158.793 80.4413 158.785 80.3041C158.772 80.1368 158.748 79.9704 158.714 79.8059C158.673 79.6288 158.623 79.4517 158.565 79.2788C158.483 79.0498 158.388 78.8257 158.28 78.6076C158.148 78.3564 158.003 78.1093 157.866 77.8704C157.626 77.5164 157.364 77.1768 157.084 76.8533C156.694 76.4187 156.279 76.0063 155.842 75.6179C155.139 75.0043 154.399 74.4349 153.625 73.9131L153.579 73.8843L152.992 73.4972L152.735 73.3407L152.694 73.3119L152.636 73.2666C152.503 73.5466 152.358 73.8184 152.222 74.0902C151.973 74.5514 151.701 74.9961 151.415 75.4285C151.468 75.5806 151.461 75.747 151.394 75.8938L151.32 76.0503C151.497 76.0924 151.666 76.1589 151.825 76.248C152.132 76.4281 152.377 76.6966 152.528 77.018C152.77 77.599 152.781 78.2499 152.557 78.8382C152.35 79.409 152.011 79.9237 151.568 80.3412C151.149 80.7476 150.638 81.0483 150.078 81.2183L149.921 81.2595C149.601 81.3391 149.267 81.3531 148.941 81.3007H148.903H148.85H148.787C148.407 81.8607 148.064 82.4578 147.757 83.092V83.1044ZM146.131 86.4399C146.826 86.5428 147.529 86.6211 148.233 86.6787C149.304 86.7549 150.38 86.7632 151.452 86.7035C152.27 86.6528 153.084 86.5524 153.889 86.4029C154.534 86.2769 155.172 86.1132 155.797 85.9128C156.288 85.7453 156.769 85.5501 157.237 85.3281C157.58 85.1528 157.915 84.9604 158.238 84.7515C158.496 84.5763 158.743 84.3866 158.979 84.1833C159.172 84.0115 159.355 83.83 159.529 83.6397C159.676 83.4655 159.815 83.2841 159.943 83.0961C160.049 82.9353 160.145 82.769 160.233 82.5979C160.312 82.4332 160.382 82.2684 160.448 82.0954C160.515 81.9225 160.556 81.7455 160.597 81.5643C160.638 81.3831 160.659 81.1854 160.68 80.996C160.701 80.8066 160.68 80.5842 160.68 80.3907C160.663 80.1573 160.634 79.925 160.593 79.6947C160.539 79.4559 160.477 79.2211 160.403 78.9864C160.297 78.691 160.177 78.401 160.043 78.1175C159.865 77.7654 159.666 77.4243 159.447 77.0963C159.193 76.7194 158.916 76.3578 158.619 76.0133L158.528 75.9144C158.136 75.4814 157.722 75.0691 157.287 74.679C156.692 74.1695 156.069 73.6938 155.421 73.2542C154.682 72.7679 153.918 72.3212 153.132 71.9159C153.033 72.1588 152.934 72.4018 152.826 72.6448C152.872 72.6484 152.915 72.6625 152.954 72.6859L153.041 72.7395C153.331 72.9165 153.608 73.1018 153.869 73.2913C154.968 74.0141 155.993 74.8416 156.931 75.762C157.903 76.6733 158.663 77.785 159.157 79.0193C159.386 79.6362 159.47 80.2965 159.405 80.9507C159.332 81.587 159.095 82.1938 158.718 82.7131C158.12 83.4938 157.338 84.1172 156.443 84.5292C156.02 84.7363 155.585 84.9165 155.139 85.0686C154.903 85.151 154.667 85.2251 154.427 85.2951C153.445 85.5725 152.442 85.7709 151.427 85.8881C150.96 85.9458 150.492 85.991 150.041 86.024C148.842 86.1063 147.639 86.1269 146.437 86.0858C146.392 86.0858 146.346 86.0858 146.297 86.0858C146.243 86.1928 146.189 86.3081 146.131 86.4399ZM136.903 94.507L137.557 94.3382L137.789 94.2805V94.3052L138.484 94.1199C138.695 93.7081 138.898 93.2963 139.125 92.8639C139.735 91.6834 140.342 90.5016 140.946 89.3183C142.182 86.9052 143.423 84.4921 144.67 82.079C144.757 81.9061 144.844 81.7331 144.935 81.5601C143.378 82.5724 141.735 83.446 140.023 84.1709C138.476 84.8312 136.888 85.3937 135.269 85.8551C134.685 86.024 134.098 86.1805 133.506 86.3287C131.291 86.8796 129.044 87.2922 126.778 87.5641C122.146 88.1047 117.476 88.2424 112.821 87.9759C111.094 87.888 109.371 87.7508 107.652 87.5641C107.68 87.7024 107.666 87.8459 107.611 87.9759C107.586 88.0294 107.569 88.083 107.545 88.1365C106.527 90.5524 105.508 92.9682 104.487 95.3841L104.263 95.9153L104.872 95.9894C107.291 96.2859 109.717 96.5028 112.15 96.6401C114.186 96.7471 116.226 96.8007 118.266 96.7801C120.306 96.7595 122.433 96.6647 124.506 96.5041C126.261 96.36 128.011 96.1747 129.749 95.9236C131.487 95.6724 133.187 95.3594 134.892 94.997L135.277 94.9146C135.343 94.9248 135.41 94.9248 135.476 94.9146L135.708 94.8447L135.96 94.7746L136.481 94.647L136.903 94.507ZM97.2907 109.089L98.3377 106.618C98.3377 106.56 98.3832 106.498 98.4081 106.441C98.557 106.074 98.7021 105.712 98.8469 105.345H98.8922C99.8329 103.113 100.774 100.88 101.714 98.6455C101.752 98.5631 101.785 98.4767 101.822 98.3902C102.033 97.929 102.236 97.4595 102.426 96.9901C102.476 96.8707 102.521 96.7554 102.563 96.6359C102.574 96.6134 102.584 96.59 102.592 96.5659L102.902 95.7423H102.935C103.583 94.2022 104.234 92.6607 104.888 91.1179C105.368 89.9772 105.852 88.8324 106.332 87.6877C106.34 87.6615 106.351 87.6366 106.365 87.6135C106.365 87.56 106.411 87.5064 106.432 87.457C105.492 87.3458 104.549 87.2264 103.614 87.0905C103.655 87.2466 103.642 87.4123 103.576 87.56L101.292 92.9586C101.212 92.9894 101.139 93.037 101.078 93.098C101.018 93.1591 100.971 93.2323 100.941 93.3127L100.436 94.6346L100.167 95.3264C100.121 95.4376 100.076 95.5488 100.035 95.6559L99.898 95.9894C99.8607 96.0841 99.8193 96.1789 99.7779 96.2736C99.7779 96.2736 99.7779 96.3065 99.7779 96.3189C99.7407 96.4012 99.7076 96.4794 99.6745 96.5618C99.5669 96.8089 99.4551 97.056 99.3516 97.3072C99.1365 97.8055 98.9376 98.312 98.739 98.8144C98.5404 99.3167 98.3253 99.8315 98.1309 100.338C97.8164 101.115 97.506 101.895 97.1998 102.677C96.8564 103.501 96.5089 104.324 96.1613 105.148H96.2356C96.1777 105.3 96.1199 105.448 96.0578 105.597C95.9958 105.745 95.8922 105.984 95.8053 106.177L95.6853 106.408H95.6315L95.4578 106.82L95.3959 106.906C95.3252 106.966 95.2685 107.04 95.2299 107.124C95.1912 107.208 95.1717 107.3 95.1725 107.392C95.1345 107.449 95.1052 107.512 95.0856 107.577C95.0685 107.636 95.0612 107.697 95.0646 107.759C94.8908 108.17 94.7211 108.582 94.5473 108.994C94.7211 109.039 94.8992 109.105 95.0937 109.167C95.7019 109.409 96.3806 109.409 96.9889 109.167H97.0301C97.1097 109.121 97.1989 109.094 97.2907 109.089ZM138.927 96.1212C138.887 96.1918 138.837 96.2558 138.778 96.3106C138.931 96.6771 139.072 97.0518 139.192 97.4307L139.374 97.0724L139.403 97.0066L139.56 96.706C139.585 96.6524 139.614 96.603 139.634 96.5577C139.655 96.5124 139.725 96.3847 139.767 96.2982L139.8 96.2365C139.817 96.1938 139.838 96.1524 139.862 96.113C139.862 96.0759 139.899 96.043 139.916 96.0059V95.9812C139.924 95.958 139.935 95.9359 139.949 95.9153L140.048 95.7135L140.102 95.6106L140.16 95.4953C140.167 95.4761 140.177 95.4581 140.189 95.4417C140.214 95.3841 140.243 95.3305 140.267 95.277C140.289 95.257 140.308 95.235 140.325 95.2112C140.371 95.137 140.404 95.0546 140.445 94.9723C140.487 94.8899 140.52 94.8199 140.561 94.7458C140.652 94.577 140.747 94.4122 140.834 94.2393C140.921 94.0663 141.004 93.9057 141.078 93.7328C141.107 93.671 141.132 93.6051 141.157 93.5392C141.171 93.5098 141.184 93.4796 141.194 93.4487C141.211 93.4189 141.229 93.3901 141.248 93.3622C141.288 93.3328 141.32 93.2942 141.342 93.2497C141.364 93.2053 141.374 93.1562 141.372 93.1068V93.0739L141.468 92.8845C141.477 92.8617 141.488 92.8397 141.501 92.8186C141.526 92.7651 141.554 92.7157 141.579 92.6662C142.456 90.8708 143.332 89.0768 144.207 87.2841C144.277 87.1729 144.347 87.0617 144.409 86.9505C144.476 86.8352 144.542 86.7158 144.604 86.5964L144.699 86.4399L144.795 86.2917C144.823 86.2506 144.849 86.208 144.873 86.164C144.889 86.1248 144.898 86.0829 144.898 86.0405C144.898 85.9981 144.889 85.9561 144.873 85.9169C145.976 83.6411 147.08 81.3625 148.183 79.0811L148.241 78.9699C147.877 79.3158 147.505 79.6453 147.12 79.9665C147.11 80.0211 147.092 80.0739 147.066 80.123V80.1683C147.066 80.1971 147.037 80.23 147.021 80.2589C145.833 82.5937 144.625 84.9121 143.433 87.2594L140.094 93.7575C140.015 93.8975 139.945 94.0416 139.879 94.1693C139.812 94.297 139.742 94.474 139.676 94.6264L139.477 94.9764C139.444 95.0299 139.415 95.0876 139.386 95.1452C139.366 95.1881 139.348 95.2321 139.332 95.277C139.331 95.2948 139.331 95.3127 139.332 95.3305H139.287C139.237 95.5241 139.084 95.8247 138.927 96.1212ZM114.149 98.0607C114.15 98.073 114.15 98.0855 114.149 98.0978C114.356 98.5467 114.583 98.9873 114.823 99.4197L115.072 99.8315C115.079 99.8434 115.086 99.8558 115.092 99.8685C115.528 100.585 116.011 101.273 116.537 101.928C117.073 102.592 117.652 103.222 118.27 103.814C118.725 104.225 119.201 104.637 119.694 105.049L120.074 105.341L120.198 105.428L120.298 105.502L120.488 105.634C121.021 106.004 121.573 106.345 122.143 106.655H122.172C122.757 106.967 123.361 107.242 123.98 107.479L124.039 107.503C124.608 107.719 125.19 107.901 125.781 108.047C126.283 108.168 126.791 108.26 127.303 108.323C127.786 108.375 128.27 108.4 128.756 108.397C129.186 108.387 129.616 108.353 130.043 108.294C130.413 108.237 130.781 108.16 131.143 108.063C131.474 107.97 131.799 107.857 132.116 107.726L132.174 107.701C132.478 107.571 132.774 107.422 133.059 107.256C133.358 107.076 133.645 106.878 133.92 106.663C134.174 106.46 134.414 106.242 134.64 106.008C134.869 105.767 135.084 105.511 135.281 105.242C135.479 104.97 135.659 104.686 135.819 104.39C135.985 104.085 136.131 103.77 136.258 103.447C136.391 103.103 136.503 102.751 136.593 102.393V102.368C136.689 101.961 136.762 101.548 136.812 101.133C136.864 100.673 136.887 100.211 136.883 99.7491C136.872 99.1977 136.826 98.6476 136.746 98.1019C136.658 97.5102 136.533 96.9244 136.374 96.3477L136.262 95.9812C134.288 96.4383 132.294 96.8048 130.287 97.1178C130.373 97.3977 130.414 97.6897 130.407 97.9825C130.409 98.0209 130.409 98.0594 130.407 98.0978C130.409 98.1143 130.409 98.1308 130.407 98.1473C130.351 98.7545 130.109 99.3298 129.712 99.7944C129.171 100.407 128.462 100.849 127.672 101.067C127.341 101.16 127.001 101.22 126.658 101.244C126.003 101.293 125.345 101.22 124.717 101.03C124.393 100.928 124.082 100.79 123.79 100.618C123.487 100.448 123.209 100.237 122.962 99.9921C122.831 99.8644 122.709 99.7267 122.598 99.5803L122.437 99.3332C122.395 99.2612 122.356 99.1869 122.321 99.1108C122.211 98.8919 122.13 98.6592 122.081 98.419C122.057 98.3036 122.04 98.1867 122.031 98.069C122.031 98.0196 122.031 97.9702 122.031 97.9249C119.4 98.0608 116.76 98.0731 114.124 97.9825C114.125 98.0098 114.132 98.0366 114.145 98.0607H114.149ZM118.771 106.708C119.499 107.263 120.261 107.773 121.051 108.236C121.794 108.662 122.56 109.044 123.348 109.381C124.075 109.679 124.818 109.936 125.574 110.151C126.194 110.312 126.815 110.443 127.452 110.542C128.049 110.626 128.65 110.677 129.252 110.695C129.788 110.701 130.324 110.676 130.858 110.62C131.349 110.562 131.837 110.474 132.318 110.357C132.74 110.243 133.154 110.106 133.56 109.945C133.927 109.789 134.286 109.615 134.636 109.422C134.941 109.243 135.237 109.047 135.521 108.837C135.793 108.625 136.053 108.399 136.299 108.158C136.535 107.915 136.759 107.664 136.97 107.4C137.181 107.137 137.317 106.91 137.474 106.655L137.545 106.535V106.515C137.697 106.248 137.835 105.973 137.958 105.691C138.103 105.337 138.229 104.976 138.335 104.608C138.435 104.229 138.514 103.844 138.571 103.455L138.608 103.159C138.631 103.098 138.649 103.037 138.662 102.973C138.662 102.887 138.691 102.796 138.699 102.706C138.699 102.488 138.732 102.294 138.732 102.055C138.732 101.816 138.732 101.512 138.708 101.232C138.706 101.196 138.706 101.16 138.708 101.125C138.706 101.114 138.706 101.102 138.708 101.092C138.708 101.054 138.708 101.022 138.708 100.989C138.706 100.963 138.706 100.936 138.708 100.91C138.708 100.869 138.708 100.828 138.708 100.787C138.708 100.746 138.708 100.7 138.708 100.655L138.683 100.515C138.683 100.515 138.683 100.49 138.683 100.478C138.681 100.452 138.681 100.426 138.683 100.4V100.342V100.297C138.685 100.285 138.685 100.272 138.683 100.26C138.683 100.26 138.683 100.26 138.683 100.231C138.681 100.224 138.681 100.217 138.683 100.21C138.683 100.128 138.645 100.05 138.625 99.9715V99.9262V99.8891C138.623 99.859 138.623 99.8287 138.625 99.7985C138.625 99.7326 138.6 99.6667 138.583 99.605C138.586 99.5789 138.586 99.5528 138.583 99.5268C138.583 99.5268 138.583 99.5267 138.583 99.502L138.559 99.4114C138.557 99.3978 138.557 99.384 138.559 99.3703L138.509 99.2138V99.1891C138.509 99.1643 138.509 99.1355 138.488 99.1067C138.468 99.0779 138.459 98.9955 138.447 98.9379C138.273 98.2785 138.057 97.6307 137.801 96.9983C137.644 96.6195 137.479 96.2489 137.297 95.8824L137.11 95.9277C137.397 96.8674 137.592 97.8329 137.69 98.8102C137.819 100.069 137.739 101.341 137.454 102.574C137.353 102.985 137.227 103.389 137.077 103.785C136.857 104.344 136.58 104.88 136.25 105.382C135.898 105.928 135.481 106.428 135.008 106.873C134.311 107.527 133.503 108.053 132.621 108.426C132.292 108.565 131.954 108.685 131.611 108.784C130.669 109.049 129.693 109.179 128.714 109.171C127.418 109.157 126.132 108.946 124.899 108.545C124.593 108.446 124.287 108.343 124.026 108.24C122.81 107.771 121.651 107.168 120.571 106.441C119.502 105.716 118.506 104.889 117.6 103.97C116.716 103.088 115.921 102.123 115.225 101.087C115.047 100.82 114.873 100.548 114.732 100.309C114.386 99.7358 114.069 99.1447 113.785 98.5384C113.767 98.5039 113.752 98.4681 113.739 98.4314V98.382C113.724 98.3327 113.721 98.2807 113.73 98.23C113.738 98.1793 113.758 98.1312 113.789 98.0896C113.3 98.0896 112.816 98.0484 112.332 98.0196C112.394 98.1966 112.465 98.3737 112.535 98.5508C112.83 99.2682 113.168 99.9668 113.549 100.643C113.986 101.401 114.471 102.132 115.001 102.829C115.092 102.953 115.187 103.072 115.283 103.188C115.302 103.293 115.352 103.391 115.427 103.468L115.523 103.562L115.936 103.974L116.073 104.126C116.074 104.205 116.092 104.282 116.126 104.353C116.159 104.424 116.207 104.487 116.267 104.538L116.826 105L117.443 105.506L117.67 105.695L118.245 106.153H118.183C118.258 106.309 118.51 106.515 118.771 106.717V106.708ZM132.186 111.724C130.893 111.984 129.569 112.057 128.255 111.942C127.559 111.885 126.868 111.783 126.186 111.638C125.545 111.505 124.912 111.334 124.291 111.127C121.75 110.265 119.389 108.946 117.327 107.236C116.955 106.931 116.59 106.614 116.243 106.284C113.123 106.61 109.986 106.783 106.85 106.832C104.466 106.865 102.081 106.816 99.6951 106.684L98.7228 108.994C99.2566 109.875 97.3738 110.822 96.6248 110.851C95.7066 110.933 94.7822 110.792 93.9311 110.439C93.2152 110.209 92.1104 109.097 93.1035 108.533C93.152 108.51 93.2032 108.495 93.2563 108.487L94.2164 106.21L92.64 106.025C88.4097 105.494 84.2155 104.707 80.0811 103.669C79.5639 104.081 79.0221 104.493 78.4676 104.905C77.3414 105.673 76.1409 106.326 74.8841 106.857C74.1338 107.179 73.3639 107.454 72.5791 107.68C72.0495 107.833 71.5157 107.964 70.9737 108.092C69.6558 108.363 68.3139 108.501 66.9683 108.504C66.2997 108.511 65.6311 108.484 64.9654 108.422C64.2578 108.352 63.5503 108.253 62.8509 108.117C62.1736 107.986 61.5036 107.82 60.844 107.619C60.1918 107.423 59.5508 107.192 58.924 106.927C57.6596 106.402 56.451 105.754 55.3158 104.991C54.731 104.596 54.1669 104.173 53.6234 103.723C53.0979 103.282 52.5971 102.813 52.1129 102.323C51.1614 101.359 50.3115 100.301 49.5764 99.1644C48.0948 96.876 47.081 94.3194 46.593 91.6409C46.3917 90.5401 46.2851 89.4242 46.2744 88.3053L46.1792 88.2436C45.7075 87.9141 45.2357 87.5764 44.7681 87.2388L44.7144 87.1976L44.6729 87.1688L44.5572 87.0864L44.5034 87.0452C44.0276 86.7034 43.5558 86.3493 43.084 85.9993C42.1199 85.2745 41.1681 84.5251 40.2247 83.7674C39.3971 83.1085 38.5929 82.4372 37.8122 81.7537C37.4371 82.4702 37.062 83.1881 36.6868 83.9073C36.6733 83.937 36.6581 83.9659 36.6414 83.9939C36.6329 84.0053 36.6259 84.0177 36.6205 84.0309C36.5784 84.1128 36.5201 84.1853 36.449 84.244C36.3779 84.3028 36.2954 84.3465 36.2068 84.3727C36.0558 84.4179 35.8931 84.4047 35.7515 84.3356C35.6873 84.308 35.6296 84.2673 35.582 84.2162C34.0758 84.488 32.9295 82.8326 33.0536 81.4696C33.0452 81.4067 33.0452 81.343 33.0536 81.2801C33.0201 81.1971 33.0046 81.1079 33.0081 81.0184C33.0117 80.929 33.0344 80.8414 33.0744 80.7612C33.0797 80.7481 33.0866 80.7356 33.095 80.7242V80.6871C33.4647 79.9624 33.8344 79.239 34.2041 78.517C30.8886 75.3832 27.7878 72.032 24.9226 68.4856C24.4012 67.8309 23.8799 67.172 23.3709 66.509C22.4109 66.4404 21.4537 66.3374 20.4992 66.2002C17.7869 65.8085 15.1211 65.1463 12.542 64.2236C10.0042 63.3465 7.59102 62.1465 5.3626 60.6533C4.43698 60.025 3.56878 59.3167 2.76811 58.5367C1.98068 57.7802 1.30881 56.9131 0.773702 55.9629C0.460186 55.4025 0.227589 54.8008 0.0827002 54.1758C-0.0618449 53.5224 -0.0828527 52.8478 0.0206716 52.1868C0.135666 51.5401 0.379019 50.9228 0.736526 50.3708C1.11513 49.802 1.57977 49.295 2.11429 48.8677C2.62781 48.4637 3.18258 48.1145 3.76946 47.8259C4.32336 47.5487 4.89755 47.3134 5.48686 47.1217C7.3224 46.5424 9.22755 46.21 11.1517 46.1334C11.0399 45.8822 10.9241 45.631 10.8165 45.3798C10.6675 45.0463 10.5227 44.7127 10.3778 44.3792C10.3259 44.2564 10.3187 44.1196 10.3572 43.9921C10.3002 43.9094 10.2626 43.815 10.2475 43.7158C10.2325 43.6167 10.2404 43.5154 10.2703 43.4197C10.2952 43.3373 10.324 43.255 10.353 43.1685C10.9323 41.4719 11.5102 39.7739 12.0867 38.0746C12.1612 37.8811 12.2358 37.6875 12.3062 37.4898C12.3434 37.391 12.3765 37.2963 12.4096 37.1975L12.4591 37.0492L12.5088 36.9009C12.5626 36.7445 12.6123 36.588 12.662 36.4274C12.662 36.378 12.695 36.3286 12.7157 36.2751C13.2978 34.5592 13.8827 32.8393 14.4703 31.1153L14.1434 30.967L14.0771 30.9299L13.5724 30.6952C12.9848 30.407 12.4014 30.1022 11.8303 29.781C10.643 29.1159 9.511 28.3571 8.44544 27.512C7.37234 26.6646 6.40047 25.6974 5.54889 24.6295C5.10693 24.0741 4.71645 23.48 4.38207 22.8546C4.0576 22.2561 3.80471 21.6217 3.62883 20.9645C3.43856 20.2713 3.35206 19.5539 3.37223 18.8355C3.40176 18.1426 3.54142 17.4589 3.78603 16.8095C4.03662 16.1611 4.378 15.5511 4.7999 14.9976C5.22431 14.4552 5.70884 13.962 6.24414 13.5275C6.76059 13.1073 7.31463 12.7352 7.89931 12.4156C8.50833 12.0813 9.13846 11.7869 9.78603 11.5344C11.0553 11.0464 12.3711 10.6877 13.713 10.4637C16.4124 10.0111 19.1593 9.90734 21.8854 10.1549C22.3572 10.1961 22.8288 10.2413 23.3006 10.299C24.5457 8.67105 26.0431 7.25048 27.7365 6.09046C29.6298 4.79815 31.6789 3.74808 33.8357 2.96495C35.8911 2.20475 38.004 1.60848 40.1544 1.18185C44.7594 0.306281 49.4455 -0.0761298 54.1324 0.0411689C56.5283 0.0782304 58.924 0.226477 61.3116 0.452964C63.6991 0.679451 66.0743 0.9801 68.4412 1.36719C73.3734 2.17464 78.257 3.25381 83.069 4.59977C84.6828 5.04725 86.2869 5.52493 87.8814 6.03281C89.4759 6.54069 91.0578 7.07052 92.6275 7.62233C97.4068 9.32716 102.12 11.2297 106.696 13.3875C111.245 15.5118 115.682 17.8634 119.992 20.4333C124.168 22.9273 128.2 25.6522 132.07 28.5951C134.294 30.2999 136.443 32.0926 138.517 33.9731C140.895 36.105 143.134 38.3855 145.22 40.8007L145.436 41.0519C146.996 42.8655 148.439 44.776 149.756 46.7717C151.049 48.7122 152.168 50.7627 153.099 52.8992C154.816 56.9142 155.818 61.3904 154.974 65.7431C154.696 67.1722 154.226 68.5574 153.575 69.861C153.53 69.9475 153.488 70.034 153.443 70.1163C153.522 70.2652 153.545 70.4382 153.505 70.6023L153.48 70.7011C154.076 71.0017 154.663 71.3229 155.234 71.6688C156.386 72.3553 157.462 73.1599 158.445 74.0696C158.776 74.3784 159.099 74.6996 159.389 75.025L159.418 75.0538C160.277 75.9986 160.963 77.0857 161.445 78.2658C161.667 78.8448 161.806 79.4519 161.859 80.0694C161.888 80.4161 161.888 80.7646 161.859 81.1113C161.832 81.4049 161.787 81.6965 161.723 81.9843C161.579 82.5994 161.325 83.1838 160.974 83.7097C160.664 84.1923 160.293 84.6326 159.869 85.0192C158.952 85.8342 157.892 86.4724 156.741 86.9011C156.334 87.0588 155.92 87.1963 155.499 87.3129C153.441 87.8739 151.308 88.1114 149.177 88.0171C147.92 87.9742 146.668 87.8504 145.427 87.6465L144.795 88.9436C144.8 89.0443 144.78 89.1448 144.736 89.236L144.712 89.2895V89.3225L144.687 89.3636L144.658 89.4295L144.633 89.479L144.604 89.5407L144.583 89.5778L144.554 89.6354L144.529 89.6848L144.505 89.726V89.7672L144.037 90.6855V90.7308L143.88 91.0355V91.0643C143.772 91.2702 143.669 91.4761 143.565 91.682C143.558 91.6989 143.55 91.7154 143.541 91.7315L143.429 91.9538C143.429 91.9744 143.429 91.995 143.408 91.995C143.387 91.995 143.379 92.0527 143.375 92.0609C143.317 92.1803 143.251 92.2998 143.193 92.4233C143.135 92.5468 143.098 92.6045 143.061 92.6827C143.059 92.695 143.059 92.7075 143.061 92.7198V92.7445C143.061 92.7816 143.023 92.8186 143.003 92.8515L142.837 93.181L142.705 93.4404C142.676 93.5104 142.639 93.5763 142.606 93.6381L142.192 94.4617L142.142 94.5605L142.105 94.6305C142.096 94.6536 142.085 94.6757 142.072 94.6964L142.035 94.7746L142.001 94.8323C141.987 94.8557 141.974 94.8805 141.964 94.9064C141.953 94.922 141.943 94.9385 141.935 94.9558V94.9805C141.908 95.0273 141.883 95.0754 141.861 95.1246L141.84 95.1617V95.1988L141.803 95.2729L141.778 95.3182C141.753 95.3676 141.728 95.4212 141.699 95.4706L141.658 95.5529L141.6 95.6641L141.559 95.7465V95.7835L141.517 95.8577C141.517 95.8947 141.48 95.9276 141.472 95.9524L141.439 96.0141L141.364 96.1624C141.364 96.1871 141.339 96.2077 141.335 96.22V96.253C141.324 96.2713 141.314 96.2906 141.306 96.3106L141.269 96.3848V96.4094V96.4383C141.211 96.5577 141.149 96.673 141.091 96.7924C141.08 96.8094 141.07 96.8273 141.062 96.846C141.004 96.9613 140.942 97.0807 140.909 97.1507C140.891 97.1782 140.876 97.2071 140.863 97.2372C140.863 97.2372 140.843 97.2783 140.83 97.2948L140.57 97.8096V97.8302L140.238 98.4725V98.5055V98.5384L140.098 98.8144L140.077 98.8555V98.8967C140.274 99.8448 140.367 100.811 140.354 101.779C140.347 102.684 140.229 103.584 140.003 104.46C139.892 104.88 139.753 105.293 139.589 105.695C139.409 106.121 139.201 106.534 138.964 106.931C138.286 108.066 137.364 109.039 136.266 109.78C135.378 110.377 134.4 110.83 133.37 111.123C132.728 111.605 132.459 111.675 132.186 111.732V111.724Z" fill="black"/>
</g>
<defs>
<clipPath id="clip0_401_239">
<rect width="162" height="112" fill="white"/>
</clipPath>
</defs>
</svg>
