<svg width="255" height="154" viewBox="0 0 255 154" fill="none" xmlns="http://www.w3.org/2000/svg">
<g clip-path="url(#clip0_401_132)">
<path d="M110.767 0.0417692C118.587 0.202711 126.401 0.955164 134.223 0.564306C144.187 0.066851 154.161 0.355269 164.125 0.0710089C169.54 -0.0899325 174.929 0.470245 180.335 0.560122C186.187 0.656269 192.038 0.524593 197.852 1.08684C205.122 1.78704 212.43 1.82258 219.71 2.44544C225.84 2.97007 231.729 4.406 237.634 5.89418C239.045 6.24951 240.391 6.85145 241.768 7.33427C242.944 7.7523 244.05 8.13062 245.394 8.22049C247.757 8.38144 249.824 9.89261 251.993 10.8792C253.905 11.7528 254.173 13.2557 254.193 15.2915C254.242 20.2807 253.803 25.2489 253.817 30.2339C253.817 31.9709 253.477 33.7266 251.489 34.7257C249.96 35.4948 250.089 41.6378 251.631 42.2815C254.246 43.3726 254.806 45.3729 254.816 47.8685C254.845 55.5143 254.906 63.1608 254.998 70.8079C255.017 72.3818 254.695 73.6777 253.165 74.4657C252.641 74.7332 252.263 75.2704 251.753 75.5797C250.522 76.3321 250.081 77.2246 250.94 78.554C251.625 79.6199 251.548 80.8531 251.567 82.0633C251.636 89.2869 251.303 96.4958 250.829 103.705C250.493 108.83 250.212 113.969 250.973 119.101C251.316 121.415 250.656 123.72 250.61 126.04C250.58 127.574 250.311 129.094 250.915 130.615C251.437 131.926 250.892 132.768 249.613 133.504C245.557 135.83 241.201 137.356 236.767 138.729C230.621 140.631 224.58 142.987 218.325 144.398C207.54 146.833 196.817 149.684 185.704 150.489C180.398 150.871 175.107 151.575 169.836 152.328C161.241 153.555 152.64 154.224 143.94 153.935C137.161 153.709 130.357 153.975 123.58 153.877C115.605 153.76 107.65 153.423 99.7001 152.595C88.4266 151.421 77.19 149.987 65.9903 148.294C59.4515 147.303 53.0067 145.913 46.7291 143.781C39.7075 141.398 33.108 138.138 26.7259 134.396C26.3893 134.221 26.0976 133.97 25.8733 133.664C25.649 133.358 25.4981 133.004 25.4324 132.63C25.075 130.994 23.9424 129.543 24.3374 127.718C24.4273 127.3 24.3082 126.793 23.8233 126.65C22.1996 126.176 22.4942 124.978 22.5987 123.758C22.839 120.93 22.653 118.095 22.6363 115.263C22.6175 111.831 22.6238 108.401 22.5632 104.967C22.4273 97.3193 22.1452 89.6715 22.4629 82.0236C22.5109 80.9033 22.162 80.339 21.1819 79.8353C19.716 79.1128 18.3316 78.2355 17.0525 77.2184C15.9052 76.2757 15.3222 75.0927 15.341 73.6338C15.4475 65.988 15.4351 58.3485 14.8249 50.7195C14.7496 49.781 14.6556 48.8007 14.8249 47.8894C15.1864 45.9748 15.5981 44.0477 18.0159 43.5419C18.8309 43.3705 19.5434 42.7602 20.348 42.4697C21.1526 42.1791 21.3428 41.6336 21.2341 40.8645C20.8559 38.2142 20.9269 35.545 20.9227 32.8821C20.9227 31.6281 20.5319 31.07 19.1589 30.9781C16.5697 30.8067 15.876 29.8055 15.6963 27.2158C15.3953 22.8495 14.8896 18.4998 14.6765 14.1231C14.5908 12.3506 15.5123 11.0255 15.9073 9.47667C16.0097 9.05865 16.459 8.82665 16.8874 8.70542C19.8444 7.86936 22.0763 5.51792 25.2276 4.9724C28.2703 4.44568 31.3067 3.84165 34.3535 3.3212C49.4102 0.754497 64.6111 0.468172 79.8308 0.315591C88.4238 0.229895 97.0169 -0.102447 105.614 0.0459536C107.33 0.0668551 109.048 0.0417692 110.767 0.0417692ZM87.0717 148.547C86.2149 147.523 85.051 148.028 83.7741 147.844C84.787 148.39 85.9353 148.633 87.0822 148.545C87.6527 148.382 88.288 148.839 88.8147 148.373C88.2149 148.181 87.6443 148.371 87.0717 148.547ZM56.0389 138.376C54.5385 136.1 53.0778 133.797 51.523 131.556C50.9065 130.67 50.3255 129.884 51.5062 128.805L47.3267 127.89C49.7697 131.075 51.8636 133.866 54.0349 136.595C54.5824 137.287 54.9669 138.284 56.0933 138.322C56.0055 139.093 56.3022 139.576 57.3011 139.774L56.0389 138.376ZM61.9091 6.04885H56.8414C58.5132 6.11156 60.2059 6.41462 61.8756 6.0363C63.5307 6.17843 65.1315 5.81056 66.7552 5.56602C62.8829 4.42061 59.1004 2.70041 54.8436 4.09245C56.1978 4.77593 57.5875 4.71951 58.9354 4.83446C60.0722 4.94315 61.1484 5.11038 61.9195 6.04885H61.9091ZM205.414 57.7027C205.646 58.081 205.847 58.5053 205.431 58.8397C204.967 59.2139 204.457 59.0926 204.048 58.6955C203.406 58.0684 202.917 57.1195 201.653 57.6839C202.14 59.2013 202.823 60.1168 204.648 60.2485C206.564 60.3843 208.363 60.7877 209.747 58.9944C209.935 58.8154 210.176 58.7024 210.434 58.6725C211.797 58.405 211.521 57.6713 211.011 56.8143C209.861 54.8789 207.92 53.5077 207.203 51.2253C206.641 52.8326 206.856 54.3605 206.934 55.8738C206.992 57.0338 206.53 57.6379 205.404 57.7361C205.649 55.0965 205.625 52.4387 205.331 49.804C205.086 52.4417 204.844 55.0774 205.414 57.7027ZM236.88 39.0544L236.943 38.9916C236.422 38.1263 235.712 38.0867 234.744 38.1974C230.736 38.651 226.761 39.4515 222.72 39.5288C219.182 39.5978 215.6 39.3198 212.392 37.8567C210.848 37.1502 209.655 36.9956 208.075 37.3028C206.938 37.5244 206.679 37.9424 206.695 38.9415C206.737 41.5186 206.695 44.0958 206.748 46.675C206.796 49.0933 206.808 49.2459 209.312 49.5636C211.107 49.7915 211.82 50.5857 212.066 52.2955C212.328 54.2605 213.218 56.0882 214.603 57.5062C215.78 58.6809 216.083 60.0436 215.717 61.4628C215.33 63.0483 215.189 64.6838 215.299 66.312C215.564 71.5583 215.023 76.7794 214.835 82.0111C214.766 83.98 214.626 85.9824 214.196 87.8928C213.642 90.3822 212.457 92.9238 209.884 93.5362C206.509 94.3325 206.202 96.3641 206.06 99.2151C205.611 108.305 205.318 117.389 205.569 126.487C205.632 128.764 205.92 128.916 207.983 128.264C212.733 126.765 217.625 125.904 222.544 125.258C228.077 124.538 233.497 123.119 238.673 121.036C239.948 120.524 240.445 119.797 240.447 118.344C240.447 113.622 240.74 108.901 240.744 104.179C240.744 94.646 240.744 85.117 240.953 75.5839C241.214 63.4757 241.135 51.3591 241.187 39.2467C241.187 38.5925 241.469 37.8734 240.926 37.2861C237.849 37.4052 237.85 37.4052 236.88 39.0544ZM69.5722 96.8762C69.0456 99.3259 69.0309 101.809 69.0309 104.29C69.0309 112.097 69.7916 119.905 69.0017 127.71C68.9118 128.596 69.3235 128.964 70.0946 129.136C71.2649 129.393 72.4414 129.631 73.6012 129.928C82.6899 132.212 92.007 133.464 101.376 133.661C110.055 133.87 118.742 133.782 127.425 133.734C133.784 133.698 140.141 133.46 146.5 133.422C150.795 133.397 155.089 133.422 159.375 133.094C170.419 132.233 181.462 131.366 192.504 130.492C194.47 130.335 196.447 130.216 198.397 129.926C200.453 129.62 200.47 129.524 200.447 127.451C200.416 124.872 200.357 122.295 200.309 119.717C200.186 113.177 201.047 106.677 201.116 100.141C201.126 99.05 201.231 98.0007 200.629 97.033C198.403 97.9798 195.896 98.2871 195.639 101.316C195.58 101.987 194.75 101.962 194.119 101.88C193.198 101.763 193.187 101.14 193.1 100.398C192.56 95.9419 193.077 91.4794 193.031 87.0212C192.939 78.3429 193.133 69.673 193.202 60.9821C193.236 58.4873 192.987 55.9967 192.46 53.5579C192.007 51.5138 192.113 51.2316 193.729 50.0862C194.427 49.5908 195.202 49.6138 195.954 49.687C197.599 49.8458 199.212 49.526 200.842 49.503C202.054 49.4863 202.493 48.9261 202.455 47.7389C202.366 44.9925 202.399 42.2398 202.292 39.4933C202.209 37.2945 201.362 36.8869 199.576 38.0783C199.292 38.2685 199.059 38.5507 198.761 38.7053C194.88 40.7307 190.968 42.5783 186.471 42.9107C177.637 43.5628 168.779 43.5377 159.931 43.9557C153.244 44.2714 146.578 45.0698 139.857 44.7772C132.388 44.4532 124.873 44.7291 117.446 44.0206C108.264 43.1469 99.0899 43.1176 89.9013 42.9504C86.5468 42.8682 83.2131 42.3982 79.9666 41.55C78.8005 41.2511 77.6344 40.9961 76.414 41.0108C75.3386 41.0379 74.2689 40.8483 73.2683 40.4533C72.2678 40.0583 71.3569 39.466 70.5899 38.7116C69.8355 37.9989 69.2295 36.9747 67.5953 36.6486C68.147 40.2186 67.8314 43.5461 67.9108 46.8757C67.9359 47.8999 68.6422 48.1444 69.4614 48.2322C70.6546 48.3618 71.8605 48.1946 73.0558 48.4642C75.3754 48.9867 75.5154 49.1477 75.5635 51.5158C75.7056 58.9881 75.087 66.4479 75.5342 73.9348C75.9292 80.5355 75.7703 87.1696 75.8309 93.7912C75.8435 95.1623 75.8623 96.5543 75.6638 97.9046C75.4235 99.5537 74.6189 99.8212 73.4842 98.6215C72.4309 97.4803 71.3339 96.6735 69.5722 96.8762ZM240.627 12.4802C240.148 11.8407 239.294 11.5731 238.995 11.8658C237.937 12.9108 236.905 12.2566 235.881 12.0455C228.985 10.6263 222.099 9.26348 215.115 8.32291C207.279 7.27783 199.423 6.50032 191.534 6.09901C183.646 5.69771 175.734 6.11157 167.841 5.58903C162.869 5.25879 157.9 5.66635 152.926 5.82938C148.809 5.96524 144.682 5.78756 140.559 5.81264C133.686 5.85653 126.815 6.03841 119.944 6.00078C113.018 5.96525 106.093 7.14616 99.1693 6.03002C98.9975 6.01852 98.825 6.01852 98.6531 6.03002C92.3839 5.87953 86.1251 6.42714 79.8642 6.70095C70.0884 7.11898 60.3083 7.53701 50.5366 8.05955C43.2454 8.4525 35.9355 8.55282 28.682 9.52265C27.301 9.66805 25.9566 10.0573 24.7115 10.6722C27.1043 11.3411 29.1271 11.8845 31.1375 12.4719C36.272 13.9747 41.5674 14.5474 46.8356 15.3186C56.9584 16.8026 67.1062 17.8268 77.346 18.0484C88.7707 18.2929 100.193 18.5563 111.618 18.6253C126.739 18.7172 141.865 18.4539 156.989 19.0433C164.447 19.338 171.935 18.8343 179.407 18.8594C189.294 18.8949 199.162 18.2491 209.044 18.1278C213.504 18.0735 217.991 17.9752 222.379 17.0828C225.656 16.4139 228.874 15.4692 232.13 14.6874C234.968 14.004 237.852 13.5483 240.627 12.4802ZM63.4471 127.438C63.5266 127.085 63.5832 126.727 63.6164 126.366C63.8839 116.751 64.2141 107.137 63.7648 97.5116C63.7292 96.7424 63.8463 95.9043 63.5809 95.2124C63.2152 94.2802 62.1786 94.9763 61.5036 94.6795C61.188 94.5415 60.8768 94.414 60.5549 94.2781C57.3075 92.884 55.9971 90.2735 55.9699 86.8916C55.9093 79.1581 55.8717 71.4245 55.9908 63.691C56.0305 60.9947 56.9334 58.2566 55.8572 55.5791C55.7987 55.437 55.7694 55.161 55.8572 55.1004C57.2698 53.9007 57.508 51.7562 59.5037 50.9536C61.9466 49.9795 63.4972 48.2719 63.2318 45.3227C63.05 43.2744 63.1754 41.201 63.1357 39.138C63.096 37.1544 63.0814 37.1314 61.1985 36.9496C60.1808 36.8492 59.0942 37.0186 58.8183 35.5722C58.7201 35.058 58.2206 35.058 57.7943 35.3423C55.9595 36.5671 53.7402 36.68 51.7132 37.3133C50.0581 37.8296 48.1187 38.814 46.426 37.1043C46.309 36.9851 45.9204 37.0332 45.7093 37.1252C43.5276 38.0824 41.3208 38.0135 39.0638 37.4136C37.0758 36.8827 35.0843 36.3629 33.0893 35.8543C29.6663 34.9848 29.5806 34.9995 29.9379 38.6196C30.8762 48.1277 30.661 57.6776 31.0769 67.2045C31.3506 73.4749 31.2858 79.7453 31.5345 86.0158C31.9044 95.3671 32.5794 104.71 32.7612 114.066C32.8135 116.864 33.9502 118.097 36.1904 118.959C36.4308 119.053 36.6753 119.138 36.9198 119.22C43.5109 121.419 50.0852 123.678 56.7097 125.781C58.8768 126.471 61.0397 127.374 63.4471 127.436V127.438ZM248.743 112.759V78.0293C248.05 78.6229 247.661 79.1246 247.151 79.3629C245.026 80.3557 244.758 82.0801 244.752 84.212C244.731 92.3782 244.875 100.547 244.489 108.709C244.347 111.668 244.405 111.67 247.373 112.596C247.765 112.72 248.116 113.041 248.743 112.759ZM25.2234 115.458C25.9715 114.977 26.4292 114.553 26.9684 114.362C28.6402 113.779 28.9244 112.726 28.8115 110.997C28.2389 102.179 27.7395 93.3522 27.5577 84.5109C27.5577 84.1681 27.5264 83.8232 27.5327 83.4805C27.5473 82.7155 26.9998 82.7782 26.4878 82.705C25.8483 82.6152 25.5223 82.8012 25.4742 83.4826C25.4199 84.2517 25.2653 85.0146 25.2172 85.7817C24.5963 95.664 24.5984 105.576 25.2234 115.458ZM63.1859 92.2361C63.1023 91.2558 62.8076 90.2797 63.0438 89.2472C63.7877 85.9845 64.0887 82.6632 64.3708 79.3211C64.9413 72.4633 64.7197 65.5888 65.0416 58.7289C65.0687 58.1855 64.8995 57.5375 64.2872 57.6065C62.8244 57.7675 61.7022 56.7976 60.3689 56.6032C58.858 56.3817 58.555 56.6409 58.4985 58.1708C58.4191 60.284 58.973 62.4598 57.7651 64.4601C57.5749 64.7757 57.6732 65.3066 57.7254 65.7268C58.312 70.3281 58.445 74.9759 58.1224 79.6032C57.8967 82.8785 58.578 86.1078 58.8643 89.3517C59.069 91.6551 60.58 92.5203 63.1859 92.2361ZM200.756 94.2928C204.468 93.8455 203.985 93.6971 204.434 90.5452C204.484 90.0324 204.49 89.5164 204.453 89.0026C204.315 84.4586 203.952 79.9209 204.069 75.3665C204.081 74.8231 204.265 74.1856 203.588 73.5313C201.849 76.6666 200.157 79.7287 198.249 83.1711C200.265 82.3831 200.468 80.5146 201.703 79.737C202.267 80.1425 202.288 80.5522 202.301 80.9911C202.357 83.1356 201.383 84.9624 200.573 86.8581C200.286 87.5228 199.674 88.1938 200.51 88.9316C201.657 89.9453 201.651 91.099 200.97 92.4033C200.713 92.8987 200.359 93.4714 200.756 94.2928ZM73.2042 74.7896C72.3683 76.9153 71.5323 79.0452 70.6797 81.1646C70.3391 82.0132 70.4478 82.4772 71.3965 82.9412C72.9701 83.7125 73.2063 84.3855 72.7988 86.0304C72.4498 87.4392 71.9629 88.8145 71.5449 90.2107C71.1938 91.4356 70.4541 92.7461 70.6526 93.8831C70.9096 95.3567 72.9743 95.0285 73.9335 96.0109C73.9983 96.0778 74.2344 95.9754 74.5228 95.9315C74.5521 88.8919 73.8186 81.8773 73.2042 74.7896ZM205.774 90.4511L206.317 90.5013C207.082 87.8029 207.878 85.1129 208.589 82.3999C208.755 81.7319 208.765 81.0345 208.618 80.362C207.68 76.1817 207.757 72.0014 208.599 67.842C208.915 66.2764 208.317 65.0161 207.847 63.6617C207.701 63.2436 207.385 63.2102 207.034 63.2625C206.683 63.3147 206.662 63.6074 206.664 63.8519C206.664 64.6148 206.543 65.4237 207.141 66.0507C207.571 66.5022 207.559 66.9871 207.243 67.4511C206.466 68.6133 206.643 69.9238 206.616 71.1988C206.501 77.2017 206.597 83.215 205.78 89.1866C205.746 89.6072 205.741 90.0297 205.763 90.4511H205.774ZM65.5411 94.855C66.016 96.3097 66.2971 97.8207 66.377 99.3488C66.7239 105.111 66.4501 110.845 66.1367 116.605C65.9444 120.121 65.9548 123.649 65.8796 127.171C65.8796 127.618 65.9507 128.076 66.4898 128.141C67.0875 128.214 67.1522 127.735 67.1752 127.305C67.2065 126.703 67.2191 126.101 67.2212 125.499C67.2407 118.532 67.2553 111.571 67.2651 104.618C67.2651 102.299 67.2295 99.9815 67.1585 97.6642C67.1167 96.6421 67.0164 95.6033 65.5305 94.855H65.5411ZM198.031 25.4266C198.268 25.9512 198.658 25.8446 198.94 25.945C200.439 26.503 200.706 28.0163 199.513 29.0802C198.926 29.6027 198.238 29.4982 197.565 29.4063C195.08 29.0994 192.569 29.0601 190.076 29.2892C192.45 30.3343 194.56 30.2632 196.679 30.1775C197.348 30.1524 198.159 30.0061 198.307 30.9592C198.437 31.7953 198.575 32.7108 197.68 33.2709C197.311 33.4821 196.917 33.6477 196.508 33.7642C196.04 33.9126 195.77 34.153 195.896 34.6922C196.456 35.1667 197.035 34.7549 197.586 34.6734C200.815 34.199 202.094 32.9595 202.081 29.3749C202.081 27.9578 201.814 26.4487 203.059 25.0734C201.156 24.9731 199.584 24.8267 198.023 25.4266H198.031ZM42.6353 25.1382C41.5904 24.7808 40.5601 24.346 39.4902 24.0764C35.8331 23.1588 32.153 22.3332 28.498 21.4052C26.3372 20.8575 24.2078 20.1741 22.0575 19.5763C21.5079 19.4237 20.7869 19.0977 20.5194 19.9045C20.1851 20.9015 21.092 20.962 21.7085 21.1773C22.038 21.2752 22.3729 21.3541 22.7115 21.4135C26.5692 22.2496 30.4276 23.0822 34.2867 23.9112C37.0243 24.5049 39.7556 25.1821 42.6269 25.1382H42.6353ZM148.644 144.603C148.757 145.159 148.763 145.422 148.864 145.648C149.491 147.038 149.854 148.678 150.849 149.723C151.695 150.612 153.296 149.724 154.558 149.895C155.235 149.985 155.919 150.016 156.6 150.047C157.559 150.089 158.535 150.33 159.68 149.96C159.02 149.203 158.531 148.624 158.023 148.064C157.478 147.462 156.915 146.879 156.351 146.271C154.31 149.078 152.941 149.163 150.747 146.85C150.107 146.177 149.835 145.192 148.644 144.603ZM109.01 4.56273C103.972 2.15488 99.2508 1.95427 93.9031 2.92828C99.0188 4.4729 103.733 4.94314 109.016 4.56064L109.01 4.56273ZM216.242 33.923C215.132 33.2228 214.294 32.648 213.412 32.1464C211.485 31.0533 209.54 29.9894 207.592 28.9297C207.12 28.6726 206.604 28.5242 206.309 29.1742C205.586 30.7774 206.472 32.4369 208.19 32.7275C208.687 32.809 209.257 33.0139 209.688 32.8613C211.04 32.3847 212.196 32.9595 213.414 33.3232C214.229 33.5552 214.937 34.1404 216.248 33.9209L216.242 33.923ZM230.836 26.3755C230.707 26.0077 230.694 25.8174 230.596 25.7192C229.447 24.5884 227.353 24.2394 227.543 21.9862C227.543 21.8755 227.146 21.5954 226.966 21.6205C224.237 22.0134 221.512 22.4419 218.241 22.9477C219.738 24.0952 220.73 24.8079 221.926 25.1946C223.355 22.5004 223.355 22.5004 225.969 24.0325C227.493 24.9187 228.989 25.8446 230.843 26.3734L230.836 26.3755ZM23.5432 32.9846C23.5432 35.3841 23.5432 37.7438 23.5432 40.1057C23.5432 40.6053 23.815 40.8394 24.3374 40.8666C25.5557 40.9293 26.1304 40.507 26.1492 39.2989C26.1722 38.0219 25.9653 36.7364 26.0489 35.4656C26.1973 33.3441 26.2621 33.3482 23.5496 32.9825L23.5432 32.9846ZM231.16 20.9579C234.261 23.3908 237.628 25.0149 241.555 26.2251C241.084 24.762 240.058 24.4714 239.212 24.0032C238.096 23.3887 236.606 22.9686 236.14 21.842C235.455 20.1845 234.51 20.1908 233.152 20.5879C232.498 20.7485 231.835 20.8713 231.167 20.9558L231.16 20.9579ZM82.1169 37.9988C78.0252 35.453 73.7099 33.5385 69.033 32.4955C73.2982 34.5961 76.9449 38.1263 82.1233 37.9967L82.1169 37.9988ZM131.308 141.984C130.921 141.148 130.52 140.299 130.15 139.444C130.051 139.158 129.862 138.912 129.611 138.744C129.36 138.575 129.06 138.493 128.758 138.51C126.232 138.535 123.693 138.232 120.731 138.633C122.855 140.195 123.837 142.314 125.858 143.719C125.858 142.435 125.306 141.628 125.038 140.744C124.677 139.532 125.107 138.974 126.344 138.863C127.195 138.786 127.789 139.254 128.455 139.659C129.515 140.295 129.964 141.522 131.314 141.982L131.308 141.984ZM110.431 138.43C111.643 140.345 112.159 141.049 113.183 140.822C115.273 140.355 116.945 141.2 118.7 141.952C118.784 141.988 118.966 141.791 119.118 141.693C118.989 140.732 118.403 139.979 117.933 139.175C117.815 138.945 117.635 138.754 117.413 138.622C117.191 138.491 116.937 138.425 116.679 138.433C114.673 138.422 112.659 138.424 110.437 138.424L110.431 138.43ZM160.986 138.127L166.953 144.308L167.387 144.051C166.884 142.646 166.48 141.196 165.853 139.85C164.675 137.291 164.299 137.191 160.993 138.121L160.986 138.127ZM69.1082 67.2714C70.872 66.4729 70.8782 64.0525 73.0098 63.8205C73.1226 63.808 73.2856 63.3837 73.2668 63.1621C73.1268 61.4545 72.9471 59.751 72.7778 58.0455L72.2492 58.0162C71.0518 61.0302 69.7833 64.0316 69.1146 67.2567L69.1082 67.2714ZM58.8413 54.7785C59.0336 54.9499 59.1422 55.1318 59.278 55.1548C61.2779 55.5101 63.3656 55.0628 65.3383 55.8006C65.3981 55.8246 65.4627 55.8343 65.527 55.8291C65.5912 55.8239 65.6534 55.8039 65.7086 55.7707C65.7638 55.7376 65.8106 55.692 65.8453 55.6378C65.8801 55.5835 65.9018 55.5219 65.9088 55.4578C65.9757 55.0398 65.6685 54.8705 65.3425 54.7556C64.6968 54.5298 63.7146 55.3011 63.3907 54.1745C63.1894 53.431 63.2061 52.6452 63.4387 51.9109C63.5976 51.3737 63.7835 50.7257 62.8828 50.3328C61.9195 52.1011 60.1411 53.1817 58.8475 54.7639L58.8413 54.7785ZM99.953 32.7839C97.0921 30.677 95.0818 26.8897 90.0163 27.9411C93.5417 29.9225 96.5279 31.7744 99.953 32.7839ZM103.606 38.7597C102.676 37.6393 101.7 37.0102 100.421 37.7459C99.8047 38.0992 99.092 38.0239 98.4024 37.9549C96.1956 37.7146 93.9428 38.1347 91.7611 37.4178C90.7622 37.0917 90.129 37.5432 89.9493 38.7659L103.606 38.7597ZM152.402 3.82491C151.01 3.03065 150.13 2.7924 149.058 3.17281C147.829 3.61174 146.356 3.76638 145.296 3.14561C142.346 1.41079 139.318 2.5792 136.329 2.48932C141.422 4.1071 146.678 3.45077 152.391 3.82491H152.402ZM110.757 29.448C113.593 31.4274 116.533 33.0912 119.914 33.8143C117.112 31.8099 114.941 28.543 110.757 29.448ZM94.9669 145.094C94.0495 144.124 93.0505 143.213 92.2313 142.168C90.8688 140.424 89.1281 140.077 86.6914 140.416C87.9348 141.835 88.963 143.01 89.9912 144.178C90.8271 143.509 89.7822 142.715 90.4572 142.159C92.4696 142.427 92.4634 145.307 94.9669 145.094ZM46.3321 132.325C44.7689 129.491 44.1148 125.831 39.9687 125.377C42.1316 127.664 43.7032 130.463 46.3321 132.325ZM116.437 38.5235C114.6 37.7146 113.221 37.0604 111.806 36.4981C110.391 35.9359 109.227 34.7696 107.073 34.4268C108.274 35.5617 109.499 36.1741 109.748 37.0603C110.322 39.1045 111.695 38.9791 113.217 38.929C114.136 38.8976 115.064 39.0125 116.437 38.5235ZM33.2189 122.529C35.2208 125.319 36.9532 128.264 39.5717 130.507C38.8674 129.044 37.9772 127.695 37.0933 126.356C36.7819 125.881 36.1215 125.403 36.6544 124.798C37.3858 123.962 37.0452 123.653 36.1968 123.423C35.2271 123.158 34.4414 122.409 33.2189 122.529ZM66.0154 144.684L66.4898 144.713C66.5859 144.598 66.7656 144.484 66.7656 144.366C66.806 140.859 66.8304 137.352 66.8388 133.845C66.8388 133.427 66.4752 133.326 66.0154 133.328V144.684ZM96.8768 139.275C93.6419 137.95 86.8126 137.582 84.1461 138.265C84.1478 138.397 84.1989 138.523 84.289 138.618C84.3792 138.714 84.5019 138.772 84.633 138.782C88.7143 138.955 92.7955 139.108 96.8768 139.269V139.275ZM73.5009 65.6389H72.6943C72.9639 68.4585 71.5366 70.8079 70.5168 73.5961C71.2106 73.1886 71.5763 72.7831 71.9148 72.804C73.3567 72.8959 73.5866 72.1769 73.526 70.9333C73.4299 69.1609 73.5009 67.3947 73.5009 65.6327V65.6389ZM182.051 38.049C185.205 38.5709 188.442 38.0784 191.298 36.6423C188.115 36.5044 185.006 36.8304 182.051 38.0511V38.049ZM78.9155 24.4317L78.9406 23.6124C73.8896 23.163 68.8992 22.1493 63.771 22.3938L78.9155 24.4317ZM129.795 32.1381C126.735 29.4752 124.671 28.7019 122.458 29.5233C124.47 30.8589 126.616 31.6573 128.727 32.5289C128.822 32.574 128.926 32.5996 129.031 32.6044C129.137 32.6093 129.242 32.5931 129.342 32.557C129.441 32.5208 129.532 32.4654 129.61 32.3938C129.688 32.3223 129.75 32.2361 129.795 32.1402V32.1381ZM94.016 140.732C95.6731 141.827 96.6659 143.395 98.5278 143.999C98.6428 140.324 97.6166 139.643 94.016 140.734V140.732ZM195.369 74.8001C196.215 73.6254 196.832 72.8667 196.205 71.9136C195.578 70.9605 195.848 70.1495 196.169 69.2465C196.339 68.7783 196.796 68.2119 196.495 67.8085C195.496 66.5022 196.094 65.2168 196.318 63.8958C196.41 63.3419 196.466 62.6417 195.375 62.765L195.369 74.8001ZM140.2 32.2342C137.816 30.455 135.039 29.277 132.104 28.8001C133.748 30.4868 138.131 32.3596 140.206 32.2363L140.2 32.2342ZM86.0603 29.2307C83.8682 27.2617 81.6823 26.5908 78.7253 26.6222C81.0742 28.3277 82.9173 29.9476 86.0666 29.2328L86.0603 29.2307ZM152.406 32.6564C150.153 29.8661 147.716 28.9652 145.449 30.0145C147.543 31.4065 149.723 32.3722 152.406 32.6564ZM193.329 3.68907C189.486 2.75686 185.553 2.87182 181.6 3.01395C182.72 3.4487 183.898 3.91062 185.021 3.79148C187.781 3.49468 190.521 3.53858 193.329 3.68907ZM75.7119 5.23157C70.5753 3.41732 69.6077 3.26059 66.7991 3.69534C69.637 4.83029 72.7862 5.4155 75.7119 5.23157ZM57.1131 26.9127C58.904 27.5586 60.9289 27.1217 62.7951 28.5263C62.7951 27.0632 62.7742 25.8697 62.8076 24.6846C62.8076 24.3314 62.8933 23.9781 62.4649 23.8757C61.838 23.7273 61.7711 24.1997 61.7335 24.6302C61.5747 26.4069 60.3188 26.7957 58.8622 26.9064C58.2896 26.9503 57.7045 26.9127 57.1131 26.9127ZM162.079 144.001C162.629 145.219 163.293 146.402 163.701 147.667C164.163 149.109 164.997 148.896 166.244 148.48C165.011 146.73 163.824 145.173 162.088 144.001H162.079ZM53.5605 129.725C54.4758 130.691 55.7422 131.063 55.7756 132.442C55.7861 132.843 56.4715 133.157 57.0295 132.977C57.2729 132.903 57.4873 132.754 57.6433 132.553C57.7993 132.352 57.8893 132.107 57.9009 131.853C57.9511 131.359 58.1099 130.764 57.4725 130.559C56.296 130.191 55.1633 129.579 53.5605 129.725ZM76.4537 144.356C75.1998 142.717 74.0839 141.238 72.945 139.774C72.7517 139.497 72.4954 139.269 72.1969 139.11C71.8124 138.945 71.3297 138.901 71.1792 139.463C71.0977 139.77 71.0141 140.299 71.3882 140.358C73.3672 140.631 73.7496 142.333 74.458 143.714C74.8509 144.49 75.2479 145.025 76.4537 144.356ZM247.241 40.112C247.828 39.2467 247.648 38.465 247.709 37.7271C247.751 37.2234 247.742 36.6131 247.099 36.5295C246.764 36.4638 246.417 36.5296 246.129 36.7134C245.841 36.8971 245.636 37.1845 245.554 37.516C245.191 38.6384 245.575 39.2508 247.241 40.1078V40.112ZM111.419 149.613C114.028 149.841 116.631 150.091 119.241 150.275C119.885 150.321 120.579 150.57 121.222 149.832C117.983 149.389 114.736 149.08 111.419 149.609V149.613ZM35.1435 6.29548C32.5731 6.01122 29.9714 5.25041 27.3905 6.25577C29.9609 6.7595 32.5334 7.04583 35.1393 6.29129L35.1435 6.29548ZM114.264 1.86228L114.134 2.16743L118.746 3.46332C119.29 3.6159 119.766 3.67233 119.835 2.89062C119.885 2.32001 119.847 1.86019 119.108 1.86019C117.488 1.86019 115.875 1.8581 114.259 1.8581L114.264 1.86228ZM22.2497 27.3621C24.8159 28.6768 27.6037 29.3749 30.4458 29.8995C27.8733 28.5618 25.213 27.5293 22.2455 27.3495L22.2497 27.3621ZM29.4322 120.464C28.4124 119.65 27.6016 118.86 26.2788 118.637C26.2663 119.784 25.9235 120.754 26.4418 121.962C27.2944 121.07 28.542 121.63 29.428 120.451L29.4322 120.464ZM106.991 141.156C108.308 142.41 109.204 143.622 110.496 144.521C110.987 143.963 111.541 143.476 111.068 142.74C110.212 141.43 109.027 140.738 106.987 141.148L106.991 141.156ZM211.117 81.9338V72.34C209.519 75.4606 210.488 78.5164 211.113 81.9254L211.117 81.9338ZM170.434 142.864C171.301 147.113 171.744 147.516 174.062 146.695L170.434 142.864ZM208.05 4.52094C205.139 4.6568 202.324 3.63681 199.12 3.99631C202.286 4.98495 205.166 5.17933 208.052 4.51257L208.05 4.52094ZM181.689 145.357C180.975 144.061 179.986 143.476 178.887 143.894C178.051 144.214 178.496 145.303 178.275 146.068C179.522 146.174 180.459 145.796 181.692 145.349L181.689 145.357ZM157.565 142.143C156.648 138.361 156.299 138.029 154.239 138.589C155.396 139.818 156.481 140.976 157.568 142.134L157.565 142.143ZM68.6067 141.221C68.6067 142.145 68.5461 143.075 68.6193 143.994C68.7697 145.876 69.6307 146.31 71.3652 145.458C71.8312 145.23 72.3976 145.075 71.9483 144.394C71.6327 143.917 71.3422 143.719 70.7696 144.262C69.9337 145.048 69.6056 144.341 69.5158 143.593C69.4071 142.784 69.5722 141.931 68.6067 141.221ZM218.599 5.69145C215.922 5.00797 213.188 4.74669 209.96 4.90346C213.036 6.40627 215.857 5.52214 218.603 5.69145H218.599ZM144.431 142.644C143.911 141.495 143.43 140.322 142.854 139.2C142.312 138.155 141.6 138.224 140.5 138.968C142.112 140.176 142.793 141.804 144.435 142.644H144.431ZM66.1052 37.562H65.5662C65.7055 40.6276 65.8378 43.6973 65.9632 46.7712C66.8221 43.6924 66.3435 40.6304 66.1094 37.562H66.1052ZM72.4957 50.1928C71.8186 49.5866 71.1249 49.735 70.5335 49.6995C68.3163 49.5741 68.2912 49.6284 68.7405 52.2076L72.4957 50.1928ZM201.979 51.0288C201.331 51.2274 201.3 52.1909 200.57 52.2704C199.883 52.3456 199.419 52.5923 199.67 53.4283C199.92 54.2644 200.541 54.4086 201.275 54.394C202.157 54.3752 202.111 53.6728 202.175 53.1001C202.263 52.448 202.514 51.7625 201.983 51.0372L201.979 51.0288ZM194.828 91.8139C194.828 92.744 194.792 93.6741 194.84 94.6C194.882 95.4361 195.365 95.8646 196.194 95.6451C197.024 95.4256 196.811 94.7443 196.66 94.182C196.389 93.1599 195.246 92.7294 194.828 91.8139ZM39.2666 18.4999C41.0659 19.4802 42.8777 20.6444 45.1952 21.2171C43.722 18.92 41.557 18.6796 39.2666 18.4999ZM200.763 135.705C200.725 135.46 200.892 134.541 199.728 134.614C199.101 134.656 198.52 134.925 198.683 135.699C198.823 136.357 198.55 137.325 199.693 137.413C200.6 137.484 200.863 136.974 200.763 135.705ZM137.41 142.337C135.966 138.537 135.966 138.537 133.83 138.8C134.889 140.017 135.636 141.357 137.41 142.337ZM28.9871 132.513C28.5901 130.858 27.6747 129.543 26.6047 128.322C26.4731 130.241 27.2296 131.675 28.9871 132.505V132.513ZM70.1156 56.3357C71.3318 55.5122 71.7246 54.0888 72.7633 53.2674C72.8761 53.1775 72.8364 52.7866 72.7507 52.586C72.6253 52.2913 72.3181 52.377 72.0819 52.4564C70.3495 52.9455 69.8063 53.953 70.1156 56.3274V56.3357ZM198.863 59.4333C197.774 58.2963 196.915 56.9481 195.651 55.671C194.884 58.8021 197.753 58.3339 198.863 59.4249V59.4333ZM150.5 141.34C149.551 138.247 149.551 138.247 147.744 138.552C148.408 139.7 149.357 140.658 150.5 141.332V141.34ZM66.0613 24.7724C65.0896 27.8324 65.0896 28.5347 65.9736 30.0981C66.3999 28.2755 65.9652 26.5114 66.0613 24.764V24.7724ZM202.142 111.196V120.319C202.531 117.291 202.531 114.225 202.142 111.196ZM84.6978 24.1077C86.3696 25.5708 88.0916 25.7192 90.0309 24.5926L84.6978 24.1077ZM129.024 2.95124C131.224 4.66516 131.224 4.66518 134.006 3.86047C132.407 3.2766 130.721 2.96912 129.019 2.95124H129.024ZM47.2264 6.11988C44.4136 6.45222 41.5339 6.16379 38.6981 6.60063C41.5444 6.78038 44.4094 7.33008 47.2222 6.11988H47.2264ZM155.499 2.30746C156.654 3.31073 157.95 3.31285 159.151 3.64937C159.511 3.74969 159.82 3.61171 159.885 3.19786C159.956 2.72758 159.826 2.32628 159.281 2.31583C158.017 2.28865 156.755 2.30746 155.494 2.30746H155.499ZM49.5712 21.9172C51.22 23.6751 52.3526 23.9802 54.8979 23.5894C53.4267 22.6551 51.6505 22.7094 49.567 21.9172H49.5712ZM245.799 31.5319L245.855 30.9926C244.742 31.3166 243.692 31.3208 242.641 30.8589C242.108 30.6248 241.68 31.0533 241.628 31.6553C241.553 32.5101 242.113 32.3492 242.622 32.2363L245.799 31.5319ZM72.387 24.9521C70.9242 24.695 69.4615 23.907 67.612 24.9375C69.4636 25.7129 70.9326 25.1967 72.3829 24.9563L72.387 24.9521ZM161.914 31.8664C160.067 29.7135 159.615 29.5379 157.469 30.073L161.914 31.8664ZM104.55 25.2573C106.128 25.6043 107.7 26.1122 109.29 25.2573H104.55ZM196.391 141.133C197.887 141.952 198.899 141.495 199.893 141.424C200.368 141.388 200.71 141.035 200.573 140.546C200.42 140.006 199.923 140.1 199.511 140.213C198.635 140.456 197.753 140.73 196.399 141.133H196.391ZM121.521 38.7158C119.818 37.2778 119.818 37.2777 118.144 38.7283C119.308 39.0125 120.351 38.9143 121.53 38.7158H121.521ZM163.615 2.54158C165.337 2.67953 166.984 3.47376 168.938 3.09545C167.116 2.19668 167.116 2.1967 163.624 2.54158H163.615ZM194.663 145.842C196.533 145.997 198.311 145.69 200.069 145.284L199.95 144.686L194.663 145.842ZM230.801 8.25815C228.87 7.27996 226.621 7.58302 224.492 7.142C226.444 8.22051 228.682 7.64783 230.809 8.25815H230.801ZM248.534 125.545C248.631 124.481 249.669 123.455 248.835 122.318C248.806 122.278 248.491 122.359 248.403 122.464C247.542 123.455 248.165 124.481 248.534 125.545ZM173.393 31.07C171.531 30.119 171.531 30.1211 169.895 30.4806C170.89 31.3417 171.813 31.7451 173.389 31.07H173.393ZM204.311 100.333C204.52 98.9162 204.702 97.5994 204.875 96.2805C204.923 95.9085 204.811 95.5866 204.353 95.6305C204.006 95.666 203.688 95.8228 203.883 96.2575C204.441 97.5367 204.085 98.9058 204.307 100.323L204.311 100.333ZM212.67 27.8052C211.282 25.9951 211.283 25.9951 209.703 25.9617C210.426 27.0172 211.546 27.3788 212.662 27.7864L212.67 27.8052ZM64.2976 140.414C63.7752 142.237 63.7919 142.239 64.4418 143.608C64.5985 142.49 64.7845 141.553 64.2976 140.395V140.414ZM134.789 39.0648C133.203 38.3374 132.215 37.6644 130.923 37.8546C131.824 38.676 132.689 39.5894 134.789 39.046V39.0648ZM169.751 137.17C170.9 138.387 171.504 138.573 172.344 138.042C172.522 137.931 172.749 137.58 172.695 137.463C172.256 136.537 171.406 137.066 170.729 136.982C170.497 136.955 170.246 137.07 169.751 137.17ZM27.3926 78.0314C25.7542 80.2198 25.7542 80.2198 27.3926 81.0245V78.0314ZM113.536 145.213C113.681 145.451 113.84 145.681 114.011 145.901C114.429 146.365 114.638 147.171 115.524 146.946C115.66 146.912 115.867 146.755 115.869 146.649C115.896 145.855 115.254 145.533 114.719 145.165C114.45 144.983 114.109 144.918 113.536 145.213ZM122.719 1.99393C125.017 3.22712 125.506 3.28984 127.011 2.52693C125.555 1.8978 124.102 2.29701 122.719 1.99393ZM107.764 139.108C106.477 138.002 105.223 138.251 103.936 138.57C104.565 138.929 105.248 139.183 105.959 139.323C106.431 139.419 106.945 139.565 107.764 139.104V139.108ZM22.9916 9.22796C21.6834 9.59583 20.5132 9.43695 19.439 8.5779C20.5194 10.4131 20.8037 10.4632 22.9916 9.22796ZM55.4789 142.462C54.2251 140.479 54.225 140.479 53.0109 142.105C53.828 142.354 54.5887 142.705 55.4789 142.462ZM225.618 34.3494C225.367 34.116 225.1 33.9009 224.818 33.7057C224.4 33.48 223.953 33.0661 223.485 33.4403C223.292 33.5949 223.207 34.084 223.294 34.3494C223.543 35.1102 224.214 34.849 224.757 34.7947C224.964 34.7717 225.158 34.594 225.618 34.3494ZM25.9883 44.8775C26.6152 44.2881 26.2934 43.6757 26.2599 43.1135C26.2369 42.708 26.1951 42.1394 25.6121 42.2314C25.029 42.3233 24.8305 42.7957 24.8849 43.3977C24.9538 44.1606 25.3112 44.633 25.9883 44.8775ZM76.811 3.57201C79.1098 4.53138 79.2331 4.54184 80.861 3.99004C79.5947 3.68905 78.416 3.20623 76.811 3.57201ZM70.3182 30.861C69.9002 29.9037 69.125 29.7448 68.4374 29.4773C68.0863 29.3414 67.7499 29.4209 67.6015 29.7637C67.5652 29.84 67.5469 29.9237 67.5477 30.0082C67.5486 30.0927 67.5687 30.1759 67.6066 30.2515C67.6445 30.3271 67.6991 30.393 67.7663 30.4443C67.8335 30.4956 67.9115 30.5309 67.9944 30.5475C68.6965 30.7272 69.382 31.1411 70.3182 30.861ZM175.236 2.69625C177.552 3.79357 177.552 3.79357 178.724 2.85092C177.55 2.56666 176.482 2.41616 175.236 2.68579V2.69625ZM145.238 150.06C144.931 149.31 144.722 148.507 143.71 148.908C143.382 149.038 142.92 149.59 143.167 149.93C143.7 150.664 144.465 150.342 145.238 150.06ZM20.2958 70.4129C19.627 71.6001 19.9301 72.4027 20.7555 73.4791C20.7117 72.3002 21.2048 71.3952 20.2958 70.4129ZM179.309 29.216C179.627 29.8243 180.204 29.9288 180.785 29.9434C180.904 29.9335 181.02 29.8965 181.124 29.8354C181.227 29.7742 181.316 29.6904 181.382 29.5902C181.61 29.1721 181.246 28.936 180.927 28.8816C180.371 28.7855 179.748 28.5618 179.309 29.216ZM62.1285 142.189C61.4577 142.216 61.3322 142.705 61.2027 143.2C61.0731 143.696 61.2027 144.015 61.7377 144.068C62.1911 144.114 62.5736 144.022 62.5736 143.441C62.5777 142.974 62.7554 142.423 62.1285 142.189ZM248.626 129.894C248.336 131.102 246.792 131.012 246.315 132.012C247.439 131.686 248.39 131.188 248.631 129.894H248.626ZM17.3952 73.0694C17.2322 73.3265 16.9919 73.5753 16.9062 73.87C16.8066 74.1457 16.8056 74.4474 16.9036 74.7238C17.0015 75.0001 17.1922 75.2339 17.4433 75.3853C17.5096 75.427 17.5845 75.453 17.6623 75.4614C17.7402 75.4697 17.8189 75.4601 17.8925 75.4334C18.5466 74.9631 18.1267 74.4092 17.9637 73.8888C17.8717 73.5941 17.8257 73.2492 17.3952 73.0694ZM22.4921 24.7996C22.4127 23.9342 21.8067 23.7231 21.0794 23.6792C20.7931 23.6604 20.5591 23.8109 20.58 24.0972C20.6469 24.9709 21.3448 25.1047 22.0156 25.2301C22.327 25.3012 22.4608 25.0901 22.4921 24.7996ZM50.1981 141.386C48.612 139.448 48.612 139.448 47.4814 140.447C48.1418 141.041 48.9631 141.079 50.1981 141.388V141.386ZM50.4071 2.86765C49.0383 3.09339 47.6486 2.83627 46.2819 3.14561C47.6527 2.85299 49.0487 3.27105 50.4113 2.86975L50.4071 2.86765ZM243.561 20.0863C243.185 20.1573 242.589 20.1845 242.7 20.7133C242.836 21.3613 243.536 21.5327 244.121 21.5849C244.514 21.6184 244.673 21.2296 244.687 20.868C244.723 20.0716 244.046 20.2472 243.565 20.0884L243.561 20.0863ZM16.9501 48.3743C16.6074 49.1163 16.3378 49.8375 17.065 50.4185C17.3492 50.6443 17.7024 50.3056 17.88 50.0005C18.5153 48.9554 17.6397 48.7485 16.9501 48.3743ZM35.2396 136.202C33.8416 134.304 33.8416 134.304 32.7194 135.205C33.3881 135.715 34.0422 136.221 35.2396 136.204V136.202ZM61.9885 35.4572C61.7273 34.8803 61.9404 34.0694 61.0982 33.9523C60.7931 33.9084 60.4274 34.2867 60.4483 34.6191C60.5047 35.5826 61.2403 35.476 61.9843 35.4593L61.9885 35.4572ZM68.9411 86.0994C68.1533 87.6273 68.147 87.6273 68.4354 89.2974C68.6841 88.1311 69.2337 87.3117 68.9369 86.1015L68.9411 86.0994ZM74.9262 136.861C74.3494 135.688 74.2469 134.708 72.3996 134.72C73.3191 135.55 73.595 136.374 74.922 136.863L74.9262 136.861ZM86.8941 31.4232C86.963 31.7995 87.2682 31.9708 87.5608 32.1004C87.9788 32.2865 88.6182 32.8174 88.8376 32.2384C89.0779 31.6114 88.3695 31.2957 87.7572 31.2184C87.4521 31.1808 87.1178 31.1076 86.89 31.4253L86.8941 31.4232ZM23.2591 55.414C24.2872 55.0273 25.1984 54.5361 24.7741 52.9769C23.9299 53.7147 23.4346 54.442 23.2591 55.414ZM110.454 2.99094C109.965 2.36389 109.424 1.89988 108.717 1.6846C108.552 1.63443 108.239 1.82259 108.107 1.9898C108.07 2.03799 108.045 2.09446 108.035 2.15437C108.024 2.21428 108.028 2.27584 108.047 2.33379C108.065 2.39174 108.098 2.44433 108.141 2.48708C108.184 2.52982 108.237 2.56141 108.295 2.57919C108.989 2.72341 109.608 3.31073 110.452 2.99094H110.454ZM166.081 27.2847C167.237 27.4687 168.422 27.592 169.594 27.2283C168.435 26.9668 167.23 26.9861 166.079 27.2847H166.081ZM20.5549 14.6226C19.882 14.7062 19.9552 15.2497 20.0032 15.7576C20.0367 16.1275 20.254 16.5121 20.6301 16.2655C21.0063 16.0188 21.4932 15.6384 21.4264 15.0804C21.3783 14.6791 20.9603 14.6519 20.5528 14.6226H20.5549ZM31.2691 16.8904L31.0037 17.0033C31.0539 17.0702 31.0872 17.1705 31.1541 17.1998C31.9566 17.5572 32.6462 18.4183 34.2887 17.7244L31.2691 16.8904ZM50.8898 4.52722C49.9808 4.41017 49.0591 3.93363 47.8679 4.91182C49.1385 4.74879 50.0267 5.38627 50.8877 4.52513L50.8898 4.52722ZM206.428 34.6902C206.543 35.1082 206.679 35.5387 207.21 35.4906C207.628 35.453 207.648 35.0413 207.657 34.7215C207.669 34.2261 207.393 33.9293 206.892 33.9628C206.461 33.9962 206.384 34.3181 206.426 34.6902H206.428ZM22.1013 77.2142C21.7001 77.256 21.2027 77.4337 21.232 77.8601C21.2591 78.2363 21.7482 78.462 22.187 78.5038C22.5486 78.5373 22.8432 78.4453 22.8453 78.0043C22.8474 77.5633 22.651 77.2205 22.0993 77.2142H22.1013ZM24.3332 7.24232C23.2884 6.70097 22.7011 7.11062 21.955 7.74393C22.885 7.85053 23.6144 8.04076 24.3332 7.24232ZM244.269 129.485C244.871 128.945 245.13 128.458 244.719 127.886C244.625 127.754 244.175 127.689 244.071 127.785C243.534 128.283 243.832 128.793 244.269 129.48V129.485ZM241.371 134.129C242.474 134.403 243.107 134.039 243.776 132.994C242.589 132.938 241.933 133.253 241.371 134.125V134.129ZM18.9938 61.651C19.0336 62.0857 19.1736 62.4703 19.6898 62.4473C20.1077 62.4264 20.1766 62.0543 20.1787 61.7283C20.1841 61.6461 20.1733 61.5636 20.1468 61.4856C20.1203 61.4076 20.0787 61.3355 20.0243 61.2736C19.97 61.2117 19.904 61.1611 19.8301 61.1247C19.7562 61.0883 19.6758 61.0669 19.5936 61.0615C19.5129 61.0491 19.4304 61.0556 19.3527 61.0807C19.275 61.1057 19.2042 61.1486 19.146 61.2058C19.0877 61.263 19.0436 61.3331 19.0172 61.4104C18.9908 61.4877 18.9828 61.57 18.9938 61.651ZM229.923 133.905C230.155 134.384 230.283 134.693 230.45 134.982C230.617 135.27 230.88 135.655 231.238 135.442C231.823 135.09 231.355 134.716 231.11 134.413C230.901 134.152 230.68 133.866 229.923 133.905ZM138.484 149.418C138.268 149.399 138.054 149.462 137.882 149.594C137.711 149.726 137.595 149.918 137.558 150.131C137.456 150.631 137.878 150.675 138.229 150.635C138.647 150.587 139.176 150.551 139.215 150.045C139.24 149.726 138.843 149.498 138.484 149.414V149.418ZM133.911 150.463C133.475 150.045 133.209 149.475 132.505 149.809C132.365 149.876 132.238 150.338 132.321 150.436C132.748 150.994 133.27 150.846 133.911 150.468V150.463ZM175.707 38.467L175.817 38.5966H178.177L178.158 38.467H175.707ZM143.01 38.837C143.102 39.0335 143.115 39.1359 143.167 39.1651C143.637 39.4348 144.143 39.3365 144.64 39.2822C144.878 39.255 144.952 39.0564 144.755 38.9415C144.325 38.6865 143.859 38.4649 143.328 38.5924C143.259 38.6133 143.211 38.6928 143.012 38.8412L143.01 38.837ZM25.3468 47.4066C24.6237 47.8831 24.2475 48.3263 24.5275 49.039C24.5568 49.1163 24.8494 49.1749 24.9602 49.1205C25.6289 48.8028 25.4784 48.2217 25.3488 47.415L25.3468 47.4066ZM83.1702 4.64219C83.9873 5.51378 84.6831 5.36538 85.3958 5.11247C84.9527 4.65682 84.3154 4.74461 83.7804 4.54186C83.7177 4.52514 83.6279 4.57322 83.1723 4.65056L83.1702 4.64219ZM247.176 22.2914C247.749 21.3383 248.344 20.7886 247.803 19.8417C247.251 20.5252 246.9 21.1251 247.176 22.2914ZM66.0613 33.9628C65.9945 33.8227 65.9339 33.4674 65.7751 33.4151C65.4052 33.2939 65.4407 33.6659 65.4637 33.8708C65.4867 34.107 65.5557 34.4853 65.6936 34.5292C66.0301 34.6233 66.0279 34.293 66.0613 33.9523V33.9628ZM55.0233 21.6037C54.4486 20.6903 53.782 20.8763 52.827 21.0665C53.5856 21.3989 54.062 21.7291 55.0233 21.6037ZM125.726 149.755C125.398 149.805 125.015 149.807 125.024 150.263C125.024 150.539 125.27 150.668 125.527 150.681C125.853 150.704 126.25 150.723 126.34 150.336C126.445 149.899 126.031 149.847 125.726 149.755ZM249.997 71.5457C249.834 71.9637 249.069 72.133 249.416 72.7998C249.899 72.5511 250.049 72.0954 249.997 71.5457ZM204.284 105.22H204.326V104.043H204.284V105.22ZM60.6928 31.5654C60.6928 31.7932 60.8662 31.9165 60.8892 31.8371C60.9455 31.6075 61.0614 31.3968 61.225 31.2262C61.3886 31.0555 61.5942 30.931 61.8212 30.8652C61.6665 30.8158 61.5078 30.7801 61.3469 30.7586C60.7659 30.723 60.6657 31.1014 60.6949 31.5654H60.6928ZM26.8304 68.9017C26.8304 69.4702 26.5107 70.0325 26.8659 70.5926C27.1021 70.0011 26.9683 69.4389 26.8304 68.9017ZM205.368 143.652C205.381 143.219 205.243 143.039 204.93 143.131C204.616 143.223 204.585 143.47 204.633 143.731C204.681 143.992 204.758 144.285 205.07 144.149C205.243 144.07 205.31 143.76 205.368 143.656V143.652ZM24.2705 119.983L24.1493 119.897V121.36H24.2705V119.983ZM86.8336 38.6008C86.6016 37.9968 86.1857 37.8651 85.6466 38.1598C85.5341 38.2711 85.4664 38.4199 85.4564 38.5778C85.6529 38.7289 85.8927 38.8132 86.1405 38.818C86.3884 38.8229 86.6313 38.7483 86.8336 38.605V38.6008ZM42.5516 138.922C42.3687 138.619 42.1642 138.331 41.9394 138.058C41.5611 137.693 41.0826 137.308 40.7545 138.033C40.5058 138.581 41.0826 138.713 41.4566 138.846C41.6782 138.922 41.9414 138.878 42.5516 138.922ZM113.862 20.5085C114.364 20.8408 114.857 20.6694 115.674 20.6067C114.859 20.3559 114.372 20.3684 113.862 20.5001V20.5085ZM155.315 39.1401C155.198 39.0293 155.137 38.9311 155.074 38.9311C154.569 38.9206 154.042 38.8495 153.559 38.9603C153.263 39.0272 153.256 38.8035 153.403 39.0606C153.645 39.4787 154.17 39.255 154.571 39.2843C154.824 39.264 155.074 39.2128 155.315 39.1317V39.1401ZM145.493 19.9713C145.284 19.9859 144.993 19.8835 144.912 20.1803C144.895 20.243 145.121 20.4144 145.253 20.4646C145.493 20.5566 145.748 20.5335 145.815 20.2305C145.834 20.1636 145.612 20.0529 145.497 19.963L145.493 19.9713ZM253.324 71.8425C253.253 71.7171 253.188 71.4914 253.115 71.4872C252.814 71.4663 252.716 71.7066 252.729 71.9595C252.729 72.0933 252.852 72.34 252.896 72.3337C253.016 72.3155 253.126 72.2542 253.205 72.1612C253.284 72.0682 253.326 71.9498 253.324 71.8279V71.8425ZM251.491 44.2526C251.209 44.1272 251.038 44.2672 250.917 44.5013C250.796 44.7354 250.664 44.9904 250.963 45.0907C251.126 45.1472 251.42 44.9946 251.577 44.8482C251.774 44.6559 251.717 44.4072 251.491 44.2379V44.2526ZM210.154 62.7462C210.016 62.8235 209.715 62.8862 209.634 63.0555C209.404 63.53 209.83 63.5718 210.135 63.6429C210.193 63.6629 210.255 63.6683 210.315 63.6588C210.375 63.6493 210.432 63.6251 210.481 63.5883C210.53 63.5516 210.569 63.5034 210.594 63.448C210.62 63.3926 210.632 63.3318 210.628 63.2708C210.653 62.9866 210.522 62.8026 210.154 62.7295V62.7462ZM204.315 108.612C204.294 108.769 204.271 108.924 204.257 109.081C204.253 109.162 204.253 109.244 204.257 109.325C204.282 109.242 204.301 109.158 204.313 109.072C204.319 108.903 204.313 108.75 204.315 108.596V108.612ZM88.1082 3.60757C88.0055 3.44765 87.8612 3.31873 87.6907 3.23476C87.5202 3.15078 87.3301 3.11493 87.1407 3.13101C86.8001 3.14146 86.3049 2.94497 86.2108 3.68488C86.8148 3.7016 87.3559 4.00469 88.1082 3.59084V3.60757ZM24.026 62.928C23.6457 63.0033 23.5203 63.3084 23.42 63.6199C23.3322 63.8874 23.3761 64.18 23.7189 63.9856C23.9675 63.8435 24.1158 63.5049 24.2705 63.2311C24.3039 63.1726 24.1117 63.0138 24.026 62.9113V62.928ZM43.4231 3.37973C43.2727 3.46125 42.9634 3.28776 42.9885 3.63681C43.1237 3.70118 43.2741 3.72722 43.4231 3.71208C43.5722 3.67601 43.7161 3.62123 43.8515 3.54904L43.4231 3.37973ZM174.766 26.6284L174.296 26.7581C174.44 26.8249 174.586 26.9482 174.726 26.942C174.91 26.942 175.211 27.0694 175.23 26.7141C175.078 26.6722 174.923 26.6435 174.766 26.6284ZM55.4203 2.5353H55.9094C55.8436 2.49659 55.7734 2.46574 55.7004 2.44335C55.6187 2.43084 55.5355 2.43084 55.4538 2.44335C55.4413 2.45171 55.4412 2.51231 55.4203 2.5353ZM60.9269 137.895C60.8934 137.95 60.837 138 60.8307 138.056C60.7995 138.217 60.7995 138.382 60.8307 138.543C60.8788 138.702 60.9812 138.635 60.9833 138.382C60.9738 138.219 60.955 138.057 60.9269 137.895ZM250.152 64.4769C249.998 64.6383 249.862 64.8163 249.746 65.0078C249.714 65.0556 249.696 65.1114 249.693 65.1692C249.69 65.2269 249.704 65.2842 249.732 65.3348C249.759 65.3854 249.801 65.4274 249.851 65.4559C249.901 65.4845 249.958 65.4987 250.016 65.4968C250.302 65.5156 250.421 65.2878 250.455 65.0328C250.488 64.7778 250.482 64.5814 250.152 64.4769ZM195.973 3.61798C196.229 3.65607 196.487 3.67703 196.746 3.6807C197.014 3.66398 197.035 3.53859 196.788 3.44663C196.638 3.39841 196.48 3.3855 196.324 3.40897C196.23 3.41942 196.142 3.51348 195.973 3.61798ZM96.8539 25.0211C96.8288 25.1152 96.8016 25.2092 96.7765 25.3033C96.9962 25.3853 97.2262 25.4367 97.4599 25.4558C97.7065 25.4412 98.1329 25.5645 98.0493 24.9396L96.8539 25.0211ZM107.136 145.257C106.881 145.476 106.707 145.554 106.682 145.675C106.664 145.735 106.659 145.798 106.668 145.86C106.678 145.921 106.701 145.98 106.736 146.032C106.771 146.084 106.817 146.127 106.871 146.159C106.925 146.19 106.985 146.209 107.048 146.214C107.299 146.252 107.564 146.168 107.497 145.855C107.451 145.629 107.267 145.445 107.136 145.257Z" fill="black"/>
<path d="M0.764705 144.877C0.865903 144.941 0.94044 145.04 0.974598 145.155C1.00876 145.271 1.00028 145.394 0.950721 145.504C0.825336 145.817 0.626769 146.118 0.229716 145.982C-0.0377725 145.888 -0.0419071 145.6 0.0667601 145.376C0.200504 145.1 0.323767 144.749 0.764705 144.877Z" fill="black"/>
<path d="M83.5776 111.142C82.1796 108.261 82.9173 65.5513 84.1565 60.6875C84.9673 60.7669 84.729 61.3898 84.7123 61.835C84.3069 73.2472 83.9329 84.6594 83.9266 96.08C83.9266 98.3081 84.0624 100.542 84.2672 102.768C84.5305 105.611 83.8096 108.353 83.5776 111.142Z" fill="black"/>
<path d="M178.318 85.9385C179.079 87.4894 178.807 88.7142 178.833 89.8867C179.046 99.9195 179.237 109.96 179.405 120.008C179.434 121.638 179.391 123.271 179.349 124.901C179.338 125.414 179.262 125.924 179.125 126.418C179.076 126.584 178.973 126.729 178.833 126.829C178.692 126.93 178.522 126.981 178.35 126.974C178.264 126.975 178.18 126.958 178.101 126.925C178.022 126.892 177.95 126.844 177.89 126.783C177.83 126.722 177.783 126.649 177.752 126.57C177.72 126.491 177.704 126.406 177.706 126.32C177.666 125.808 177.654 125.294 177.66 124.78C177.794 112.933 177.842 101.086 177.738 89.2367C177.719 88.2836 177.483 87.2365 178.318 85.9385Z" fill="black"/>
<path d="M145.871 106.957C144.914 106.468 145.131 105.594 145.137 104.911C145.179 99.84 145.043 94.7526 145.411 89.7049C145.829 84.1159 145.254 78.5456 145.53 72.9649C145.691 69.7084 145.685 66.4499 146.017 63.1914C146.295 60.4616 146.243 57.6985 146.339 54.9499C146.354 54.5047 146.471 53.9529 146.918 53.9258C147.628 53.884 147.609 54.5235 147.591 55.0398C147.499 57.8761 147.591 60.7313 147.26 63.5405C146.633 69.0208 146.713 74.5262 146.487 80.015C146.228 86.2729 146.456 92.5559 146.445 98.8263C146.445 101.146 146.364 103.466 146.316 105.786C146.307 106.192 146.266 106.595 145.871 106.957Z" fill="black"/>
<path d="M182.141 87.1173C181.353 85.5141 181.422 83.9695 181.401 82.473C181.273 72.7642 181.02 63.0535 181.593 53.3489C181.691 51.7186 181.263 50.0841 181.647 48.4642C181.758 47.996 181.781 47.3272 182.517 47.4777C183.05 47.5863 182.953 48.1465 182.935 48.5457C182.832 52.8389 182.619 57.132 182.617 61.4252C182.617 68.8912 182.753 76.3551 182.778 83.8211C182.79 84.8495 183.177 86.02 182.141 87.1173Z" fill="black"/>
<path d="M83.3477 44.4722C84.6182 44.4722 85.918 44.2966 87.1551 44.4993C97.186 46.1422 107.392 45.6803 117.63 46.5017C117.154 47.5468 116.506 47.4715 115.925 47.4841C104.979 47.737 94.1245 46.8341 83.3247 45.1996L83.3477 44.4722Z" fill="black"/>
<path d="M80.9359 77.7368C80.4703 76.6256 80.2706 75.421 80.3529 74.219C80.7457 67.2693 80.0937 60.33 80.0875 53.3845C80.0778 50.9824 80.1971 48.5816 80.4448 46.1923C80.4887 45.7931 80.5473 45.2872 81.1387 45.3562C81.5462 45.4043 81.6443 45.7993 81.6715 46.1379C81.7227 46.6508 81.7227 47.1675 81.6715 47.6804C81.0885 52.1366 81.5419 56.5886 81.707 61.0406C81.8846 65.7602 81.8261 70.4756 81.659 75.191C81.6422 75.933 81.6861 76.7272 80.9359 77.7368Z" fill="black"/>
<path d="M90.8081 83.8965C90.3316 82.2871 90.5531 57.1887 91.1006 51.4679C91.1675 50.7531 91.1007 49.9713 91.9533 49.4551C91.853 60.4639 92.3461 71.4518 91.4977 82.4251C91.4559 82.9601 91.5938 83.6708 90.8081 83.8965Z" fill="black"/>
<path d="M130.739 131.023C128.921 131.993 127.015 132.277 125.097 132.208C115.507 131.813 105.917 131.514 96.323 131.372C95.5373 131.362 94.6032 131.535 93.7568 130.266C106.331 129.357 118.504 131.92 130.739 131.023Z" fill="black"/>
<path d="M125.318 47.4046C126.472 46.5686 127.536 46.6814 128.509 46.6396C133.824 46.4139 139.138 46.2759 144.452 46.0586C147.796 45.9227 151.118 45.4734 154.47 45.6134C154.984 45.6364 155.503 45.5758 156.015 45.6134C156.527 45.651 157.112 45.8224 157.087 46.462C157.06 47.1329 156.443 47.1664 155.929 47.1726C145.984 47.3189 136.056 48.2971 126.098 47.7704C125.943 47.7578 125.793 47.6283 125.318 47.4046Z" fill="black"/>
<path d="M150.659 88.641C151.154 76.2736 151.24 63.8602 152.207 51.4907C153.252 52.9956 153.269 55.4056 152.807 60.6226C152.527 63.7766 152.508 66.9537 152.351 70.1181C152.199 73.199 152.153 76.2945 151.814 79.3545C151.476 82.4145 152.032 85.6228 150.659 88.641Z" fill="black"/>
<path d="M185.225 77.9708C184.241 77.072 184.448 76.2736 184.465 75.5546C184.605 69.7983 184.895 64.0462 184.753 58.2837C184.686 55.5393 184.406 52.7929 184.64 50.0443C184.69 49.4466 184.724 48.8446 184.833 48.2573C184.838 48.1721 184.862 48.0892 184.904 48.0147C184.946 47.9402 185.004 47.8761 185.073 47.8269C185.143 47.7778 185.223 47.7449 185.307 47.7308C185.391 47.7166 185.478 47.7216 185.56 47.7452C185.685 47.7717 185.798 47.8419 185.876 47.9433C185.955 48.0447 185.996 48.1707 185.99 48.2991C186.067 48.9813 186.108 49.6671 186.111 50.3537C186.124 57.5731 186.331 64.7904 185.974 72.0076C185.88 73.8762 185.861 75.751 185.225 77.9708Z" fill="black"/>
<path d="M87.776 82.2934C86.6663 81.2149 86.9025 80.2304 86.9275 79.3547C87.0759 74.1293 87.3058 68.9039 87.4396 63.6786C87.5148 60.7649 87.381 57.8449 87.4897 54.9334C87.5628 52.9707 87.8825 51.0185 88.1166 49.0643C88.1438 48.8302 88.3779 48.6462 88.9797 48.6776C88.0164 59.7052 89.1594 70.8164 87.776 82.2934Z" fill="black"/>
<path d="M182.377 95.6555C183.043 96.2826 182.855 97.1897 182.918 97.9839C183.313 103.136 182.845 108.293 182.939 113.451C183.004 117.059 182.96 120.668 182.956 124.278C182.956 124.792 182.924 125.308 182.882 125.823C182.843 126.293 182.623 126.659 182.097 126.611C181.716 126.573 181.539 126.245 181.514 125.879C181.47 125.279 181.424 124.677 181.432 124.077C181.558 114.977 181.894 105.878 181.775 96.7738C181.771 96.3766 181.681 95.898 182.377 95.6555Z" fill="black"/>
<path d="M142.732 91.3479C142.922 102.706 141.875 114.039 142.314 125.39C142.313 125.454 142.299 125.517 142.272 125.574C142.245 125.632 142.206 125.683 142.158 125.725C142.11 125.767 142.054 125.798 141.993 125.816C141.932 125.834 141.868 125.839 141.804 125.831C140.571 122.387 141.09 96.0068 142.732 91.3479Z" fill="black"/>
<path d="M90.7393 93.4504C91.4457 95.1685 91.2366 96.362 91.2241 97.5116C91.1677 103.763 91.1552 110.017 90.7268 116.262C90.6327 117.615 90.8981 118.992 90.988 120.359C91.082 121.812 91.2325 123.268 90.779 124.698C90.6578 125.085 90.6766 125.639 90.1061 125.607C89.5356 125.576 89.5377 125.066 89.5335 124.635C89.5126 122.493 89.2744 120.326 89.5335 118.217C90.313 111.716 89.801 105.199 90.0079 98.6925C90.0319 96.9215 90.2776 95.1604 90.7393 93.4504Z" fill="black"/>
<path d="M188.232 104.67C189.01 105.555 188.934 106.552 188.987 107.402C189.265 111.925 189.956 116.438 189.461 120.988C189.319 122.286 189.651 123.547 189.71 124.826C189.753 125.506 189.753 126.189 189.71 126.87C189.695 127.043 189.384 127.288 189.177 127.323C189.114 127.329 189.05 127.322 188.989 127.302C188.929 127.283 188.873 127.252 188.824 127.211C188.776 127.169 188.736 127.119 188.707 127.062C188.679 127.006 188.661 126.944 188.657 126.88C188.448 125.185 188.094 123.49 188.071 121.791C188.005 117.08 187.969 112.373 187.653 107.67C187.582 106.713 187.336 105.634 188.232 104.67Z" fill="black"/>
<path d="M135.366 130.979C135.351 130.851 135.386 130.722 135.464 130.619C135.542 130.516 135.656 130.447 135.784 130.427C143.808 130.022 151.808 129.075 159.858 129.23C160.57 129.242 161.389 129.046 161.995 129.735C160.006 130.634 137.629 131.665 135.366 130.979Z" fill="black"/>
<path d="M124.131 49.6411C122.152 50.2682 102.458 49.6871 100.517 49.0663C103.023 47.9502 121.346 48.293 124.131 49.6411Z" fill="black"/>
<path d="M168.706 125.927C169.565 125.927 170.426 125.873 171.278 125.944C171.955 126 173.144 125.509 173.115 126.621C173.09 127.599 171.891 127.202 171.205 127.296C170.018 127.459 168.812 127.505 167.615 127.587C163.682 127.883 159.749 128.18 155.816 128.477C155.389 128.515 154.96 128.527 154.531 128.513C153.952 128.485 153.12 128.567 153.154 127.779C153.185 127.064 153.99 127.052 154.598 127.043C159.325 126.991 164 126.272 168.706 125.927Z" fill="black"/>
<path d="M185.091 107.131C186.387 111.102 186.427 124.397 185.275 126.851C184.241 124.932 184.082 113.096 185.091 107.131Z" fill="black"/>
<path d="M100.225 128.017C101.201 127.292 102.049 127.47 102.849 127.564C107.656 128.128 112.439 127.539 117.231 127.244C119.285 127.116 121.346 127.066 123.406 127.008C123.732 126.997 124.102 127.096 124.136 127.535C124.169 127.973 123.849 128.109 123.509 128.182C123.34 128.211 123.168 128.223 122.997 128.218C116.648 128.262 110.331 129.167 103.98 128.973C102.734 128.935 101.491 128.987 100.225 128.017Z" fill="black"/>
<path d="M97.1797 125.031C99.4617 123.825 114.813 123.568 117.806 124.698C116.366 125.534 115.02 125.083 113.781 125.202C112.42 125.334 111.049 125.401 109.681 125.43C108.228 125.461 106.776 125.409 105.321 125.407C103.955 125.407 102.586 125.459 101.221 125.407C99.9528 125.378 98.5736 125.932 97.1797 125.031Z" fill="black"/>
<path d="M194.13 104.53C195.051 105.27 194.928 106.186 194.93 106.978C194.93 112.023 194.9 117.068 194.84 122.111C194.83 122.905 195.049 124.27 194.032 124.255C192.669 124.236 193.219 122.83 193.229 121.998C193.29 116.772 193.411 111.566 193.513 106.349C193.526 105.761 193.409 105.141 194.13 104.53Z" fill="black"/>
<path d="M90.576 130.471C88.4863 131.004 86.6515 130.559 84.8523 130.327C81.2036 129.855 77.6426 128.906 74.0566 128.099C73.5279 127.98 73.0701 127.8 72.9009 127.232C72.7316 126.663 72.8508 126.147 73.4986 126.082C74.0075 126.044 74.5182 126.125 74.9906 126.318C79.563 128.134 84.3506 128.979 89.2009 129.549C89.621 129.598 90.0536 129.646 90.576 130.471Z" fill="black"/>
<path d="M149.911 100.722C150.053 108.301 150.366 115.849 149.819 123.576C148.745 121.904 148.59 120.737 148.92 116.039C149.106 113.384 148.945 110.734 149.002 108.084C149.062 105.619 149.062 103.109 149.911 100.722Z" fill="black"/>
<path d="M80.1128 113.497C80.7397 106.809 79.4273 100.074 80.6811 93.3816C81.8451 93.5321 81.6174 94.2511 81.6613 94.7715C82.073 99.5559 81.235 111.829 80.1128 113.497Z" fill="black"/>
<path d="M142.872 77.7702C142.295 71.0818 142.555 64.3933 142.684 57.7048C142.699 56.9106 142.53 56.0118 143.294 55.2803C144.176 57.6944 143.946 75.8515 142.872 77.7702Z" fill="black"/>
<path d="M93.581 70.3816C92.8747 68.3249 93.5373 50.2179 94.0952 48.8154C94.904 49.2021 94.7326 49.9546 94.7451 50.5796C94.8788 57.2074 94.3898 63.7997 93.581 70.3816Z" fill="black"/>
<path d="M177.813 64.828C177.813 61.5276 177.773 58.4823 177.827 55.4391C177.863 53.3928 178.013 51.3486 178.153 49.3066C178.191 48.7694 178.03 47.9333 178.931 48.0023C179.593 48.0525 179.497 48.7464 179.501 49.2376C179.501 49.919 179.46 50.6024 179.428 51.2838C179.255 55.0356 179.1 58.7896 178.881 62.5372C178.839 63.2458 179.025 64.109 177.813 64.828Z" fill="black"/>
<path d="M93.9678 123.634C93.4767 123.482 93.2657 123.31 93.2928 123.03C93.8633 116.854 93.2928 110.663 93.3764 104.482C94.9375 107.074 95.1673 118.108 93.9678 123.634Z" fill="black"/>
<path d="M146.239 127.602C144.429 124.82 144.164 116.173 145.633 111.913C146.433 114.421 145.823 117.034 146.051 119.584C146.321 122.247 146.384 124.928 146.239 127.602Z" fill="black"/>
<path d="M173.784 49.0787C171.253 50.2367 161.114 50.3809 158.031 49.3714C160.932 48.4747 163.538 48.7444 166.096 48.7444C168.653 48.7444 171.264 48.3974 173.784 49.0787Z" fill="black"/>
<path d="M93.4493 95.0871C92.3438 93.1663 92.3878 85.2968 93.395 81.2085C94.2017 82.2285 94.2435 82.2306 93.9133 87.897C93.7795 90.2212 94.0156 92.5873 93.4493 95.0871Z" fill="black"/>
<path d="M86.47 104.29C86.1879 99.3866 86.8441 94.5688 87.005 89.7573C87.7845 89.6716 87.8409 90.1273 87.8534 90.5474C87.9307 94.759 87.7092 98.9623 87.4794 103.166C87.4501 103.684 87.3581 104.196 86.47 104.29Z" fill="black"/>
<path d="M184.797 99.723C184.469 95.712 184.151 91.701 184.5 87.3911C186.021 89.1552 186.189 97.0601 184.797 99.723Z" fill="black"/>
<path d="M154 122.173C157.892 121.418 161.865 121.171 165.82 121.438C164.28 122.765 157.245 123.173 154 122.173Z" fill="black"/>
<path d="M112.953 52.0885C109.64 53.1511 106.067 53.0827 102.797 51.894C106.191 51.5722 109.58 51.5095 112.953 52.0885Z" fill="black"/>
<path d="M133.401 124.686C131.753 125.647 127.462 125.609 124.528 124.604C126.313 123.735 131.268 123.781 133.401 124.686Z" fill="black"/>
<path d="M174.379 46.0793C174.904 45.0008 175.585 45.1722 176.133 45.0865C177.982 44.7959 179.894 45.0718 181.723 44.5388C181.969 44.4613 182.23 44.4399 182.486 44.4761C182.742 44.5122 182.987 44.6051 183.202 44.7478C183.307 44.8162 183.395 44.9056 183.462 45.0104C183.53 45.1152 183.574 45.233 183.593 45.3561C183.593 45.5547 183.334 45.7741 183.148 45.9225C183.01 46.0237 182.843 46.0772 182.672 46.0751C179.961 46.0814 177.251 46.0793 174.379 46.0793Z" fill="black"/>
<path d="M119.306 52.5987C121.718 51.5536 124.558 51.6184 127.287 52.7951C124.382 53.4807 122.052 53.5581 119.306 52.5987Z" fill="black"/>
<path d="M86.5973 108.865C87.6422 112.272 87.5043 114.841 86.0874 117.136C85.7677 114.191 85.7196 111.773 86.5973 108.865Z" fill="black"/>
<path d="M111.118 122.2C108.314 122.524 105.549 122.69 102.864 121.782C105.674 121.053 108.443 121.038 111.118 122.2Z" fill="black"/>
<path d="M80.3091 117.211C80.9892 119.249 81.2902 121.394 81.1973 123.54C81.1973 123.722 80.9277 123.944 80.7313 124.054C80.6758 124.086 80.6138 124.103 80.5501 124.106C80.4865 124.109 80.4231 124.096 80.3653 124.07C80.3074 124.043 80.2566 124.003 80.2171 123.954C80.1776 123.904 80.1504 123.845 80.1378 123.783C79.7742 121.598 79.2643 119.404 80.3091 117.211Z" fill="black"/>
<path d="M133.368 52.6592C135.343 51.6142 137.422 51.5368 139.531 51.8817C139.949 51.9507 140.346 52.214 140.183 52.7637C140.163 52.8479 140.127 52.9273 140.076 52.9974C140.026 53.0675 139.962 53.1268 139.888 53.1719C139.815 53.217 139.733 53.247 139.647 53.2602C139.562 53.2734 139.475 53.2695 139.391 53.2487C137.431 52.5986 135.383 53.1316 133.368 52.6592Z" fill="black"/>
<path d="M178.283 76.1941C177.148 74.4969 176.994 70.1515 178.007 68.1492C178.624 70.9479 178.555 73.4163 178.283 76.1941Z" fill="black"/>
<path d="M191.457 114.013C190.83 112.228 190.926 110.376 190.964 108.537C190.964 108.184 191.237 107.877 191.641 107.998C191.754 108.043 191.854 108.114 191.935 108.205C192.015 108.296 192.072 108.405 192.103 108.523C192.289 110.368 192.41 112.216 191.457 114.013Z" fill="black"/>
<path d="M137.445 49.9922C135.193 50.5795 133.092 50.452 130.589 50.4269C132.503 48.7548 135.387 48.6607 137.445 49.9922Z" fill="black"/>
<path d="M197.45 112.088C197.417 112.588 197.41 113.092 197.337 113.587C197.328 113.712 197.279 113.831 197.196 113.925C197.114 114.02 197.002 114.084 196.88 114.11C196.462 114.2 196.253 113.957 196.098 113.656C195.638 112.797 195.68 111.871 195.81 110.949C195.881 110.427 196.119 109.904 196.71 109.929C197.381 109.961 197.364 110.573 197.383 111.077C197.396 111.413 197.383 111.75 197.383 112.084L197.45 112.088Z" fill="black"/>
<path d="M191.722 118.626C192.414 120.204 192.197 121.373 192.203 122.514C192.203 122.844 192.082 123.193 191.666 123.241C191.141 123.302 190.901 122.926 190.817 122.512C190.565 121.26 190.69 120.073 191.722 118.626Z" fill="black"/>
<path d="M83.235 117.979C83.7721 121.584 83.653 122.32 82.3156 123.856C82.1066 121.895 82.0585 120.171 83.235 117.979Z" fill="black"/>
<path d="M170.169 124.393C168.186 125.25 166.434 125.02 164.317 124.934C165.872 123.649 167.661 123.526 170.169 124.393Z" fill="black"/>
<path d="M171.55 120.884C171.972 120.863 172.395 120.867 172.816 120.898C172.932 120.912 173.043 120.95 173.142 121.01C173.242 121.071 173.327 121.151 173.393 121.247C173.552 121.628 173.28 121.9 172.931 121.983C172.197 122.173 171.45 122.313 170.697 122.401C170.193 122.449 169.6 122.322 169.519 121.703C169.427 120.999 170.035 120.957 170.534 120.909C170.871 120.878 171.211 120.909 171.55 120.909V120.884Z" fill="black"/>
<path d="M76.8467 124.243C75.3839 124.671 73.921 124.928 72.4102 123.708C74.1279 122.706 75.4863 123.369 76.8467 124.243Z" fill="black"/>
<path d="M128.187 121.605C126.578 122.023 126.142 122.023 123.916 121.67C125.239 120.583 126.284 120.568 128.187 121.605Z" fill="black"/>
<path d="M157.812 124.654C156.261 125.428 155.083 125.221 153.935 125.192C153.517 125.192 153.076 125.037 153.112 124.475C153.139 124.077 153.488 123.916 153.808 123.9C155.02 123.843 156.263 123.674 157.812 124.654Z" fill="black"/>
<path d="M74.9614 121.191C75.4204 121.23 75.8762 121.3 76.3259 121.4C76.4393 121.446 76.541 121.517 76.6241 121.607C76.7071 121.697 76.7695 121.804 76.8066 121.92C76.9028 122.338 76.562 122.501 76.2047 122.522C75.6969 122.55 75.1849 122.541 74.675 122.522C74.2216 122.522 73.7263 122.355 73.7117 121.883C73.6866 121.197 74.2905 121.187 74.9614 121.191Z" fill="black"/>
<path d="M137.778 125.3C137.182 125.265 136.733 125.164 136.674 124.673C136.632 124.335 136.946 124.094 137.282 123.973C137.359 123.942 137.439 123.919 137.52 123.904C138.147 123.801 138.822 123.413 139.347 124.113C139.385 124.182 139.407 124.258 139.411 124.337C139.415 124.416 139.401 124.494 139.37 124.567C138.988 125.306 138.214 125.104 137.778 125.3Z" fill="black"/>
<path d="M145.666 51.4929C145.006 51.5493 144.515 51.3759 144.659 50.891C144.924 49.988 145.831 50.1134 146.54 50.0298C146.941 49.9817 147.553 50.0298 147.484 50.5503C147.328 51.7855 146.109 51.0895 145.666 51.4929Z" fill="black"/>
<path d="M152.276 119.458C153.452 118.572 154.328 118.771 155.302 118.888C154.422 120.012 154.422 120.012 152.276 119.458Z" fill="black"/>
<path d="M161.741 46.4786C162.081 45.6843 162.717 45.7763 163.281 45.8014C163.399 45.8233 163.511 45.8724 163.607 45.945C163.703 46.0175 163.781 46.1115 163.835 46.2194C164 46.6583 163.605 46.7858 163.295 46.8882C162.683 47.0868 162.152 46.9844 161.741 46.4786Z" fill="black"/>
<path d="M93.3055 73.0696C94.0536 73.5984 94.0829 74.1147 93.782 74.6707C93.7599 74.7266 93.7232 74.7756 93.6759 74.8127C93.6285 74.8498 93.5722 74.8736 93.5126 74.8817C93.453 74.8898 93.3924 74.8819 93.3369 74.8588C93.2814 74.8356 93.233 74.7981 93.1968 74.7501C92.8144 74.2317 92.9105 73.6841 93.3055 73.0696Z" fill="black"/>
<path d="M227.365 81.1082C228.556 82.4981 228.27 83.6581 228.28 84.7137C228.381 94.9345 228.521 105.157 227.921 115.37C227.814 117.17 227.894 118.977 227.892 120.781C227.892 121.492 227.892 122.29 226.941 122.284C226.157 122.284 226.105 121.536 226.105 120.93C226.128 118.695 226.105 116.459 226.239 114.241C226.732 105.833 226.755 97.4134 226.772 88.9964C226.776 86.5154 226.786 84.0511 227.365 81.1082Z" fill="black"/>
<path d="M233.342 117.993C232.715 114.507 232.581 111.269 233.085 108.084C233.841 103.31 233.839 98.5232 233.846 93.7221C233.846 89.7787 233.883 85.8339 233.958 81.8877C233.971 81.1582 233.749 80.3326 234.445 79.7202C235.242 79.7725 235.055 80.4016 235.062 80.8385C235.218 90.3507 235.308 99.8588 234.6 109.365C234.454 111.325 234.6 113.307 234.575 115.278C234.567 116.2 234.742 117.205 233.342 117.993Z" fill="black"/>
<path d="M234.794 77.9709C233.651 77.3815 233.971 76.4368 233.958 75.6488C233.739 67.0792 234.054 58.5096 234.46 49.94C234.593 47.1245 235.049 44.2966 234.552 41.477C234.485 41.0882 234.472 40.5698 235.085 40.5155C235.528 40.4758 235.655 40.8687 235.711 41.1739C235.892 41.9207 236.002 42.6827 236.04 43.4501C236.125 49.8835 235.668 56.294 235.25 62.7066C234.942 67.4178 235.139 72.1332 235.105 76.8464C235.101 77.1934 235.16 77.5341 234.794 77.9709Z" fill="black"/>
<path d="M223.039 81.9233C221.624 70.0095 221.1 58.0601 222.749 46.1128C223.708 52.0927 222.651 58.0831 222.928 64.0734C223.198 70.0053 224.059 75.9434 223.039 81.9233Z" fill="black"/>
<path d="M230.55 110.303C229.608 107.613 230.295 104.909 230.306 102.223C230.306 99.3949 230.849 96.5941 230.776 93.7494C230.705 91.0071 230.776 88.2607 230.776 85.5163C230.776 82.772 230.358 80.0819 230.882 77.3647C231.967 77.417 231.787 78.1653 231.816 78.6795C232.055 82.9538 232.483 87.2114 232.178 91.5192C231.873 95.7915 231.986 100.089 231.823 104.378C231.739 106.384 231.745 108.445 230.55 110.303Z" fill="black"/>
<path d="M230.981 42.104C232.025 43.6507 231.982 44.7836 231.867 45.8663C231.277 51.4323 231.543 57.0214 231.34 62.5875C231.238 65.4154 230.922 68.2309 231.215 71.063C231.247 71.2975 231.213 71.5362 231.117 71.7526C231.021 71.9689 230.867 72.1542 230.671 72.2878C229.704 71.6608 229.754 70.6951 229.758 69.8214C229.775 67.2443 229.875 64.6692 229.923 62.0879C230.015 57.1969 229.886 52.2997 230.235 47.4151C230.354 45.8265 230.406 44.2088 230.981 42.104Z" fill="black"/>
<path d="M223.982 89.1616C224.504 89.8493 224.323 90.7021 224.295 91.4984C224.174 95.1102 224.362 98.7136 224.55 102.317C224.653 103.778 224.657 105.245 224.563 106.706C224.224 110.814 223.639 114.9 223.702 119.038C223.715 119.77 223.848 120.871 222.785 120.823C221.721 120.775 221.988 119.663 222.047 118.957C222.3 115.966 222.661 112.983 222.906 109.99C223.338 104.668 222.906 99.3302 223.002 94.0149C223.027 92.7274 223.092 91.4378 223.175 90.1523C223.2 89.7364 223.234 89.264 223.982 89.1616Z" fill="black"/>
<path d="M219.562 101.18C218.908 92.9551 218.889 84.7763 219.273 76.5767C220.72 78.4348 220.03 80.5814 220.195 82.59C220.364 84.63 220.354 86.6867 220.383 88.735C220.414 90.8733 220.354 93.0157 220.421 95.1518C220.486 97.2085 220.088 99.2088 219.562 101.18Z" fill="black"/>
<path d="M210.994 95.1519C211.79 95.48 211.769 95.8499 211.769 96.1655C211.79 103.815 211.805 111.465 211.813 119.115C211.82 119.287 211.817 119.459 211.803 119.63C211.705 120.422 212.077 121.774 211.021 121.72C209.909 121.672 210.394 120.351 210.434 119.567C210.733 113.637 210.465 107.709 210.463 101.782C210.461 99.6018 210.292 97.3883 210.994 95.1519Z" fill="black"/>
<path d="M238.031 80.8469C238.796 81.1625 238.717 81.7352 238.721 82.2097C238.8 89.3434 238.982 96.4792 238.326 103.598C238.301 104.026 238.231 104.45 238.117 104.863C238.072 104.973 238.004 105.072 237.917 105.153C237.83 105.234 237.726 105.295 237.613 105.331C237.195 105.419 237.018 105.099 236.955 104.742C236.886 104.405 236.852 104.063 236.853 103.719C237.062 96.4186 237.532 89.126 237.523 81.8168C237.515 81.6248 237.558 81.4341 237.647 81.2638C237.737 81.0936 237.869 80.9498 238.031 80.8469Z" fill="black"/>
<path d="M207.826 112.377C207.655 107.67 207.42 103.431 208.12 98.8179C209.13 100.369 209.504 104.649 209.232 109.348C209.176 110.314 209.153 111.332 207.826 112.377Z" fill="black"/>
<path d="M226.561 72.9944C225.974 70.3945 225.763 67.724 225.934 65.0643C226.095 62.6941 225.15 60.2173 226.373 57.4395C227.273 61.3167 227.449 71.1195 226.561 72.9944Z" fill="black"/>
<path d="M238.851 49.595C239.392 50.454 239.243 51.334 239.245 52.1784C239.245 55.6982 239.229 59.218 239.216 62.7378C239.216 63.0806 239.202 63.4255 239.189 63.7683C239.174 64.2177 239.082 64.7005 238.573 64.7423C238.063 64.7841 237.887 64.3243 237.847 63.8728C237.828 63.6168 237.828 63.3596 237.847 63.1036C238.134 59.0738 238.155 55.0398 238.148 51.0058C238.144 50.5314 238 49.9503 238.851 49.595Z" fill="black"/>
<path d="M220.847 42.6057C220.149 43.5525 219.43 43.5546 218.757 43.4982C216.458 43.3017 214.16 43.0425 211.861 42.8105C211.516 42.7901 211.184 42.676 210.9 42.4804C210.615 42.2848 210.39 42.0152 210.248 41.7007C210.003 41.1907 209.466 40.5741 210.17 40.1205C210.751 39.7464 210.958 40.5197 211.351 40.7642C212.837 41.6964 214.548 41.7571 216.235 41.8657C217.746 41.964 219.305 41.7613 220.847 42.6057Z" fill="black"/>
<path d="M219.175 106.152C220.011 110.053 219.773 115.23 218.772 117.094C217.654 114.81 217.779 108.855 219.175 106.152Z" fill="black"/>
<path d="M226.347 50.3411C226.282 47.3877 226.04 44.5159 226.274 41.6315C226.299 41.2918 226.377 40.9582 226.506 40.6428C226.631 40.3398 226.828 40.0534 227.256 40.1245C227.383 40.1472 227.499 40.2107 227.586 40.3055C227.673 40.4002 227.727 40.5209 227.739 40.6491C227.833 41.1499 227.872 41.6594 227.856 42.1687C227.706 44.6371 227.53 47.1035 227.344 49.5699C227.319 49.8813 227.252 50.247 226.347 50.3411Z" fill="black"/>
<path d="M237.513 116.494C237.465 117.51 237.435 118.528 237.354 119.54C237.352 119.711 237.283 119.874 237.162 119.995C237.042 120.116 236.879 120.185 236.708 120.188C236.537 120.169 236.379 120.089 236.261 119.964C236.143 119.839 236.073 119.676 236.065 119.504C235.868 117.56 235.751 115.614 236.108 113.679C236.186 113.261 236.426 112.864 236.944 112.926C237.341 112.975 237.45 113.345 237.456 113.696C237.477 114.628 237.456 115.56 237.456 116.494H237.513Z" fill="black"/>
<path d="M217.759 54.9646C217.017 52.5358 217.855 50.2597 218.371 47.9563C218.463 47.5508 218.81 47.1537 219.311 47.2958C219.867 47.4547 219.756 47.9668 219.654 48.3618C219.069 50.5565 218.923 52.8682 217.759 54.9646Z" fill="black"/>
<path d="M236.88 39.0544C238.094 38.5193 238.907 38.7806 238.934 40.2249C238.923 41.1557 238.847 42.0846 238.706 43.0048C238.667 43.3288 238.518 43.6694 238.09 43.6673C237.618 43.6673 237.582 43.264 237.542 42.9504C237.377 41.6232 237.726 40.2207 236.947 38.9792L236.88 39.0544Z" fill="black"/>
<path d="M230.266 114.239C231.168 115.395 230.966 116.48 230.83 117.531C230.821 117.636 230.791 117.738 230.741 117.831C230.691 117.924 230.623 118.006 230.54 118.072C230.457 118.137 230.362 118.185 230.26 118.213C230.159 118.24 230.052 118.246 229.948 118.231C229.442 118.181 229.246 117.771 229.267 117.33C229.308 116.331 229.354 115.318 230.266 114.239Z" fill="black"/>
<path d="M208.361 120.706C208.177 121.482 208.691 123.244 207.734 123.185C206.321 123.095 207.291 121.41 207.042 120.455C207.012 120.287 207.012 120.115 207.042 119.947C207.115 119.304 206.99 118.294 207.838 118.359C208.687 118.424 208.217 119.444 208.344 120.031C208.368 120.255 208.373 120.481 208.361 120.706Z" fill="black"/>
<path d="M213.378 107.663C212.469 105.657 212.885 104.179 213.067 102.24C214.156 104.039 214.197 105.024 213.378 107.663Z" fill="black"/>
<path d="M218.977 120.616C218.95 121.145 218.904 121.77 218.154 121.87C218.069 121.88 217.983 121.869 217.904 121.84C217.824 121.81 217.752 121.763 217.694 121.701C217.635 121.639 217.592 121.564 217.568 121.482C217.544 121.401 217.539 121.315 217.554 121.231C217.654 120.616 217.658 119.816 218.54 119.768C218.935 119.753 218.962 120.209 218.977 120.616Z" fill="black"/>
<path d="M39.7158 95.0578C38.1318 78.7881 38.3804 62.6752 38.8548 46.5288C39.557 46.9009 39.4483 47.4924 39.4692 48.0274C39.7283 54.2059 39.8287 60.3886 39.5549 66.5629C39.2561 73.2848 40.2592 79.9398 40.5037 86.6158C40.581 88.6725 40.5726 90.7355 40.5266 92.7943C40.512 93.5007 40.7064 94.3409 39.7158 95.0578Z" fill="black"/>
<path d="M35.9623 111.236C35.0282 112.107 36.6519 113.855 35.0846 113.823C34.2383 113.807 34.7607 112.053 34.6437 111.089C34.5852 110.592 34.5643 109.854 35.1223 109.75C36.2298 109.541 36.1462 108.732 36.211 108.004C36.7063 102.536 36.9508 97.0833 36.5538 91.5757C36.1358 85.6815 36.1525 79.7539 36.023 73.8388C36.0062 73.1323 35.7889 72.269 36.8379 71.688C37.0135 73.5545 37.3269 75.3206 37.3185 77.0868C37.2893 84.8851 37.8619 92.6689 37.8368 100.463C37.8243 104.225 37.3959 107.988 37.4398 111.762C37.4398 112.274 37.6717 113.154 36.7439 113.096C36.0939 113.054 36.2904 112.302 36.1797 111.842C36.1421 111.681 36.0731 111.541 35.9623 111.236Z" fill="black"/>
<path d="M42.2946 78.7421C41.4044 77.9709 41.6447 77.1536 41.628 76.4178C41.4671 69.2089 41.2518 61.9958 41.21 54.789C41.1808 50.5878 41.0115 46.3761 41.419 42.1791C41.4608 41.7611 41.4629 41.3201 41.5235 40.8979C41.5305 40.8122 41.5551 40.7289 41.5957 40.6531C41.6363 40.5774 41.6921 40.5108 41.7595 40.4575C41.8269 40.4041 41.9046 40.3652 41.9877 40.3432C42.0707 40.3212 42.1574 40.3165 42.2424 40.3294C42.4154 40.3335 42.5815 40.3986 42.7111 40.5134C42.8408 40.6281 42.9257 40.7851 42.9508 40.9564C43.0126 41.292 43.0309 41.6341 43.0052 41.9743C42.2654 49.3295 42.5872 56.7119 42.4723 64.0818C42.4137 68.0154 42.6812 71.9554 42.7732 75.8911C42.7773 76.8066 42.9863 77.7744 42.2946 78.7421Z" fill="black"/>
<path d="M49.055 98.9998C48.5221 97.8648 48.6955 96.7591 48.6809 95.7078C48.6287 91.7678 48.5973 87.8258 48.6328 83.8859C48.6851 78.3972 48.0686 72.9419 47.9286 67.4636C47.9098 66.7425 47.473 65.6201 48.4991 65.5469C49.5251 65.4738 49.2869 66.6589 49.335 67.3612C49.9807 77.3688 49.8887 87.389 49.8052 97.4091C49.7989 97.9818 49.8637 98.6026 49.055 98.9998Z" fill="black"/>
<path d="M31.8814 37.7585C32.5898 37.8087 32.734 38.1389 32.7298 38.4796C32.5961 47.6219 34.2679 56.7078 33.9336 65.9463C33.5156 65.8502 33.4258 65.8397 33.3505 65.8104C33.2726 65.7885 33.201 65.7483 33.1416 65.6933C32.6526 65.1018 32.8114 64.3807 32.8051 63.714C32.6944 55.0775 30.8825 46.4975 31.8814 37.7585Z" fill="black"/>
<path d="M45.4269 99.2654C46.081 100.965 46.0538 102.353 46.0914 103.682C46.2168 108.654 46.2273 113.631 46.2774 118.606C46.2834 118.863 46.2674 119.12 46.2294 119.375C46.175 119.709 46.1144 120.079 45.6777 120.125C45.151 120.179 44.9129 119.826 44.8084 119.391C44.7365 119.057 44.7043 118.715 44.7123 118.373C44.683 113.059 44.6607 107.743 44.6453 102.426C44.6432 101.508 44.6057 100.559 45.4269 99.2654Z" fill="black"/>
<path d="M36.4827 63.1309C35.5904 62.4307 35.7827 61.695 35.7137 61.0408C35.1035 55.226 35.1704 49.3903 35.1516 43.5567C35.1516 42.4468 35.3187 41.3286 34.9676 40.2334C34.8548 39.8739 34.9531 39.529 35.3438 39.4203C35.4465 39.3873 35.5549 39.3762 35.6621 39.3877C35.7693 39.3993 35.8729 39.4333 35.9661 39.4875C36.0593 39.5417 36.14 39.6149 36.2031 39.7023C36.2662 39.7898 36.3102 39.8895 36.3323 39.9951C36.4836 40.487 36.5541 41.0002 36.5413 41.5146C36.2362 48.1237 36.675 54.7202 36.8944 61.3188C36.9174 61.881 36.9633 62.4725 36.4827 63.1309Z" fill="black"/>
<path d="M39.8141 100.766C40.2321 100.879 40.3323 101.207 40.3386 101.552C40.3846 104.455 40.4995 107.363 40.4201 110.262C40.3742 111.882 40.278 113.499 40.347 115.121C40.3856 115.803 40.3856 116.486 40.347 117.167C40.3114 117.665 40.232 118.298 39.5633 118.263C38.8424 118.223 38.8946 117.544 38.9845 117.082C39.4839 114.538 39.4317 111.967 39.1705 109.428C38.9563 107.047 38.9563 104.652 39.1705 102.271C39.2102 101.717 39.1141 101.048 39.8141 100.766Z" fill="black"/>
<path d="M45.4101 62.2655C43.9117 58.3276 43.5648 47.8205 44.8793 44.7751C45.5376 46.9426 45.2158 48.7694 45.3558 50.5314C45.5035 52.4084 45.6024 54.2895 45.6525 56.1748C45.6881 58.033 45.991 59.9141 45.4101 62.2655Z" fill="black"/>
<path d="M34.4727 88.3401C33.6724 82.5023 33.6975 76.6249 33.1792 70.7557C34.4498 70.7265 34.3703 71.458 34.4644 72.0098C35.2041 76.2486 34.9826 80.5334 34.9889 84.8036C34.9909 85.9574 35.1707 87.1655 34.4727 88.3401Z" fill="black"/>
<path d="M44.6643 65.752C45.2912 65.8147 45.4542 66.1345 45.4751 66.471C45.6987 69.9595 45.8408 73.4479 45.6276 76.9405C45.6025 77.3481 45.4186 77.7766 44.7562 77.9522C43.9934 73.8659 44.2609 69.8215 44.6643 65.752Z" fill="black"/>
<path d="M34.5166 92.5205C35.5615 96.8471 35.411 101.184 35.1603 105.548C33.8772 103.506 34.2554 101.193 34.1551 98.9916C34.0569 96.8367 33.5532 94.6253 34.5166 92.5205Z" fill="black"/>
<path d="M55.7254 39.3869C52.7684 40.2229 50.2733 41.4645 47.4208 41.477C47.0864 41.477 46.7248 41.4247 46.5953 41.0297C46.4469 40.5803 46.7896 40.3797 47.0989 40.2981C49.3196 39.7199 51.5487 39.1625 53.7861 38.626C54.2793 38.5006 54.7975 38.5195 55.7254 39.3869Z" fill="black"/>
<path d="M45.6817 93.8413C44.5031 91.3791 44.313 86.0743 45.2492 83.8086C46.037 87.1089 45.9848 90.4511 45.6817 93.8413Z" fill="black"/>
<path d="M42.886 95.946C43.5422 99.7982 43.2872 103.655 43.1388 107.532C42.3468 107.492 42.2068 107.164 42.1838 106.829C41.9669 103.433 41.9222 100.028 42.0501 96.6274C42.0668 96.293 42.2235 95.9753 42.886 95.946Z" fill="black"/>
<path d="M49.0757 112.845C48.6385 109.327 48.5342 105.777 48.7643 102.24C49.9158 103.523 49.9701 103.523 49.9116 107.555C49.8866 109.333 50.3275 111.213 49.0757 112.845Z" fill="black"/>
<path d="M42.4512 82.6528C43.6068 86.321 43.4104 89.4186 42.9778 92.7294C41.9768 90.9674 41.6487 85.6564 42.4512 82.6528Z" fill="black"/>
<path d="M43.1637 111.077C43.2598 112.749 43.3873 114.421 43.4353 116.093C43.4499 116.609 43.2014 117.138 42.5347 117.059C42.0374 116.994 41.8681 116.53 41.9266 116.087C42.1481 114.396 41.4459 112.563 42.52 110.999L43.1637 111.077Z" fill="black"/>
<path d="M49.0489 114.77C49.8096 116.835 49.4835 118.758 48.9172 120.671C47.8953 118.647 48.2799 116.668 49.0489 114.77Z" fill="black"/>
<path d="M58.9124 75.1282C58.9124 72.9858 59.0148 70.8371 58.8894 68.701C58.7076 65.6348 60.0012 62.8758 60.5048 59.9558C60.5612 59.636 60.8266 59.356 60.9666 59.0466C61.4264 58.0371 62.185 57.6985 63.2654 57.9263C64.4482 58.1771 64.3688 59.0654 64.3228 59.9287C64.1661 62.8361 63.9592 65.7435 63.8359 68.6529C63.6666 72.6723 63.1922 76.6687 63.188 80.711C63.188 82.5169 62.8224 84.4168 62.6949 86.2833C62.6531 86.8832 62.4609 87.5123 61.7921 87.7109C61.0545 87.9325 60.5007 87.6169 60.0242 87.0045C59.2928 86.0681 59.0754 84.9875 59.0629 83.8692C59.0274 80.9556 59.0504 78.0419 59.0504 75.1282H58.9124Z" fill="black"/>
</g>
<defs>
<clipPath id="clip0_401_132">
<rect width="255" height="154" fill="white"/>
</clipPath>
</defs>
</svg>
